%TF.GenerationSoftware,KiCad,Pcbnew,10.0.6*%
%TF.CreationDate,2026-09-13T15:46:54-04:00*%
%TF.ProjectId,Hackpad,4861636b-7061-4642-9e6b-696361645f70,rev?*%
%TF.SameCoordinates,Original*%
%TF.FileFunction,Copper,L1,Top*%
%TF.FilePolarity,Positive*%
%FSLAX46Y46*%
G04 Gerber Fmt 4.6, Leading zero omitted, Abs format (unit mm)*
G04 Created by KiCad (PCBNEW 10.0.6) date 2026-09-13 15:46:54*
%MOMM*%
%LPD*%
G01*
G04 APERTURE LIST*
%TA.AperFunction,ComponentPad*%
%ADD10C,2.200000*%
%TD*%
%TA.AperFunction,ComponentPad*%
%ADD11R,2.000000X2.000000*%
%TD*%
%TA.AperFunction,ComponentPad*%
%ADD12C,2.000000*%
%TD*%
%TA.AperFunction,ComponentPad*%
%ADD13R,3.200000X2.000000*%
%TD*%
%TA.AperFunction,ComponentPad*%
%ADD14R,3.500000X1.700000*%
%TD*%
%TA.AperFunction,ComponentPad*%
%ADD15O,3.600000X1.700000*%
%TD*%
%TA.AperFunction,ComponentPad*%
%ADD16O,3.700000X1.700000*%
%TD*%
%TA.AperFunction,ComponentPad*%
%ADD17R,1.700000X1.700000*%
%TD*%
%TA.AperFunction,ComponentPad*%
%ADD18C,1.700000*%
%TD*%
%TA.AperFunction,ViaPad*%
%ADD19C,0.600000*%
%TD*%
%TA.AperFunction,Conductor*%
%ADD20C,0.250000*%
%TD*%
G04 APERTURE END LIST*
D10*
%TO.P,SW4,1*%
%TO.N,/KEY2*%
X45790000Y-38420000D03*
%TO.P,SW4,2*%
%TO.N,/GND*%
X39440000Y-40960000D03*
%TD*%
%TO.P,SW1,1*%
%TO.N,/KEY1*%
X18040000Y-38420000D03*
%TO.P,SW1,2*%
%TO.N,/GND*%
X11690000Y-40960000D03*
%TD*%
D11*
%TO.P,SW6,A*%
%TO.N,/ENC_A*%
X8250000Y-13500000D03*
D12*
%TO.P,SW6,B*%
%TO.N,/ENC_B*%
X8250000Y-18500000D03*
%TO.P,SW6,C*%
%TO.N,/GND*%
X8250000Y-16000000D03*
D13*
%TO.P,SW6,MP*%
%TO.N,N/C*%
X15750000Y-10400000D03*
X15750000Y-21600000D03*
D12*
%TO.P,SW6,S1*%
%TO.N,/ENC_CLICK*%
X22750000Y-18500000D03*
%TO.P,SW6,S2*%
%TO.N,/GND*%
X22750000Y-13500000D03*
%TD*%
D14*
%TO.P,U1,1*%
%TO.N,/KEY1*%
X66875000Y-2880000D03*
D15*
%TO.P,U1,2*%
%TO.N,/KEY4*%
X66875000Y-5420000D03*
%TO.P,U1,3*%
%TO.N,/KEY2*%
X66875000Y-7960000D03*
%TO.P,U1,4*%
%TO.N,/KEY5*%
X66875000Y-10500000D03*
%TO.P,U1,5*%
%TO.N,/OLED_SDA*%
X66875000Y-13040000D03*
%TO.P,U1,6*%
%TO.N,/OLED_SCL*%
X66875000Y-15580000D03*
%TO.P,U1,7*%
%TO.N,/KEY3*%
X66875000Y-18120000D03*
%TO.P,U1,8*%
%TO.N,/KEY6*%
X84125000Y-18120000D03*
%TO.P,U1,9*%
%TO.N,/ENC_CLICK*%
X84125000Y-15580000D03*
%TO.P,U1,10*%
%TO.N,/ENC_B*%
X84125000Y-13040000D03*
D16*
%TO.P,U1,11*%
%TO.N,/ENC_A*%
X84125000Y-10500000D03*
%TO.P,U1,12*%
%TO.N,/+3V3*%
X84125000Y-7960000D03*
%TO.P,U1,13*%
%TO.N,/GND*%
X84125000Y-5420000D03*
%TO.P,U1,14*%
%TO.N,unconnected-(U1-USB_5V-Pad14)*%
X84125000Y-2880000D03*
%TD*%
D10*
%TO.P,SW2,1*%
%TO.N,/KEY3*%
X73540000Y-38420000D03*
%TO.P,SW2,2*%
%TO.N,/GND*%
X67190000Y-40960000D03*
%TD*%
%TO.P,SW7,1*%
%TO.N,/KEY5*%
X45790000Y-70920000D03*
%TO.P,SW7,2*%
%TO.N,/GND*%
X39440000Y-73460000D03*
%TD*%
%TO.P,SW5,1*%
%TO.N,/KEY4*%
X18040000Y-70920000D03*
%TO.P,SW5,2*%
%TO.N,/GND*%
X11690000Y-73460000D03*
%TD*%
D17*
%TO.P,J1,1*%
%TO.N,/GND*%
X27500000Y-12190000D03*
D18*
%TO.P,J1,2*%
%TO.N,/+3V3*%
X27500000Y-14730000D03*
%TO.P,J1,3*%
%TO.N,/OLED_SCL*%
X27500000Y-17270000D03*
%TO.P,J1,4*%
%TO.N,/OLED_SDA*%
X27500000Y-19810000D03*
%TD*%
D10*
%TO.P,SW3,1*%
%TO.N,/KEY6*%
X73540000Y-70920000D03*
%TO.P,SW3,2*%
%TO.N,/GND*%
X67190000Y-73460000D03*
%TD*%
D19*
%TO.N,/ENC_B*%
X74500000Y-16750000D03*
%TO.N,/OLED_SDA*%
X49250000Y-16000000D03*
%TD*%
%TO.N,/KEY2*%
D20*
X49750000Y-24000000D02*
X64250000Y-9500000D01*
X48750000Y-35500000D02*
X48750000Y-31750000D01*
X68000000Y-8000000D02*
X67875000Y-7960000D01*
X64250000Y-9000000D02*
X64750000Y-8500000D01*
X48750000Y-31750000D02*
X49000000Y-31500000D01*
X49750000Y-26250000D02*
X49750000Y-24000000D01*
X49000000Y-31500000D02*
X49000000Y-27000000D01*
X64750000Y-8500000D02*
X67500000Y-8500000D01*
X45750000Y-38500000D02*
X48750000Y-35500000D01*
X64250000Y-9500000D02*
X64250000Y-9000000D01*
X45790000Y-38420000D02*
X45750000Y-38500000D01*
X67500000Y-8500000D02*
X68000000Y-8000000D01*
X49000000Y-27000000D02*
X49750000Y-26250000D01*
%TO.N,/KEY1*%
X18040000Y-38420000D02*
X18000000Y-38500000D01*
X67750000Y-3250000D02*
X68000000Y-3000000D01*
X64250000Y-3750000D02*
X66750000Y-3750000D01*
X18000000Y-38500000D02*
X20000000Y-38500000D01*
X67250000Y-3250000D02*
X67750000Y-3250000D01*
X68000000Y-3000000D02*
X67875000Y-2880000D01*
X31000000Y-37000000D02*
X64250000Y-3750000D01*
X20000000Y-38500000D02*
X21500000Y-37000000D01*
X66750000Y-3750000D02*
X67250000Y-3250000D01*
X21500000Y-37000000D02*
X31000000Y-37000000D01*
%TO.N,/ENC_B*%
X82000000Y-14000000D02*
X83000000Y-13000000D01*
X77250000Y-14000000D02*
X82000000Y-14000000D01*
X83000000Y-13000000D02*
X83125000Y-13040000D01*
X74500000Y-16750000D02*
X77250000Y-14000000D01*
%TO.N,/KEY4*%
X64250000Y-6500000D02*
X56500000Y-14250000D01*
X18000000Y-71000000D02*
X18040000Y-70920000D01*
X66250000Y-5500000D02*
X65250000Y-6500000D01*
X18750000Y-70250000D02*
X18000000Y-71000000D01*
X18750000Y-53000000D02*
X18750000Y-70250000D01*
X45250000Y-26250000D02*
X45250000Y-26500000D01*
X67875000Y-5420000D02*
X68000000Y-5500000D01*
X56500000Y-14250000D02*
X56500000Y-15000000D01*
X45250000Y-26500000D02*
X18750000Y-53000000D01*
X56500000Y-15000000D02*
X45250000Y-26250000D01*
X65250000Y-6500000D02*
X64250000Y-6500000D01*
X68000000Y-5500000D02*
X66250000Y-5500000D01*
%TO.N,/KEY5*%
X45750000Y-55250000D02*
X45750000Y-71000000D01*
X68000000Y-10500000D02*
X66250000Y-10500000D01*
X64250000Y-11500000D02*
X64250000Y-22750000D01*
X66250000Y-10500000D02*
X65250000Y-11500000D01*
X45750000Y-71000000D02*
X45790000Y-70920000D01*
X47500000Y-39750000D02*
X47500000Y-40250000D01*
X64250000Y-22750000D02*
X51000000Y-36000000D01*
X47500000Y-40250000D02*
X46000000Y-41750000D01*
X51000000Y-36250000D02*
X47500000Y-39750000D01*
X65250000Y-11500000D02*
X64250000Y-11500000D01*
X51000000Y-36000000D02*
X51000000Y-36250000D01*
X46000000Y-55000000D02*
X45750000Y-55250000D01*
X46000000Y-41750000D02*
X46000000Y-55000000D01*
X67875000Y-10500000D02*
X68000000Y-10500000D01*
%TO.N,/OLED_SDA*%
X27500000Y-19750000D02*
X27500000Y-19810000D01*
X28000000Y-19250000D02*
X27500000Y-19750000D01*
X43250000Y-19000000D02*
X43000000Y-19250000D01*
X49250000Y-16000000D02*
X46250000Y-19000000D01*
X43000000Y-19250000D02*
X28000000Y-19250000D01*
X46250000Y-19000000D02*
X43250000Y-19000000D01*
%TO.N,/KEY3*%
X73250000Y-37250000D02*
X73250000Y-38250000D01*
X68750000Y-32750000D02*
X73250000Y-37250000D01*
X73500000Y-38500000D02*
X73540000Y-38420000D01*
X68750000Y-18750000D02*
X68750000Y-32750000D01*
X68000000Y-18000000D02*
X68750000Y-18750000D01*
X67875000Y-18120000D02*
X68000000Y-18000000D01*
X73250000Y-38250000D02*
X73500000Y-38500000D01*
%TO.N,/KEY6*%
X80000000Y-24750000D02*
X79750000Y-25000000D01*
X80000000Y-21000000D02*
X80000000Y-24750000D01*
X75250000Y-40250000D02*
X73750000Y-41750000D01*
X83125000Y-18120000D02*
X83000000Y-18000000D01*
X75250000Y-39750000D02*
X75250000Y-40250000D01*
X83000000Y-18000000D02*
X80000000Y-21000000D01*
X79750000Y-31750000D02*
X76250000Y-35250000D01*
X79750000Y-25000000D02*
X79750000Y-31750000D01*
X73750000Y-70750000D02*
X73500000Y-71000000D01*
X73750000Y-41750000D02*
X73750000Y-70750000D01*
X76250000Y-38750000D02*
X75250000Y-39750000D01*
X76250000Y-35250000D02*
X76250000Y-38750000D01*
X73500000Y-71000000D02*
X73540000Y-70920000D01*
%TO.N,/+3V3*%
X83125000Y-7960000D02*
X83000000Y-8000000D01*
X51750000Y-14000000D02*
X43250000Y-14000000D01*
X43250000Y-14000000D02*
X43000000Y-14250000D01*
X83000000Y-8000000D02*
X81000000Y-8000000D01*
X64500000Y-1250000D02*
X51750000Y-14000000D01*
X74500000Y-6500000D02*
X69250000Y-1250000D01*
X79500000Y-6500000D02*
X74500000Y-6500000D01*
X27500000Y-14750000D02*
X27500000Y-14730000D01*
X43000000Y-14250000D02*
X28000000Y-14250000D01*
X81000000Y-8000000D02*
X79500000Y-6500000D01*
X69250000Y-1250000D02*
X64500000Y-1250000D01*
X28000000Y-14250000D02*
X27500000Y-14750000D01*
%TD*%
%TA.AperFunction,Conductor*%
%TO.N,/GND*%
G36*
X85958691Y-519407D02*
G01*
X85994655Y-568907D01*
X85999500Y-599500D01*
X85999500Y-1960770D01*
X85980593Y-2018961D01*
X85931093Y-2054925D01*
X85869907Y-2054925D01*
X85842309Y-2040863D01*
X85841926Y-2040585D01*
X85793382Y-2005315D01*
X85701786Y-1938766D01*
X85547441Y-1860125D01*
X85547438Y-1860123D01*
X85382706Y-1806598D01*
X85382702Y-1806597D01*
X85211614Y-1779500D01*
X85211611Y-1779500D01*
X83038389Y-1779500D01*
X83038386Y-1779500D01*
X82867297Y-1806597D01*
X82867293Y-1806598D01*
X82702561Y-1860123D01*
X82702558Y-1860125D01*
X82548214Y-1938766D01*
X82408073Y-2040585D01*
X82285585Y-2163073D01*
X82183766Y-2303214D01*
X82105125Y-2457558D01*
X82105123Y-2457561D01*
X82051598Y-2622293D01*
X82051597Y-2622297D01*
X82024500Y-2793385D01*
X82024500Y-2966614D01*
X82051597Y-3137702D01*
X82051598Y-3137706D01*
X82105123Y-3302438D01*
X82105125Y-3302441D01*
X82180067Y-3449526D01*
X82183768Y-3456788D01*
X82285586Y-3596928D01*
X82408072Y-3719414D01*
X82548212Y-3821232D01*
X82702555Y-3899873D01*
X82702557Y-3899873D01*
X82702558Y-3899874D01*
X82702561Y-3899876D01*
X82867293Y-3953401D01*
X82867297Y-3953402D01*
X83038386Y-3980500D01*
X83038389Y-3980500D01*
X85211614Y-3980500D01*
X85382702Y-3953402D01*
X85382706Y-3953401D01*
X85547438Y-3899876D01*
X85547440Y-3899874D01*
X85547445Y-3899873D01*
X85701788Y-3821232D01*
X85841928Y-3719414D01*
X85841928Y-3719413D01*
X85842309Y-3719137D01*
X85900500Y-3700229D01*
X85958690Y-3719136D01*
X85994654Y-3768636D01*
X85999500Y-3799229D01*
X85999500Y-4439584D01*
X85980593Y-4497775D01*
X85931093Y-4533739D01*
X85869907Y-4533739D01*
X85842310Y-4519677D01*
X85727734Y-4436433D01*
X85727730Y-4436431D01*
X85566440Y-4354250D01*
X85394289Y-4298316D01*
X85215510Y-4270000D01*
X84275001Y-4270000D01*
X84275000Y-4270001D01*
X84275000Y-6569999D01*
X84275001Y-6570000D01*
X85215510Y-6570000D01*
X85394289Y-6541683D01*
X85566440Y-6485749D01*
X85727729Y-6403569D01*
X85842309Y-6320322D01*
X85900500Y-6301415D01*
X85958691Y-6320322D01*
X85994655Y-6369822D01*
X85999500Y-6400415D01*
X85999500Y-7040770D01*
X85980593Y-7098961D01*
X85931093Y-7134925D01*
X85869907Y-7134925D01*
X85842309Y-7120863D01*
X85841926Y-7120585D01*
X85751097Y-7054593D01*
X85701786Y-7018766D01*
X85547441Y-6940125D01*
X85547438Y-6940123D01*
X85382706Y-6886598D01*
X85382702Y-6886597D01*
X85211614Y-6859500D01*
X85211611Y-6859500D01*
X83038389Y-6859500D01*
X83038386Y-6859500D01*
X82867297Y-6886597D01*
X82867293Y-6886598D01*
X82702561Y-6940123D01*
X82702558Y-6940125D01*
X82548214Y-7018766D01*
X82408073Y-7120585D01*
X82285585Y-7243073D01*
X82183766Y-7383214D01*
X82105126Y-7537555D01*
X82099104Y-7556092D01*
X82063141Y-7605592D01*
X82004950Y-7624500D01*
X81196545Y-7624500D01*
X81138354Y-7605593D01*
X81126541Y-7595504D01*
X79730563Y-6199526D01*
X79730563Y-6199525D01*
X79644941Y-6150091D01*
X79644937Y-6150089D01*
X79595818Y-6136927D01*
X79595818Y-6136928D01*
X79572626Y-6130714D01*
X79549436Y-6124500D01*
X79549435Y-6124500D01*
X74696545Y-6124500D01*
X74638354Y-6105593D01*
X74626541Y-6095504D01*
X73801037Y-5270000D01*
X81984423Y-5270000D01*
X82647555Y-5270000D01*
X82625000Y-5354174D01*
X82625000Y-5485826D01*
X82647555Y-5570000D01*
X81984423Y-5570000D01*
X82003316Y-5689289D01*
X82059250Y-5861440D01*
X82141431Y-6022730D01*
X82141433Y-6022734D01*
X82247824Y-6169169D01*
X82375830Y-6297175D01*
X82522265Y-6403566D01*
X82522269Y-6403568D01*
X82683559Y-6485749D01*
X82855710Y-6541683D01*
X83034490Y-6570000D01*
X83974999Y-6570000D01*
X83975000Y-6569999D01*
X83975000Y-5570001D01*
X83974999Y-5570000D01*
X83602445Y-5570000D01*
X83625000Y-5485826D01*
X83625000Y-5354174D01*
X83602445Y-5270000D01*
X83974999Y-5270000D01*
X83975000Y-5269999D01*
X83975000Y-4270001D01*
X83974999Y-4270000D01*
X83034490Y-4270000D01*
X82855710Y-4298316D01*
X82683559Y-4354250D01*
X82522269Y-4436431D01*
X82522265Y-4436433D01*
X82375830Y-4542824D01*
X82247824Y-4670830D01*
X82141433Y-4817265D01*
X82141431Y-4817269D01*
X82059250Y-4978559D01*
X82003316Y-5150710D01*
X81984423Y-5270000D01*
X73801037Y-5270000D01*
X69480563Y-949526D01*
X69480563Y-949525D01*
X69394941Y-900091D01*
X69394934Y-900088D01*
X69347185Y-887294D01*
X69347184Y-887294D01*
X69299438Y-874500D01*
X69299436Y-874500D01*
X69299435Y-874500D01*
X64549436Y-874500D01*
X64450564Y-874500D01*
X64402813Y-887295D01*
X64402812Y-887294D01*
X64355062Y-900089D01*
X64355058Y-900091D01*
X64269436Y-949525D01*
X64269437Y-949526D01*
X51623459Y-13595504D01*
X51568942Y-13623281D01*
X51553455Y-13624500D01*
X43299436Y-13624500D01*
X43200564Y-13624500D01*
X43152813Y-13637295D01*
X43152812Y-13637294D01*
X43105062Y-13650089D01*
X43105058Y-13650091D01*
X43019436Y-13699525D01*
X43019437Y-13699526D01*
X42873459Y-13845504D01*
X42818942Y-13873281D01*
X42803455Y-13874500D01*
X28226956Y-13874500D01*
X28168766Y-13855593D01*
X28076791Y-13788769D01*
X28076787Y-13788767D01*
X27922441Y-13710125D01*
X27922438Y-13710123D01*
X27757706Y-13656598D01*
X27757702Y-13656597D01*
X27586614Y-13629500D01*
X27586611Y-13629500D01*
X27413389Y-13629500D01*
X27413386Y-13629500D01*
X27242297Y-13656597D01*
X27242293Y-13656598D01*
X27077561Y-13710123D01*
X27077558Y-13710125D01*
X26923214Y-13788766D01*
X26783073Y-13890585D01*
X26660585Y-14013073D01*
X26558766Y-14153214D01*
X26480125Y-14307558D01*
X26480123Y-14307561D01*
X26426598Y-14472293D01*
X26426597Y-14472297D01*
X26399500Y-14643385D01*
X26399500Y-14816614D01*
X26426597Y-14987702D01*
X26426598Y-14987706D01*
X26480123Y-15152438D01*
X26480125Y-15152441D01*
X26519926Y-15230557D01*
X26558768Y-15306788D01*
X26660586Y-15446928D01*
X26783072Y-15569414D01*
X26923212Y-15671232D01*
X27077555Y-15749873D01*
X27077557Y-15749873D01*
X27077558Y-15749874D01*
X27077561Y-15749876D01*
X27242293Y-15803401D01*
X27242297Y-15803402D01*
X27413386Y-15830500D01*
X27413389Y-15830500D01*
X27586614Y-15830500D01*
X27757702Y-15803402D01*
X27757706Y-15803401D01*
X27922438Y-15749876D01*
X27922440Y-15749874D01*
X27922445Y-15749873D01*
X28076788Y-15671232D01*
X28216928Y-15569414D01*
X28339414Y-15446928D01*
X28441232Y-15306788D01*
X28519873Y-15152445D01*
X28519874Y-15152440D01*
X28519876Y-15152438D01*
X28573401Y-14987706D01*
X28573402Y-14987702D01*
X28600500Y-14816614D01*
X28600500Y-14724500D01*
X28619407Y-14666309D01*
X28668907Y-14630345D01*
X28699500Y-14625500D01*
X43049436Y-14625500D01*
X43097186Y-14612705D01*
X43097187Y-14612705D01*
X43144934Y-14599911D01*
X43144933Y-14599911D01*
X43144938Y-14599910D01*
X43230562Y-14550475D01*
X43300475Y-14480562D01*
X43376541Y-14404496D01*
X43431058Y-14376719D01*
X43446545Y-14375500D01*
X51799436Y-14375500D01*
X51847186Y-14362705D01*
X51847187Y-14362705D01*
X51894934Y-14349911D01*
X51894933Y-14349911D01*
X51894938Y-14349910D01*
X51980562Y-14300475D01*
X52050475Y-14230562D01*
X64626541Y-1654496D01*
X64681058Y-1626719D01*
X64696545Y-1625500D01*
X64953129Y-1625500D01*
X65011320Y-1644407D01*
X65047284Y-1693907D01*
X65047284Y-1755093D01*
X65011320Y-1804593D01*
X65008129Y-1806816D01*
X64944402Y-1849395D01*
X64944397Y-1849400D01*
X64889035Y-1932257D01*
X64889033Y-1932263D01*
X64874501Y-2005315D01*
X64874500Y-2005327D01*
X64874500Y-3275500D01*
X64855593Y-3333691D01*
X64806093Y-3369655D01*
X64775500Y-3374500D01*
X64299436Y-3374500D01*
X64200564Y-3374500D01*
X64152813Y-3387295D01*
X64152812Y-3387294D01*
X64105062Y-3400089D01*
X64105058Y-3400091D01*
X64019436Y-3449525D01*
X64019437Y-3449526D01*
X30873459Y-36595504D01*
X30818942Y-36623281D01*
X30803455Y-36624500D01*
X21549436Y-36624500D01*
X21450564Y-36624500D01*
X21402813Y-36637295D01*
X21402812Y-36637294D01*
X21355062Y-36650089D01*
X21355058Y-36650091D01*
X21269436Y-36699525D01*
X21269437Y-36699526D01*
X19873459Y-38095504D01*
X19818942Y-38123281D01*
X19803455Y-38124500D01*
X19435914Y-38124500D01*
X19377723Y-38105593D01*
X19341759Y-38056093D01*
X19338590Y-38046342D01*
X19291557Y-37901588D01*
X19195051Y-37712184D01*
X19195049Y-37712180D01*
X19070108Y-37540213D01*
X19070106Y-37540211D01*
X19070104Y-37540208D01*
X18919792Y-37389896D01*
X18919788Y-37389893D01*
X18919786Y-37389891D01*
X18747819Y-37264950D01*
X18747815Y-37264948D01*
X18558412Y-37168443D01*
X18356238Y-37102752D01*
X18146290Y-37069500D01*
X18146287Y-37069500D01*
X17933713Y-37069500D01*
X17933710Y-37069500D01*
X17723761Y-37102752D01*
X17521587Y-37168443D01*
X17332184Y-37264948D01*
X17332180Y-37264950D01*
X17160213Y-37389891D01*
X17009891Y-37540213D01*
X16884950Y-37712180D01*
X16884948Y-37712184D01*
X16788443Y-37901587D01*
X16722752Y-38103761D01*
X16689500Y-38313709D01*
X16689500Y-38526290D01*
X16722752Y-38736238D01*
X16788443Y-38938412D01*
X16884948Y-39127815D01*
X16884950Y-39127819D01*
X17009891Y-39299786D01*
X17009893Y-39299788D01*
X17009896Y-39299792D01*
X17160208Y-39450104D01*
X17160211Y-39450106D01*
X17160213Y-39450108D01*
X17332180Y-39575049D01*
X17332184Y-39575051D01*
X17521588Y-39671557D01*
X17723757Y-39737246D01*
X17723758Y-39737246D01*
X17723761Y-39737247D01*
X17933710Y-39770500D01*
X17933713Y-39770500D01*
X18146290Y-39770500D01*
X18356238Y-39737247D01*
X18356239Y-39737246D01*
X18356243Y-39737246D01*
X18558412Y-39671557D01*
X18747816Y-39575051D01*
X18919792Y-39450104D01*
X19070104Y-39299792D01*
X19195051Y-39127816D01*
X19291557Y-38938412D01*
X19291560Y-38938404D01*
X19292302Y-38936615D01*
X19292724Y-38936119D01*
X19293323Y-38934946D01*
X19293604Y-38935089D01*
X19332038Y-38890089D01*
X19383766Y-38875500D01*
X20049435Y-38875500D01*
X20049436Y-38875500D01*
X20114876Y-38857965D01*
X20144938Y-38849910D01*
X20230562Y-38800475D01*
X20300475Y-38730562D01*
X21626541Y-37404496D01*
X21681058Y-37376719D01*
X21696545Y-37375500D01*
X31049436Y-37375500D01*
X31097186Y-37362705D01*
X31097187Y-37362705D01*
X31144934Y-37349911D01*
X31144933Y-37349911D01*
X31144938Y-37349910D01*
X31230562Y-37300475D01*
X31300475Y-37230562D01*
X64376541Y-4154496D01*
X64431058Y-4126719D01*
X64446545Y-4125500D01*
X65805340Y-4125500D01*
X65863531Y-4144407D01*
X65899495Y-4193907D01*
X65899495Y-4255093D01*
X65863531Y-4304593D01*
X65820827Y-4322281D01*
X65667297Y-4346597D01*
X65667293Y-4346598D01*
X65502561Y-4400123D01*
X65502558Y-4400125D01*
X65348214Y-4478766D01*
X65208073Y-4580585D01*
X65085585Y-4703073D01*
X64983766Y-4843214D01*
X64905125Y-4997558D01*
X64905123Y-4997561D01*
X64851598Y-5162293D01*
X64851597Y-5162297D01*
X64824500Y-5333385D01*
X64824500Y-5506614D01*
X64851597Y-5677702D01*
X64851598Y-5677706D01*
X64905123Y-5842438D01*
X64905125Y-5842441D01*
X64975497Y-5980555D01*
X64985068Y-6040987D01*
X64957290Y-6095504D01*
X64902774Y-6123281D01*
X64887287Y-6124500D01*
X64299436Y-6124500D01*
X64200564Y-6124500D01*
X64177373Y-6130714D01*
X64154182Y-6136928D01*
X64154181Y-6136927D01*
X64105062Y-6150089D01*
X64105058Y-6150091D01*
X64019436Y-6199525D01*
X64019437Y-6199526D01*
X56269438Y-13949525D01*
X56269437Y-13949524D01*
X56199524Y-14019438D01*
X56150091Y-14105057D01*
X56124500Y-14200566D01*
X56124500Y-14803455D01*
X56105593Y-14861646D01*
X56095504Y-14873459D01*
X45019438Y-25949525D01*
X45019437Y-25949524D01*
X44949524Y-26019438D01*
X44900091Y-26105057D01*
X44874500Y-26200566D01*
X44874500Y-26303455D01*
X44855593Y-26361646D01*
X44845504Y-26373459D01*
X18519438Y-52699525D01*
X18519437Y-52699524D01*
X18449524Y-52769438D01*
X18400091Y-52855057D01*
X18374500Y-52950566D01*
X18374500Y-69489731D01*
X18355593Y-69547922D01*
X18306093Y-69583886D01*
X18260013Y-69587512D01*
X18146290Y-69569500D01*
X18146287Y-69569500D01*
X17933713Y-69569500D01*
X17933710Y-69569500D01*
X17723761Y-69602752D01*
X17521587Y-69668443D01*
X17332184Y-69764948D01*
X17332180Y-69764950D01*
X17160213Y-69889891D01*
X17009891Y-70040213D01*
X16884950Y-70212180D01*
X16884948Y-70212184D01*
X16788443Y-70401587D01*
X16722752Y-70603761D01*
X16689500Y-70813709D01*
X16689500Y-71026290D01*
X16722752Y-71236238D01*
X16788443Y-71438412D01*
X16884948Y-71627815D01*
X16884950Y-71627819D01*
X17009891Y-71799786D01*
X17009893Y-71799788D01*
X17009896Y-71799792D01*
X17160208Y-71950104D01*
X17160211Y-71950106D01*
X17160213Y-71950108D01*
X17332180Y-72075049D01*
X17332184Y-72075051D01*
X17521588Y-72171557D01*
X17723757Y-72237246D01*
X17723758Y-72237246D01*
X17723761Y-72237247D01*
X17933710Y-72270500D01*
X17933713Y-72270500D01*
X18146290Y-72270500D01*
X18356238Y-72237247D01*
X18356239Y-72237246D01*
X18356243Y-72237246D01*
X18558412Y-72171557D01*
X18747816Y-72075051D01*
X18919792Y-71950104D01*
X19070104Y-71799792D01*
X19195051Y-71627816D01*
X19291557Y-71438412D01*
X19357246Y-71236243D01*
X19390500Y-71026287D01*
X19390500Y-70813713D01*
X19390500Y-70813709D01*
X19357247Y-70603761D01*
X19357246Y-70603757D01*
X19291557Y-70401588D01*
X19195051Y-70212184D01*
X19144407Y-70142477D01*
X19125500Y-70084287D01*
X19125500Y-53196544D01*
X19144407Y-53138353D01*
X19154490Y-53126546D01*
X28867651Y-43413385D01*
X37069500Y-43413385D01*
X37069500Y-43586614D01*
X37096597Y-43757702D01*
X37096598Y-43757706D01*
X37150123Y-43922438D01*
X37150125Y-43922441D01*
X37220144Y-44059864D01*
X37228768Y-44076788D01*
X37330586Y-44216928D01*
X37453072Y-44339414D01*
X37593212Y-44441232D01*
X37747555Y-44519873D01*
X37747557Y-44519873D01*
X37747558Y-44519874D01*
X37747561Y-44519876D01*
X37912293Y-44573401D01*
X37912297Y-44573402D01*
X38083386Y-44600500D01*
X38083389Y-44600500D01*
X38256614Y-44600500D01*
X38427702Y-44573402D01*
X38427706Y-44573401D01*
X38592438Y-44519876D01*
X38592440Y-44519874D01*
X38592445Y-44519873D01*
X38746788Y-44441232D01*
X38886928Y-44339414D01*
X39009414Y-44216928D01*
X39111232Y-44076788D01*
X39189873Y-43922445D01*
X39189874Y-43922440D01*
X39189876Y-43922438D01*
X39243401Y-43757706D01*
X39243402Y-43757702D01*
X39270500Y-43586614D01*
X39270500Y-43413386D01*
X39262795Y-43364740D01*
X39260855Y-43352493D01*
X40999500Y-43352493D01*
X40999500Y-43352494D01*
X40999500Y-43647506D01*
X41038007Y-43939993D01*
X41074660Y-44076785D01*
X41114361Y-44224953D01*
X41227253Y-44497499D01*
X41227255Y-44497503D01*
X41227257Y-44497507D01*
X41271075Y-44573402D01*
X41374764Y-44752997D01*
X41554348Y-44987035D01*
X41554350Y-44987037D01*
X41554354Y-44987042D01*
X41762958Y-45195646D01*
X41762962Y-45195649D01*
X41762964Y-45195651D01*
X41997002Y-45375235D01*
X41997006Y-45375238D01*
X42252493Y-45522743D01*
X42525048Y-45635639D01*
X42810007Y-45711993D01*
X43102494Y-45750500D01*
X43102495Y-45750500D01*
X43397505Y-45750500D01*
X43397506Y-45750500D01*
X43689993Y-45711993D01*
X43974952Y-45635639D01*
X44247507Y-45522743D01*
X44502994Y-45375238D01*
X44737042Y-45195646D01*
X44945646Y-44987042D01*
X45125238Y-44752994D01*
X45272743Y-44497507D01*
X45385639Y-44224952D01*
X45429874Y-44059861D01*
X45463197Y-44008550D01*
X45520318Y-43986623D01*
X45579419Y-44002458D01*
X45617924Y-44050008D01*
X45624500Y-44085487D01*
X45624500Y-54803455D01*
X45605593Y-54861646D01*
X45595504Y-54873459D01*
X45519438Y-54949525D01*
X45519437Y-54949524D01*
X45449524Y-55019438D01*
X45400091Y-55105057D01*
X45374500Y-55200566D01*
X45374500Y-69563077D01*
X45355593Y-69621268D01*
X45306094Y-69657231D01*
X45271593Y-69668441D01*
X45271592Y-69668441D01*
X45082184Y-69764948D01*
X45082180Y-69764950D01*
X44910213Y-69889891D01*
X44759891Y-70040213D01*
X44634950Y-70212180D01*
X44634948Y-70212184D01*
X44538443Y-70401587D01*
X44472752Y-70603761D01*
X44439500Y-70813709D01*
X44439500Y-71026290D01*
X44472752Y-71236238D01*
X44538443Y-71438412D01*
X44634948Y-71627815D01*
X44634950Y-71627819D01*
X44759891Y-71799786D01*
X44759893Y-71799788D01*
X44759896Y-71799792D01*
X44910208Y-71950104D01*
X44910211Y-71950106D01*
X44910213Y-71950108D01*
X45082180Y-72075049D01*
X45082184Y-72075051D01*
X45271588Y-72171557D01*
X45473757Y-72237246D01*
X45473758Y-72237246D01*
X45473761Y-72237247D01*
X45683710Y-72270500D01*
X45683713Y-72270500D01*
X45896290Y-72270500D01*
X46106238Y-72237247D01*
X46106239Y-72237246D01*
X46106243Y-72237246D01*
X46308412Y-72171557D01*
X46497816Y-72075051D01*
X46669792Y-71950104D01*
X46820104Y-71799792D01*
X46945051Y-71627816D01*
X47041557Y-71438412D01*
X47107246Y-71236243D01*
X47140500Y-71026287D01*
X47140500Y-70813713D01*
X47140500Y-70813709D01*
X47107247Y-70603761D01*
X47107246Y-70603757D01*
X47041557Y-70401588D01*
X46945051Y-70212184D01*
X46945049Y-70212180D01*
X46820108Y-70040213D01*
X46820106Y-70040211D01*
X46820104Y-70040208D01*
X46669792Y-69889896D01*
X46669788Y-69889893D01*
X46669786Y-69889891D01*
X46497819Y-69764950D01*
X46497815Y-69764948D01*
X46308408Y-69668441D01*
X46193906Y-69631236D01*
X46144407Y-69595272D01*
X46125500Y-69537082D01*
X46125500Y-55446545D01*
X46144407Y-55388354D01*
X46154496Y-55376541D01*
X46300474Y-55230563D01*
X46349908Y-55144942D01*
X46349908Y-55144940D01*
X46349910Y-55144938D01*
X46375500Y-55049435D01*
X46375500Y-43413385D01*
X47229500Y-43413385D01*
X47229500Y-43586614D01*
X47256597Y-43757702D01*
X47256598Y-43757706D01*
X47310123Y-43922438D01*
X47310125Y-43922441D01*
X47380144Y-44059864D01*
X47388768Y-44076788D01*
X47490586Y-44216928D01*
X47613072Y-44339414D01*
X47753212Y-44441232D01*
X47907555Y-44519873D01*
X47907557Y-44519873D01*
X47907558Y-44519874D01*
X47907561Y-44519876D01*
X48072293Y-44573401D01*
X48072297Y-44573402D01*
X48243386Y-44600500D01*
X48243389Y-44600500D01*
X48416614Y-44600500D01*
X48587702Y-44573402D01*
X48587706Y-44573401D01*
X48752438Y-44519876D01*
X48752440Y-44519874D01*
X48752445Y-44519873D01*
X48906788Y-44441232D01*
X49046928Y-44339414D01*
X49169414Y-44216928D01*
X49271232Y-44076788D01*
X49349873Y-43922445D01*
X49349874Y-43922440D01*
X49349876Y-43922438D01*
X49403401Y-43757706D01*
X49403402Y-43757702D01*
X49430500Y-43586614D01*
X49430500Y-43413385D01*
X64819500Y-43413385D01*
X64819500Y-43586614D01*
X64846597Y-43757702D01*
X64846598Y-43757706D01*
X64900123Y-43922438D01*
X64900125Y-43922441D01*
X64970144Y-44059864D01*
X64978768Y-44076788D01*
X65080586Y-44216928D01*
X65203072Y-44339414D01*
X65343212Y-44441232D01*
X65497555Y-44519873D01*
X65497557Y-44519873D01*
X65497558Y-44519874D01*
X65497561Y-44519876D01*
X65662293Y-44573401D01*
X65662297Y-44573402D01*
X65833386Y-44600500D01*
X65833389Y-44600500D01*
X66006614Y-44600500D01*
X66177702Y-44573402D01*
X66177706Y-44573401D01*
X66342438Y-44519876D01*
X66342440Y-44519874D01*
X66342445Y-44519873D01*
X66496788Y-44441232D01*
X66636928Y-44339414D01*
X66759414Y-44216928D01*
X66861232Y-44076788D01*
X66939873Y-43922445D01*
X66939874Y-43922440D01*
X66939876Y-43922438D01*
X66993401Y-43757706D01*
X66993402Y-43757702D01*
X67020500Y-43586614D01*
X67020500Y-43413385D01*
X66993402Y-43242297D01*
X66993401Y-43242293D01*
X66939876Y-43077561D01*
X66939874Y-43077558D01*
X66939873Y-43077557D01*
X66939873Y-43077555D01*
X66861232Y-42923212D01*
X66759414Y-42783072D01*
X66636928Y-42660586D01*
X66496788Y-42558768D01*
X66496787Y-42558767D01*
X66496785Y-42558766D01*
X66342441Y-42480125D01*
X66342438Y-42480123D01*
X66177706Y-42426598D01*
X66177702Y-42426597D01*
X66006614Y-42399500D01*
X66006611Y-42399500D01*
X65833389Y-42399500D01*
X65833386Y-42399500D01*
X65662297Y-42426597D01*
X65662293Y-42426598D01*
X65497561Y-42480123D01*
X65497558Y-42480125D01*
X65343214Y-42558766D01*
X65203073Y-42660585D01*
X65080585Y-42783073D01*
X64978766Y-42923214D01*
X64900125Y-43077558D01*
X64900123Y-43077561D01*
X64846598Y-43242293D01*
X64846597Y-43242297D01*
X64819500Y-43413385D01*
X49430500Y-43413385D01*
X49403402Y-43242297D01*
X49403401Y-43242293D01*
X49349876Y-43077561D01*
X49349874Y-43077558D01*
X49349873Y-43077557D01*
X49349873Y-43077555D01*
X49271232Y-42923212D01*
X49169414Y-42783072D01*
X49046928Y-42660586D01*
X48906788Y-42558768D01*
X48906787Y-42558767D01*
X48906785Y-42558766D01*
X48752441Y-42480125D01*
X48752438Y-42480123D01*
X48587706Y-42426598D01*
X48587702Y-42426597D01*
X48416614Y-42399500D01*
X48416611Y-42399500D01*
X48243389Y-42399500D01*
X48243386Y-42399500D01*
X48072297Y-42426597D01*
X48072293Y-42426598D01*
X47907561Y-42480123D01*
X47907558Y-42480125D01*
X47753214Y-42558766D01*
X47613073Y-42660585D01*
X47490585Y-42783073D01*
X47388766Y-42923214D01*
X47310125Y-43077558D01*
X47310123Y-43077561D01*
X47256598Y-43242293D01*
X47256597Y-43242297D01*
X47229500Y-43413385D01*
X46375500Y-43413385D01*
X46375500Y-41946545D01*
X46394407Y-41888354D01*
X46404496Y-41876541D01*
X47431223Y-40849814D01*
X65790000Y-40849814D01*
X65790000Y-41070185D01*
X65824471Y-41287829D01*
X65892569Y-41497413D01*
X65992612Y-41693759D01*
X65992614Y-41693763D01*
X66098442Y-41839423D01*
X66564310Y-41373554D01*
X66607437Y-41438097D01*
X66711903Y-41542563D01*
X66776443Y-41585687D01*
X66310575Y-42051556D01*
X66456236Y-42157385D01*
X66456240Y-42157387D01*
X66652586Y-42257430D01*
X66862170Y-42325528D01*
X67079815Y-42360000D01*
X67300185Y-42360000D01*
X67517829Y-42325528D01*
X67727413Y-42257430D01*
X67923757Y-42157388D01*
X68069422Y-42051555D01*
X67603555Y-41585688D01*
X67668097Y-41542563D01*
X67772563Y-41438097D01*
X67815688Y-41373555D01*
X68281555Y-41839422D01*
X68387388Y-41693757D01*
X68487430Y-41497413D01*
X68555528Y-41287829D01*
X68590000Y-41070185D01*
X68590000Y-40849814D01*
X68555528Y-40632170D01*
X68487430Y-40422586D01*
X68387387Y-40226240D01*
X68387385Y-40226236D01*
X68281556Y-40080575D01*
X67815687Y-40546443D01*
X67772563Y-40481903D01*
X67668097Y-40377437D01*
X67603554Y-40334310D01*
X68069423Y-39868442D01*
X67923763Y-39762614D01*
X67923759Y-39762612D01*
X67727413Y-39662569D01*
X67517829Y-39594471D01*
X67300185Y-39560000D01*
X67079815Y-39560000D01*
X66862170Y-39594471D01*
X66652586Y-39662569D01*
X66456241Y-39762612D01*
X66310575Y-39868442D01*
X66776444Y-40334311D01*
X66711903Y-40377437D01*
X66607437Y-40481903D01*
X66564311Y-40546444D01*
X66098442Y-40080575D01*
X65992612Y-40226241D01*
X65892569Y-40422586D01*
X65824471Y-40632170D01*
X65790000Y-40849814D01*
X47431223Y-40849814D01*
X47800474Y-40480563D01*
X47849908Y-40394942D01*
X47849908Y-40394940D01*
X47849910Y-40394938D01*
X47875500Y-40299435D01*
X47875500Y-39946544D01*
X47877968Y-39938947D01*
X47876719Y-39931058D01*
X47887243Y-39910402D01*
X47894407Y-39888354D01*
X47904496Y-39876541D01*
X51300474Y-36480563D01*
X51349908Y-36394942D01*
X51349908Y-36394940D01*
X51349910Y-36394938D01*
X51375500Y-36299435D01*
X51375500Y-36196545D01*
X51394407Y-36138354D01*
X51404496Y-36126541D01*
X57909750Y-29621287D01*
X64550475Y-22980563D01*
X64599911Y-22894937D01*
X64625500Y-22799436D01*
X64625500Y-22700564D01*
X64625500Y-18033385D01*
X64824500Y-18033385D01*
X64824500Y-18206614D01*
X64851597Y-18377702D01*
X64851598Y-18377706D01*
X64905123Y-18542438D01*
X64905125Y-18542441D01*
X64953454Y-18637294D01*
X64983768Y-18696788D01*
X65085586Y-18836928D01*
X65208072Y-18959414D01*
X65348212Y-19061232D01*
X65502555Y-19139873D01*
X65502557Y-19139873D01*
X65502558Y-19139874D01*
X65502561Y-19139876D01*
X65667293Y-19193401D01*
X65667297Y-19193402D01*
X65838386Y-19220500D01*
X65838389Y-19220500D01*
X67911614Y-19220500D01*
X68082702Y-19193402D01*
X68082706Y-19193401D01*
X68244907Y-19140698D01*
X68306092Y-19140697D01*
X68355592Y-19176661D01*
X68374500Y-19234851D01*
X68374500Y-32799435D01*
X68397067Y-32883657D01*
X68400091Y-32894942D01*
X68449525Y-32980563D01*
X68449526Y-32980563D01*
X72693301Y-37224338D01*
X72721078Y-37278855D01*
X72711507Y-37339287D01*
X72681489Y-37374434D01*
X72660210Y-37389894D01*
X72509891Y-37540213D01*
X72384950Y-37712180D01*
X72384948Y-37712184D01*
X72288443Y-37901587D01*
X72222752Y-38103761D01*
X72189500Y-38313709D01*
X72189500Y-38526290D01*
X72222752Y-38736238D01*
X72288443Y-38938412D01*
X72384948Y-39127815D01*
X72384950Y-39127819D01*
X72509891Y-39299786D01*
X72509893Y-39299788D01*
X72509896Y-39299792D01*
X72660208Y-39450104D01*
X72660211Y-39450106D01*
X72660213Y-39450108D01*
X72832180Y-39575049D01*
X72832184Y-39575051D01*
X73021588Y-39671557D01*
X73223757Y-39737246D01*
X73223758Y-39737246D01*
X73223761Y-39737247D01*
X73433710Y-39770500D01*
X73433713Y-39770500D01*
X73646290Y-39770500D01*
X73856238Y-39737247D01*
X73856239Y-39737246D01*
X73856243Y-39737246D01*
X74058412Y-39671557D01*
X74247816Y-39575051D01*
X74419792Y-39450104D01*
X74570104Y-39299792D01*
X74695051Y-39127816D01*
X74791557Y-38938412D01*
X74857246Y-38736243D01*
X74862897Y-38700564D01*
X74890500Y-38526290D01*
X74890500Y-38313709D01*
X74857247Y-38103761D01*
X74841759Y-38056093D01*
X74791557Y-37901588D01*
X74695051Y-37712184D01*
X74695049Y-37712180D01*
X74570108Y-37540213D01*
X74570106Y-37540211D01*
X74570104Y-37540208D01*
X74419792Y-37389896D01*
X74419788Y-37389893D01*
X74419786Y-37389891D01*
X74247819Y-37264950D01*
X74247815Y-37264948D01*
X74058412Y-37168443D01*
X73856238Y-37102752D01*
X73646290Y-37069500D01*
X73646287Y-37069500D01*
X73636536Y-37069500D01*
X73578345Y-37050593D01*
X73554720Y-37024356D01*
X73554424Y-37024584D01*
X73551531Y-37020813D01*
X73550802Y-37020004D01*
X73550475Y-37019438D01*
X73480562Y-36949524D01*
X73480562Y-36949525D01*
X69154496Y-32623459D01*
X69126719Y-32568942D01*
X69125500Y-32553455D01*
X69125500Y-18700566D01*
X69125499Y-18700561D01*
X69125220Y-18699520D01*
X69125213Y-18699496D01*
X69124487Y-18696788D01*
X69099910Y-18605063D01*
X69099910Y-18605062D01*
X69099910Y-18605061D01*
X69050475Y-18519438D01*
X68980562Y-18449524D01*
X68980562Y-18449525D01*
X68935483Y-18404446D01*
X68907706Y-18349929D01*
X68907706Y-18318954D01*
X68925500Y-18206612D01*
X68925500Y-18033385D01*
X68898402Y-17862297D01*
X68898401Y-17862293D01*
X68844876Y-17697561D01*
X68844874Y-17697558D01*
X68844873Y-17697557D01*
X68844873Y-17697555D01*
X68766232Y-17543212D01*
X68664414Y-17403072D01*
X68541928Y-17280586D01*
X68401788Y-17178768D01*
X68401787Y-17178767D01*
X68401785Y-17178766D01*
X68247441Y-17100125D01*
X68247438Y-17100123D01*
X68082706Y-17046598D01*
X68082702Y-17046597D01*
X67911614Y-17019500D01*
X67911611Y-17019500D01*
X65838389Y-17019500D01*
X65838386Y-17019500D01*
X65667297Y-17046597D01*
X65667293Y-17046598D01*
X65502561Y-17100123D01*
X65502558Y-17100125D01*
X65348214Y-17178766D01*
X65208073Y-17280585D01*
X65085585Y-17403073D01*
X64983766Y-17543214D01*
X64905125Y-17697558D01*
X64905123Y-17697561D01*
X64851598Y-17862293D01*
X64851597Y-17862297D01*
X64824500Y-18033385D01*
X64625500Y-18033385D01*
X64625500Y-15493385D01*
X64824500Y-15493385D01*
X64824500Y-15666614D01*
X64851597Y-15837702D01*
X64851598Y-15837706D01*
X64905123Y-16002438D01*
X64905125Y-16002441D01*
X64928571Y-16048458D01*
X64983768Y-16156788D01*
X65085586Y-16296928D01*
X65208072Y-16419414D01*
X65348212Y-16521232D01*
X65502555Y-16599873D01*
X65502557Y-16599873D01*
X65502558Y-16599874D01*
X65502561Y-16599876D01*
X65667293Y-16653401D01*
X65667297Y-16653402D01*
X65838386Y-16680500D01*
X65838389Y-16680500D01*
X67911614Y-16680500D01*
X68082702Y-16653402D01*
X68082706Y-16653401D01*
X68247438Y-16599876D01*
X68247440Y-16599874D01*
X68247445Y-16599873D01*
X68401788Y-16521232D01*
X68541928Y-16419414D01*
X68664414Y-16296928D01*
X68766232Y-16156788D01*
X68844873Y-16002445D01*
X68844874Y-16002440D01*
X68844876Y-16002438D01*
X68898401Y-15837706D01*
X68898402Y-15837702D01*
X68925500Y-15666614D01*
X68925500Y-15493385D01*
X68898402Y-15322297D01*
X68898401Y-15322293D01*
X68844876Y-15157561D01*
X68844874Y-15157558D01*
X68844873Y-15157557D01*
X68844873Y-15157555D01*
X68766232Y-15003212D01*
X68664414Y-14863072D01*
X68541928Y-14740586D01*
X68401788Y-14638768D01*
X68401787Y-14638767D01*
X68401785Y-14638766D01*
X68247441Y-14560125D01*
X68247438Y-14560123D01*
X68082706Y-14506598D01*
X68082702Y-14506597D01*
X67911614Y-14479500D01*
X67911611Y-14479500D01*
X65838389Y-14479500D01*
X65838386Y-14479500D01*
X65667297Y-14506597D01*
X65667293Y-14506598D01*
X65502561Y-14560123D01*
X65502558Y-14560125D01*
X65348214Y-14638766D01*
X65208073Y-14740585D01*
X65085585Y-14863073D01*
X64983766Y-15003214D01*
X64905125Y-15157558D01*
X64905123Y-15157561D01*
X64851598Y-15322293D01*
X64851597Y-15322297D01*
X64824500Y-15493385D01*
X64625500Y-15493385D01*
X64625500Y-12953385D01*
X64824500Y-12953385D01*
X64824500Y-13126614D01*
X64851597Y-13297702D01*
X64851598Y-13297706D01*
X64905123Y-13462438D01*
X64905125Y-13462441D01*
X64976393Y-13602315D01*
X64983768Y-13616788D01*
X65085586Y-13756928D01*
X65208072Y-13879414D01*
X65348212Y-13981232D01*
X65502555Y-14059873D01*
X65502557Y-14059873D01*
X65502558Y-14059874D01*
X65502561Y-14059876D01*
X65667293Y-14113401D01*
X65667297Y-14113402D01*
X65838386Y-14140500D01*
X65838389Y-14140500D01*
X67911614Y-14140500D01*
X68082702Y-14113402D01*
X68082706Y-14113401D01*
X68247438Y-14059876D01*
X68247440Y-14059874D01*
X68247445Y-14059873D01*
X68401788Y-13981232D01*
X68541928Y-13879414D01*
X68664414Y-13756928D01*
X68766232Y-13616788D01*
X68844873Y-13462445D01*
X68844874Y-13462440D01*
X68844876Y-13462438D01*
X68898401Y-13297706D01*
X68898402Y-13297702D01*
X68925500Y-13126614D01*
X68925500Y-12953385D01*
X68898402Y-12782297D01*
X68898401Y-12782293D01*
X68844876Y-12617561D01*
X68844874Y-12617558D01*
X68844873Y-12617557D01*
X68844873Y-12617555D01*
X68766232Y-12463212D01*
X68664414Y-12323072D01*
X68541928Y-12200586D01*
X68401788Y-12098768D01*
X68401787Y-12098767D01*
X68401785Y-12098766D01*
X68247441Y-12020125D01*
X68247438Y-12020123D01*
X68082706Y-11966598D01*
X68082702Y-11966597D01*
X67911614Y-11939500D01*
X67911611Y-11939500D01*
X65838389Y-11939500D01*
X65838386Y-11939500D01*
X65667297Y-11966597D01*
X65667293Y-11966598D01*
X65502561Y-12020123D01*
X65502558Y-12020125D01*
X65348214Y-12098766D01*
X65208073Y-12200585D01*
X65085585Y-12323073D01*
X64983766Y-12463214D01*
X64905125Y-12617558D01*
X64905123Y-12617561D01*
X64851598Y-12782293D01*
X64851597Y-12782297D01*
X64824500Y-12953385D01*
X64625500Y-12953385D01*
X64625500Y-11974500D01*
X64644407Y-11916309D01*
X64693907Y-11880345D01*
X64724500Y-11875500D01*
X65299436Y-11875500D01*
X65347186Y-11862705D01*
X65347187Y-11862705D01*
X65394934Y-11849911D01*
X65394933Y-11849911D01*
X65394938Y-11849910D01*
X65480562Y-11800475D01*
X65550475Y-11730562D01*
X65666450Y-11614585D01*
X65720967Y-11586808D01*
X65751941Y-11586808D01*
X65782194Y-11591599D01*
X65838387Y-11600500D01*
X65838389Y-11600500D01*
X67911614Y-11600500D01*
X68082702Y-11573402D01*
X68082706Y-11573401D01*
X68247438Y-11519876D01*
X68247440Y-11519874D01*
X68247445Y-11519873D01*
X68401788Y-11441232D01*
X68541928Y-11339414D01*
X68664414Y-11216928D01*
X68766232Y-11076788D01*
X68844873Y-10922445D01*
X68844874Y-10922440D01*
X68844876Y-10922438D01*
X68898401Y-10757706D01*
X68898402Y-10757702D01*
X68925500Y-10586614D01*
X68925500Y-10413385D01*
X68898402Y-10242297D01*
X68898401Y-10242293D01*
X68844876Y-10077561D01*
X68844874Y-10077558D01*
X68844873Y-10077557D01*
X68844873Y-10077555D01*
X68766232Y-9923212D01*
X68664414Y-9783072D01*
X68541928Y-9660586D01*
X68401788Y-9558768D01*
X68401787Y-9558767D01*
X68401785Y-9558766D01*
X68247441Y-9480125D01*
X68247438Y-9480123D01*
X68082706Y-9426598D01*
X68082702Y-9426597D01*
X67911614Y-9399500D01*
X67911611Y-9399500D01*
X65838389Y-9399500D01*
X65838386Y-9399500D01*
X65667297Y-9426597D01*
X65667293Y-9426598D01*
X65502561Y-9480123D01*
X65502558Y-9480125D01*
X65348214Y-9558766D01*
X65208073Y-9660585D01*
X65085585Y-9783073D01*
X64983766Y-9923214D01*
X64905125Y-10077558D01*
X64905123Y-10077561D01*
X64851598Y-10242293D01*
X64851597Y-10242297D01*
X64824500Y-10413385D01*
X64824500Y-10586614D01*
X64851597Y-10757702D01*
X64851598Y-10757706D01*
X64905123Y-10922438D01*
X64905127Y-10922447D01*
X64934735Y-10980556D01*
X64944306Y-11040988D01*
X64916528Y-11095504D01*
X64862011Y-11123281D01*
X64846525Y-11124500D01*
X64299435Y-11124500D01*
X64200565Y-11124500D01*
X64142114Y-11140161D01*
X64105057Y-11150091D01*
X64019440Y-11199523D01*
X63949523Y-11269440D01*
X63900091Y-11355057D01*
X63900090Y-11355062D01*
X63881438Y-11424674D01*
X63874500Y-11450566D01*
X63874500Y-22553454D01*
X63855593Y-22611645D01*
X63845504Y-22623458D01*
X50769438Y-35699525D01*
X50769437Y-35699524D01*
X50699524Y-35769438D01*
X50650091Y-35855057D01*
X50624500Y-35950566D01*
X50624500Y-36053455D01*
X50605593Y-36111646D01*
X50595504Y-36123459D01*
X47269438Y-39449525D01*
X47269437Y-39449524D01*
X47199524Y-39519438D01*
X47150091Y-39605057D01*
X47124500Y-39700566D01*
X47124500Y-40053455D01*
X47105593Y-40111646D01*
X47095504Y-40123459D01*
X45769438Y-41449525D01*
X45769437Y-41449524D01*
X45699524Y-41519438D01*
X45650091Y-41605057D01*
X45624500Y-41700566D01*
X45624500Y-42914512D01*
X45605593Y-42972703D01*
X45556093Y-43008667D01*
X45494907Y-43008667D01*
X45445407Y-42972703D01*
X45429874Y-42940137D01*
X45385639Y-42775048D01*
X45272743Y-42502493D01*
X45125238Y-42247006D01*
X45125235Y-42247002D01*
X44945651Y-42012964D01*
X44945649Y-42012962D01*
X44945646Y-42012958D01*
X44737042Y-41804354D01*
X44737037Y-41804350D01*
X44737035Y-41804348D01*
X44502997Y-41624764D01*
X44468872Y-41605062D01*
X44247507Y-41477257D01*
X44247503Y-41477255D01*
X44247499Y-41477253D01*
X43974953Y-41364361D01*
X43908183Y-41346470D01*
X43689993Y-41288007D01*
X43689986Y-41288006D01*
X43397506Y-41249500D01*
X43102494Y-41249500D01*
X43102493Y-41249500D01*
X42810013Y-41288006D01*
X42810011Y-41288006D01*
X42810007Y-41288007D01*
X42658584Y-41328580D01*
X42525046Y-41364361D01*
X42252500Y-41477253D01*
X41997002Y-41624764D01*
X41762964Y-41804348D01*
X41554348Y-42012964D01*
X41374764Y-42247002D01*
X41227253Y-42502500D01*
X41114361Y-42775046D01*
X41078580Y-42908584D01*
X41038007Y-43060007D01*
X41038006Y-43060011D01*
X41038006Y-43060013D01*
X40999500Y-43352493D01*
X39260855Y-43352493D01*
X39243402Y-43242297D01*
X39243401Y-43242293D01*
X39189876Y-43077561D01*
X39189874Y-43077558D01*
X39189873Y-43077557D01*
X39189873Y-43077555D01*
X39111232Y-42923212D01*
X39009414Y-42783072D01*
X38886928Y-42660586D01*
X38746788Y-42558768D01*
X38746787Y-42558767D01*
X38746785Y-42558766D01*
X38592441Y-42480125D01*
X38592438Y-42480123D01*
X38427706Y-42426598D01*
X38427702Y-42426597D01*
X38256614Y-42399500D01*
X38256611Y-42399500D01*
X38083389Y-42399500D01*
X38083386Y-42399500D01*
X37912297Y-42426597D01*
X37912293Y-42426598D01*
X37747561Y-42480123D01*
X37747558Y-42480125D01*
X37593214Y-42558766D01*
X37453073Y-42660585D01*
X37330585Y-42783073D01*
X37228766Y-42923214D01*
X37150125Y-43077558D01*
X37150123Y-43077561D01*
X37096598Y-43242293D01*
X37096597Y-43242297D01*
X37069500Y-43413385D01*
X28867651Y-43413385D01*
X31431222Y-40849814D01*
X38040000Y-40849814D01*
X38040000Y-41070185D01*
X38074471Y-41287829D01*
X38142569Y-41497413D01*
X38242612Y-41693759D01*
X38242614Y-41693763D01*
X38348442Y-41839423D01*
X38814310Y-41373554D01*
X38857437Y-41438097D01*
X38961903Y-41542563D01*
X39026443Y-41585687D01*
X38560575Y-42051556D01*
X38706236Y-42157385D01*
X38706240Y-42157387D01*
X38902586Y-42257430D01*
X39112170Y-42325528D01*
X39329815Y-42360000D01*
X39550185Y-42360000D01*
X39767829Y-42325528D01*
X39977413Y-42257430D01*
X40173757Y-42157388D01*
X40319422Y-42051555D01*
X39853555Y-41585688D01*
X39918097Y-41542563D01*
X40022563Y-41438097D01*
X40065688Y-41373555D01*
X40531555Y-41839422D01*
X40637388Y-41693757D01*
X40737430Y-41497413D01*
X40805528Y-41287829D01*
X40840000Y-41070185D01*
X40840000Y-40849814D01*
X40805528Y-40632170D01*
X40737430Y-40422586D01*
X40637387Y-40226240D01*
X40637385Y-40226236D01*
X40531556Y-40080575D01*
X40065687Y-40546443D01*
X40022563Y-40481903D01*
X39918097Y-40377437D01*
X39853554Y-40334310D01*
X40319423Y-39868442D01*
X40173763Y-39762614D01*
X40173759Y-39762612D01*
X39977413Y-39662569D01*
X39767829Y-39594471D01*
X39550185Y-39560000D01*
X39329815Y-39560000D01*
X39112170Y-39594471D01*
X38902586Y-39662569D01*
X38706241Y-39762612D01*
X38560575Y-39868442D01*
X39026444Y-40334311D01*
X38961903Y-40377437D01*
X38857437Y-40481903D01*
X38814311Y-40546444D01*
X38348442Y-40080575D01*
X38242612Y-40226241D01*
X38142569Y-40422586D01*
X38074471Y-40632170D01*
X38040000Y-40849814D01*
X31431222Y-40849814D01*
X45550474Y-26730563D01*
X45596935Y-26650090D01*
X45599910Y-26644938D01*
X45612705Y-26597186D01*
X45625500Y-26549436D01*
X45625500Y-26450564D01*
X45625500Y-26446544D01*
X45644407Y-26388353D01*
X45654490Y-26376546D01*
X56800475Y-15230562D01*
X56822643Y-15192167D01*
X56849909Y-15144941D01*
X56849909Y-15144939D01*
X56849911Y-15144937D01*
X56875500Y-15049436D01*
X56875500Y-14950564D01*
X56875500Y-14446545D01*
X56894407Y-14388354D01*
X56904496Y-14376541D01*
X64376541Y-6904496D01*
X64431058Y-6876719D01*
X64446545Y-6875500D01*
X65240713Y-6875500D01*
X65298904Y-6894407D01*
X65334868Y-6943907D01*
X65334868Y-7005093D01*
X65298904Y-7054591D01*
X65239185Y-7097980D01*
X65208073Y-7120585D01*
X65085585Y-7243073D01*
X64983766Y-7383214D01*
X64905125Y-7537558D01*
X64905123Y-7537561D01*
X64851598Y-7702293D01*
X64851597Y-7702297D01*
X64824500Y-7873385D01*
X64824500Y-8025500D01*
X64805593Y-8083691D01*
X64756093Y-8119655D01*
X64725500Y-8124500D01*
X64700564Y-8124500D01*
X64636896Y-8141559D01*
X64605062Y-8150089D01*
X64519437Y-8199525D01*
X64019438Y-8699525D01*
X64019437Y-8699524D01*
X63949524Y-8769438D01*
X63900091Y-8855057D01*
X63874500Y-8950566D01*
X63874500Y-9303454D01*
X63855593Y-9361645D01*
X63845504Y-9373458D01*
X49519438Y-23699525D01*
X49519437Y-23699524D01*
X49449524Y-23769438D01*
X49400091Y-23855057D01*
X49374500Y-23950566D01*
X49374500Y-26053455D01*
X49355593Y-26111646D01*
X49345504Y-26123459D01*
X48769438Y-26699525D01*
X48769437Y-26699524D01*
X48699524Y-26769438D01*
X48650091Y-26855057D01*
X48624500Y-26950566D01*
X48624500Y-31303455D01*
X48605593Y-31361646D01*
X48595504Y-31373459D01*
X48519438Y-31449525D01*
X48519437Y-31449524D01*
X48449524Y-31519438D01*
X48400091Y-31605057D01*
X48389405Y-31644938D01*
X48374501Y-31700564D01*
X48374500Y-31700566D01*
X48374500Y-35303453D01*
X48355593Y-35361644D01*
X48345504Y-35373457D01*
X46519658Y-37199302D01*
X46465141Y-37227079D01*
X46404709Y-37217508D01*
X46308412Y-37168443D01*
X46106238Y-37102752D01*
X45896290Y-37069500D01*
X45896287Y-37069500D01*
X45683713Y-37069500D01*
X45683710Y-37069500D01*
X45473761Y-37102752D01*
X45271587Y-37168443D01*
X45082184Y-37264948D01*
X45082180Y-37264950D01*
X44910213Y-37389891D01*
X44759891Y-37540213D01*
X44634950Y-37712180D01*
X44634948Y-37712184D01*
X44538443Y-37901587D01*
X44472752Y-38103761D01*
X44439500Y-38313709D01*
X44439500Y-38526290D01*
X44472752Y-38736238D01*
X44538443Y-38938412D01*
X44634948Y-39127815D01*
X44634950Y-39127819D01*
X44759891Y-39299786D01*
X44759893Y-39299788D01*
X44759896Y-39299792D01*
X44910208Y-39450104D01*
X44910211Y-39450106D01*
X44910213Y-39450108D01*
X45082180Y-39575049D01*
X45082184Y-39575051D01*
X45271588Y-39671557D01*
X45473757Y-39737246D01*
X45473758Y-39737246D01*
X45473761Y-39737247D01*
X45683710Y-39770500D01*
X45683713Y-39770500D01*
X45896290Y-39770500D01*
X46106238Y-39737247D01*
X46106239Y-39737246D01*
X46106243Y-39737246D01*
X46308412Y-39671557D01*
X46497816Y-39575051D01*
X46669792Y-39450104D01*
X46820104Y-39299792D01*
X46945051Y-39127816D01*
X47041557Y-38938412D01*
X47107246Y-38736243D01*
X47112897Y-38700564D01*
X47140500Y-38526290D01*
X47140500Y-38313709D01*
X47107247Y-38103761D01*
X47091759Y-38056093D01*
X47041557Y-37901588D01*
X47019493Y-37858286D01*
X47009922Y-37797855D01*
X47037699Y-37743338D01*
X49050475Y-35730563D01*
X49099911Y-35644937D01*
X49125500Y-35549436D01*
X49125500Y-35450564D01*
X49125500Y-31946545D01*
X49144407Y-31888354D01*
X49154496Y-31876541D01*
X49300474Y-31730563D01*
X49349908Y-31644942D01*
X49349908Y-31644940D01*
X49349910Y-31644938D01*
X49375500Y-31549435D01*
X49375500Y-27196544D01*
X49394407Y-27138353D01*
X49404490Y-27126546D01*
X50050474Y-26480563D01*
X50067794Y-26450564D01*
X50099910Y-26394938D01*
X50125500Y-26299435D01*
X50125500Y-24196545D01*
X50144407Y-24138354D01*
X50154496Y-24126541D01*
X57318552Y-16962485D01*
X64550475Y-9730563D01*
X64599911Y-9644937D01*
X64625500Y-9549436D01*
X64625500Y-9450564D01*
X64625500Y-9196544D01*
X64644407Y-9138353D01*
X64654497Y-9126540D01*
X64876542Y-8904496D01*
X64931058Y-8876719D01*
X64946545Y-8875500D01*
X65280628Y-8875500D01*
X65338817Y-8894406D01*
X65338819Y-8894407D01*
X65338819Y-8894408D01*
X65343857Y-8898068D01*
X65348212Y-8901232D01*
X65502555Y-8979873D01*
X65502557Y-8979873D01*
X65502558Y-8979874D01*
X65502561Y-8979876D01*
X65667293Y-9033401D01*
X65667297Y-9033402D01*
X65838386Y-9060500D01*
X65838389Y-9060500D01*
X67911614Y-9060500D01*
X68082702Y-9033402D01*
X68082706Y-9033401D01*
X68247438Y-8979876D01*
X68247440Y-8979874D01*
X68247445Y-8979873D01*
X68401788Y-8901232D01*
X68541928Y-8799414D01*
X68664414Y-8676928D01*
X68766232Y-8536788D01*
X68844873Y-8382445D01*
X68844874Y-8382440D01*
X68844876Y-8382438D01*
X68898401Y-8217706D01*
X68898402Y-8217702D01*
X68925500Y-8046614D01*
X68925500Y-7873385D01*
X68898402Y-7702297D01*
X68898401Y-7702293D01*
X68844876Y-7537561D01*
X68844874Y-7537558D01*
X68844873Y-7537557D01*
X68844873Y-7537555D01*
X68766232Y-7383212D01*
X68664414Y-7243072D01*
X68541928Y-7120586D01*
X68401788Y-7018768D01*
X68401787Y-7018767D01*
X68401785Y-7018766D01*
X68247441Y-6940125D01*
X68247438Y-6940123D01*
X68082706Y-6886598D01*
X68082702Y-6886597D01*
X67911614Y-6859500D01*
X67911611Y-6859500D01*
X65838389Y-6859500D01*
X65838386Y-6859500D01*
X65667297Y-6886597D01*
X65667294Y-6886598D01*
X65655288Y-6890499D01*
X65594103Y-6890496D01*
X65544604Y-6854530D01*
X65525700Y-6796338D01*
X65544610Y-6738148D01*
X65554690Y-6726346D01*
X65735513Y-6545522D01*
X65790028Y-6517746D01*
X65821001Y-6517746D01*
X65838389Y-6520500D01*
X65838390Y-6520500D01*
X67911614Y-6520500D01*
X68082702Y-6493402D01*
X68082706Y-6493401D01*
X68247438Y-6439876D01*
X68247440Y-6439874D01*
X68247445Y-6439873D01*
X68401788Y-6361232D01*
X68541928Y-6259414D01*
X68664414Y-6136928D01*
X68766232Y-5996788D01*
X68844873Y-5842445D01*
X68844874Y-5842440D01*
X68844876Y-5842438D01*
X68898401Y-5677706D01*
X68898402Y-5677702D01*
X68925500Y-5506614D01*
X68925500Y-5333385D01*
X68898402Y-5162297D01*
X68898401Y-5162293D01*
X68844876Y-4997561D01*
X68844874Y-4997558D01*
X68844873Y-4997557D01*
X68844873Y-4997555D01*
X68766232Y-4843212D01*
X68664414Y-4703072D01*
X68541928Y-4580586D01*
X68401788Y-4478768D01*
X68401787Y-4478767D01*
X68401785Y-4478766D01*
X68247441Y-4400125D01*
X68247438Y-4400123D01*
X68082706Y-4346598D01*
X68082702Y-4346597D01*
X67911614Y-4319500D01*
X67911611Y-4319500D01*
X66827398Y-4319500D01*
X66769207Y-4300593D01*
X66733243Y-4251093D01*
X66733243Y-4189907D01*
X66769207Y-4140407D01*
X66801772Y-4124874D01*
X66847186Y-4112705D01*
X66847187Y-4112705D01*
X66894934Y-4099911D01*
X66894933Y-4099911D01*
X66894938Y-4099910D01*
X66980562Y-4050475D01*
X67021542Y-4009494D01*
X67076057Y-3981719D01*
X67091544Y-3980500D01*
X68649673Y-3980500D01*
X68649674Y-3980500D01*
X68722740Y-3965966D01*
X68805601Y-3910601D01*
X68860966Y-3827740D01*
X68875500Y-3754674D01*
X68875500Y-2005326D01*
X68860966Y-1932260D01*
X68812768Y-1860125D01*
X68805602Y-1849400D01*
X68805597Y-1849395D01*
X68741871Y-1806816D01*
X68703990Y-1758767D01*
X68701588Y-1697629D01*
X68735580Y-1646754D01*
X68792983Y-1625576D01*
X68796871Y-1625500D01*
X69053455Y-1625500D01*
X69111646Y-1644407D01*
X69123459Y-1654496D01*
X74199525Y-6730562D01*
X74199524Y-6730562D01*
X74269438Y-6800475D01*
X74355058Y-6849908D01*
X74355062Y-6849910D01*
X74402812Y-6862705D01*
X74402813Y-6862705D01*
X74450564Y-6875500D01*
X74450565Y-6875500D01*
X79303455Y-6875500D01*
X79361646Y-6894407D01*
X79373459Y-6904496D01*
X80699525Y-8230562D01*
X80699524Y-8230562D01*
X80769438Y-8300475D01*
X80855058Y-8349908D01*
X80855059Y-8349908D01*
X80855062Y-8349910D01*
X80879464Y-8356448D01*
X80879465Y-8356449D01*
X80915015Y-8365974D01*
X80950564Y-8375500D01*
X80950565Y-8375500D01*
X82040921Y-8375500D01*
X82099112Y-8394407D01*
X82129131Y-8429556D01*
X82183764Y-8536782D01*
X82183765Y-8536784D01*
X82183766Y-8536785D01*
X82183768Y-8536788D01*
X82285586Y-8676928D01*
X82408072Y-8799414D01*
X82548212Y-8901232D01*
X82702555Y-8979873D01*
X82702557Y-8979873D01*
X82702558Y-8979874D01*
X82702561Y-8979876D01*
X82867293Y-9033401D01*
X82867297Y-9033402D01*
X83038386Y-9060500D01*
X83038389Y-9060500D01*
X85211614Y-9060500D01*
X85382702Y-9033402D01*
X85382706Y-9033401D01*
X85547438Y-8979876D01*
X85547440Y-8979874D01*
X85547445Y-8979873D01*
X85701788Y-8901232D01*
X85841928Y-8799414D01*
X85841928Y-8799413D01*
X85842309Y-8799137D01*
X85900500Y-8780229D01*
X85958690Y-8799136D01*
X85994654Y-8848636D01*
X85999500Y-8879229D01*
X85999500Y-9580770D01*
X85980593Y-9638961D01*
X85931093Y-9674925D01*
X85869907Y-9674925D01*
X85842309Y-9660863D01*
X85841926Y-9660585D01*
X85806589Y-9634911D01*
X85701786Y-9558766D01*
X85547441Y-9480125D01*
X85547438Y-9480123D01*
X85382706Y-9426598D01*
X85382702Y-9426597D01*
X85211614Y-9399500D01*
X85211611Y-9399500D01*
X83038389Y-9399500D01*
X83038386Y-9399500D01*
X82867297Y-9426597D01*
X82867293Y-9426598D01*
X82702561Y-9480123D01*
X82702558Y-9480125D01*
X82548214Y-9558766D01*
X82408073Y-9660585D01*
X82285585Y-9783073D01*
X82183766Y-9923214D01*
X82105125Y-10077558D01*
X82105123Y-10077561D01*
X82051598Y-10242293D01*
X82051597Y-10242297D01*
X82024500Y-10413385D01*
X82024500Y-10586614D01*
X82051597Y-10757702D01*
X82051598Y-10757706D01*
X82105123Y-10922438D01*
X82105125Y-10922441D01*
X82165023Y-11040000D01*
X82183768Y-11076788D01*
X82285586Y-11216928D01*
X82408072Y-11339414D01*
X82548212Y-11441232D01*
X82702555Y-11519873D01*
X82702557Y-11519873D01*
X82702558Y-11519874D01*
X82702561Y-11519876D01*
X82867293Y-11573401D01*
X82867297Y-11573402D01*
X83038386Y-11600500D01*
X83038389Y-11600500D01*
X85211614Y-11600500D01*
X85382702Y-11573402D01*
X85382706Y-11573401D01*
X85547438Y-11519876D01*
X85547440Y-11519874D01*
X85547445Y-11519873D01*
X85701788Y-11441232D01*
X85841928Y-11339414D01*
X85841928Y-11339413D01*
X85842309Y-11339137D01*
X85900500Y-11320229D01*
X85958690Y-11339136D01*
X85994654Y-11388636D01*
X85999500Y-11419229D01*
X85999500Y-12169151D01*
X85980593Y-12227342D01*
X85931093Y-12263306D01*
X85869907Y-12263306D01*
X85830498Y-12239156D01*
X85791928Y-12200586D01*
X85651788Y-12098768D01*
X85651787Y-12098767D01*
X85651785Y-12098766D01*
X85497441Y-12020125D01*
X85497438Y-12020123D01*
X85332706Y-11966598D01*
X85332702Y-11966597D01*
X85161614Y-11939500D01*
X85161611Y-11939500D01*
X83088389Y-11939500D01*
X83088386Y-11939500D01*
X82917297Y-11966597D01*
X82917293Y-11966598D01*
X82752561Y-12020123D01*
X82752558Y-12020125D01*
X82598214Y-12098766D01*
X82458073Y-12200585D01*
X82335585Y-12323073D01*
X82233766Y-12463214D01*
X82155125Y-12617558D01*
X82155123Y-12617561D01*
X82101598Y-12782293D01*
X82101597Y-12782297D01*
X82074500Y-12953385D01*
X82074500Y-13126614D01*
X82101596Y-13297694D01*
X82102142Y-13299967D01*
X82102080Y-13300749D01*
X82102206Y-13301543D01*
X82102015Y-13301573D01*
X82097341Y-13360964D01*
X82075881Y-13393081D01*
X81873460Y-13595503D01*
X81818943Y-13623281D01*
X81803456Y-13624500D01*
X77299436Y-13624500D01*
X77200564Y-13624500D01*
X77152813Y-13637295D01*
X77152812Y-13637294D01*
X77105062Y-13650089D01*
X77105058Y-13650091D01*
X77019436Y-13699525D01*
X77019437Y-13699526D01*
X74548459Y-16170504D01*
X74493942Y-16198281D01*
X74478455Y-16199500D01*
X74427525Y-16199500D01*
X74379065Y-16212485D01*
X74287510Y-16237017D01*
X74161989Y-16309487D01*
X74059487Y-16411989D01*
X73987017Y-16537510D01*
X73949500Y-16677525D01*
X73949500Y-16822474D01*
X73987017Y-16962489D01*
X74059487Y-17088010D01*
X74059489Y-17088012D01*
X74059491Y-17088015D01*
X74161985Y-17190509D01*
X74161987Y-17190510D01*
X74161989Y-17190512D01*
X74287511Y-17262982D01*
X74287512Y-17262982D01*
X74287515Y-17262984D01*
X74427525Y-17300500D01*
X74427526Y-17300500D01*
X74572474Y-17300500D01*
X74572475Y-17300500D01*
X74712485Y-17262984D01*
X74712487Y-17262982D01*
X74712489Y-17262982D01*
X74838010Y-17190512D01*
X74838010Y-17190511D01*
X74838015Y-17190509D01*
X74940509Y-17088015D01*
X74964422Y-17046597D01*
X75012982Y-16962489D01*
X75012982Y-16962487D01*
X75012984Y-16962485D01*
X75050500Y-16822475D01*
X75050500Y-16771545D01*
X75069407Y-16713354D01*
X75079496Y-16701541D01*
X77376541Y-14404496D01*
X77431058Y-14376719D01*
X77446545Y-14375500D01*
X82049436Y-14375500D01*
X82097186Y-14362705D01*
X82097187Y-14362705D01*
X82144934Y-14349911D01*
X82144933Y-14349911D01*
X82144938Y-14349910D01*
X82230562Y-14300475D01*
X82265518Y-14265518D01*
X82300476Y-14230562D01*
X82397958Y-14133077D01*
X82515284Y-14015751D01*
X82569798Y-13987975D01*
X82630230Y-13997546D01*
X82752555Y-14059873D01*
X82752557Y-14059873D01*
X82752558Y-14059874D01*
X82752561Y-14059876D01*
X82917293Y-14113401D01*
X82917297Y-14113402D01*
X83088386Y-14140500D01*
X83088389Y-14140500D01*
X85161614Y-14140500D01*
X85332702Y-14113402D01*
X85332706Y-14113401D01*
X85497438Y-14059876D01*
X85497440Y-14059874D01*
X85497445Y-14059873D01*
X85651788Y-13981232D01*
X85791928Y-13879414D01*
X85830498Y-13840843D01*
X85885013Y-13813068D01*
X85945445Y-13822639D01*
X85988710Y-13865904D01*
X85999500Y-13910849D01*
X85999500Y-14709151D01*
X85980593Y-14767342D01*
X85931093Y-14803306D01*
X85869907Y-14803306D01*
X85830498Y-14779156D01*
X85791928Y-14740586D01*
X85651788Y-14638768D01*
X85651787Y-14638767D01*
X85651785Y-14638766D01*
X85497441Y-14560125D01*
X85497438Y-14560123D01*
X85332706Y-14506598D01*
X85332702Y-14506597D01*
X85161614Y-14479500D01*
X85161611Y-14479500D01*
X83088389Y-14479500D01*
X83088386Y-14479500D01*
X82917297Y-14506597D01*
X82917293Y-14506598D01*
X82752561Y-14560123D01*
X82752558Y-14560125D01*
X82598214Y-14638766D01*
X82458073Y-14740585D01*
X82335585Y-14863073D01*
X82233766Y-15003214D01*
X82155125Y-15157558D01*
X82155123Y-15157561D01*
X82101598Y-15322293D01*
X82101597Y-15322297D01*
X82074500Y-15493385D01*
X82074500Y-15666614D01*
X82101597Y-15837702D01*
X82101598Y-15837706D01*
X82155123Y-16002438D01*
X82155125Y-16002441D01*
X82178571Y-16048458D01*
X82233768Y-16156788D01*
X82335586Y-16296928D01*
X82458072Y-16419414D01*
X82598212Y-16521232D01*
X82752555Y-16599873D01*
X82752557Y-16599873D01*
X82752558Y-16599874D01*
X82752561Y-16599876D01*
X82917293Y-16653401D01*
X82917297Y-16653402D01*
X83088386Y-16680500D01*
X83088389Y-16680500D01*
X85161614Y-16680500D01*
X85332702Y-16653402D01*
X85332706Y-16653401D01*
X85497438Y-16599876D01*
X85497440Y-16599874D01*
X85497445Y-16599873D01*
X85651788Y-16521232D01*
X85791928Y-16419414D01*
X85830498Y-16380843D01*
X85885013Y-16353068D01*
X85945445Y-16362639D01*
X85988710Y-16405904D01*
X85999500Y-16450849D01*
X85999500Y-17249151D01*
X85980593Y-17307342D01*
X85931093Y-17343306D01*
X85869907Y-17343306D01*
X85830498Y-17319156D01*
X85791928Y-17280586D01*
X85651788Y-17178768D01*
X85651787Y-17178767D01*
X85651785Y-17178766D01*
X85497441Y-17100125D01*
X85497438Y-17100123D01*
X85332706Y-17046598D01*
X85332702Y-17046597D01*
X85161614Y-17019500D01*
X85161611Y-17019500D01*
X83088389Y-17019500D01*
X83088386Y-17019500D01*
X82917297Y-17046597D01*
X82917293Y-17046598D01*
X82752561Y-17100123D01*
X82752558Y-17100125D01*
X82598214Y-17178766D01*
X82458073Y-17280585D01*
X82335585Y-17403073D01*
X82233766Y-17543214D01*
X82155125Y-17697558D01*
X82155123Y-17697561D01*
X82101598Y-17862293D01*
X82101597Y-17862297D01*
X82074500Y-18033385D01*
X82074500Y-18206615D01*
X82074499Y-18206615D01*
X82092292Y-18318955D01*
X82082720Y-18379387D01*
X82064515Y-18404445D01*
X79769438Y-20699525D01*
X79769437Y-20699524D01*
X79699524Y-20769438D01*
X79650091Y-20855057D01*
X79624500Y-20950566D01*
X79624500Y-24553455D01*
X79605593Y-24611646D01*
X79595504Y-24623459D01*
X79519438Y-24699525D01*
X79519437Y-24699524D01*
X79449524Y-24769438D01*
X79400091Y-24855057D01*
X79374500Y-24950566D01*
X79374500Y-31553455D01*
X79355593Y-31611646D01*
X79345504Y-31623459D01*
X76019438Y-34949525D01*
X76019437Y-34949524D01*
X75949524Y-35019438D01*
X75900089Y-35105061D01*
X75900089Y-35105062D01*
X75900090Y-35105063D01*
X75874787Y-35199496D01*
X75874780Y-35199520D01*
X75874500Y-35200561D01*
X75874500Y-38553455D01*
X75855593Y-38611646D01*
X75845504Y-38623459D01*
X75019438Y-39449525D01*
X75019437Y-39449524D01*
X74949524Y-39519438D01*
X74900091Y-39605057D01*
X74874500Y-39700566D01*
X74874500Y-40053455D01*
X74855593Y-40111646D01*
X74845504Y-40123459D01*
X73519438Y-41449525D01*
X73519437Y-41449524D01*
X73449524Y-41519438D01*
X73400091Y-41605057D01*
X73374500Y-41700566D01*
X73374500Y-42914512D01*
X73355593Y-42972703D01*
X73306093Y-43008667D01*
X73244907Y-43008667D01*
X73195407Y-42972703D01*
X73179874Y-42940137D01*
X73135639Y-42775048D01*
X73022743Y-42502493D01*
X72875238Y-42247006D01*
X72875235Y-42247002D01*
X72695651Y-42012964D01*
X72695649Y-42012962D01*
X72695646Y-42012958D01*
X72487042Y-41804354D01*
X72487037Y-41804350D01*
X72487035Y-41804348D01*
X72252997Y-41624764D01*
X72218872Y-41605062D01*
X71997507Y-41477257D01*
X71997503Y-41477255D01*
X71997499Y-41477253D01*
X71724953Y-41364361D01*
X71658183Y-41346470D01*
X71439993Y-41288007D01*
X71439986Y-41288006D01*
X71147506Y-41249500D01*
X70852494Y-41249500D01*
X70852493Y-41249500D01*
X70560013Y-41288006D01*
X70560011Y-41288006D01*
X70560007Y-41288007D01*
X70408584Y-41328580D01*
X70275046Y-41364361D01*
X70002500Y-41477253D01*
X69747002Y-41624764D01*
X69512964Y-41804348D01*
X69304348Y-42012964D01*
X69124764Y-42247002D01*
X68977253Y-42502500D01*
X68864361Y-42775046D01*
X68828580Y-42908584D01*
X68788007Y-43060007D01*
X68788006Y-43060011D01*
X68788006Y-43060013D01*
X68749500Y-43352493D01*
X68749500Y-43352494D01*
X68749500Y-43647506D01*
X68788007Y-43939993D01*
X68824660Y-44076785D01*
X68864361Y-44224953D01*
X68977253Y-44497499D01*
X68977255Y-44497503D01*
X68977257Y-44497507D01*
X69021075Y-44573402D01*
X69124764Y-44752997D01*
X69304348Y-44987035D01*
X69304350Y-44987037D01*
X69304354Y-44987042D01*
X69512958Y-45195646D01*
X69512962Y-45195649D01*
X69512964Y-45195651D01*
X69747002Y-45375235D01*
X69747006Y-45375238D01*
X70002493Y-45522743D01*
X70275048Y-45635639D01*
X70560007Y-45711993D01*
X70852494Y-45750500D01*
X70852495Y-45750500D01*
X71147505Y-45750500D01*
X71147506Y-45750500D01*
X71439993Y-45711993D01*
X71724952Y-45635639D01*
X71997507Y-45522743D01*
X72252994Y-45375238D01*
X72487042Y-45195646D01*
X72695646Y-44987042D01*
X72875238Y-44752994D01*
X73022743Y-44497507D01*
X73135639Y-44224952D01*
X73179874Y-44059861D01*
X73213197Y-44008550D01*
X73270318Y-43986623D01*
X73329419Y-44002458D01*
X73367924Y-44050008D01*
X73374500Y-44085487D01*
X73374500Y-69494324D01*
X73355593Y-69552515D01*
X73306093Y-69588479D01*
X73290987Y-69592105D01*
X73223759Y-69602753D01*
X73021587Y-69668443D01*
X72832184Y-69764948D01*
X72832180Y-69764950D01*
X72660213Y-69889891D01*
X72509891Y-70040213D01*
X72384950Y-70212180D01*
X72384948Y-70212184D01*
X72288443Y-70401587D01*
X72222752Y-70603761D01*
X72189500Y-70813709D01*
X72189500Y-71026290D01*
X72222752Y-71236238D01*
X72288443Y-71438412D01*
X72384948Y-71627815D01*
X72384950Y-71627819D01*
X72509891Y-71799786D01*
X72509893Y-71799788D01*
X72509896Y-71799792D01*
X72660208Y-71950104D01*
X72660211Y-71950106D01*
X72660213Y-71950108D01*
X72832180Y-72075049D01*
X72832184Y-72075051D01*
X73021588Y-72171557D01*
X73223757Y-72237246D01*
X73223758Y-72237246D01*
X73223761Y-72237247D01*
X73433710Y-72270500D01*
X73433713Y-72270500D01*
X73646290Y-72270500D01*
X73856238Y-72237247D01*
X73856239Y-72237246D01*
X73856243Y-72237246D01*
X74058412Y-72171557D01*
X74247816Y-72075051D01*
X74419792Y-71950104D01*
X74570104Y-71799792D01*
X74695051Y-71627816D01*
X74791557Y-71438412D01*
X74857246Y-71236243D01*
X74890500Y-71026287D01*
X74890500Y-70813713D01*
X74890500Y-70813709D01*
X74857247Y-70603761D01*
X74857246Y-70603757D01*
X74791557Y-70401588D01*
X74695051Y-70212184D01*
X74695049Y-70212180D01*
X74570108Y-70040213D01*
X74570106Y-70040211D01*
X74570104Y-70040208D01*
X74419792Y-69889896D01*
X74419788Y-69889893D01*
X74419786Y-69889891D01*
X74247819Y-69764950D01*
X74247815Y-69764948D01*
X74179555Y-69730168D01*
X74136290Y-69686903D01*
X74125500Y-69641958D01*
X74125500Y-43413385D01*
X74979500Y-43413385D01*
X74979500Y-43586614D01*
X75006597Y-43757702D01*
X75006598Y-43757706D01*
X75060123Y-43922438D01*
X75060125Y-43922441D01*
X75130144Y-44059864D01*
X75138768Y-44076788D01*
X75240586Y-44216928D01*
X75363072Y-44339414D01*
X75503212Y-44441232D01*
X75657555Y-44519873D01*
X75657557Y-44519873D01*
X75657558Y-44519874D01*
X75657561Y-44519876D01*
X75822293Y-44573401D01*
X75822297Y-44573402D01*
X75993386Y-44600500D01*
X75993389Y-44600500D01*
X76166614Y-44600500D01*
X76337702Y-44573402D01*
X76337706Y-44573401D01*
X76502438Y-44519876D01*
X76502440Y-44519874D01*
X76502445Y-44519873D01*
X76656788Y-44441232D01*
X76796928Y-44339414D01*
X76919414Y-44216928D01*
X77021232Y-44076788D01*
X77099873Y-43922445D01*
X77099874Y-43922440D01*
X77099876Y-43922438D01*
X77153401Y-43757706D01*
X77153402Y-43757702D01*
X77180500Y-43586614D01*
X77180500Y-43413385D01*
X77153402Y-43242297D01*
X77153401Y-43242293D01*
X77099876Y-43077561D01*
X77099874Y-43077558D01*
X77099873Y-43077557D01*
X77099873Y-43077555D01*
X77021232Y-42923212D01*
X76919414Y-42783072D01*
X76796928Y-42660586D01*
X76656788Y-42558768D01*
X76656787Y-42558767D01*
X76656785Y-42558766D01*
X76502441Y-42480125D01*
X76502438Y-42480123D01*
X76337706Y-42426598D01*
X76337702Y-42426597D01*
X76166614Y-42399500D01*
X76166611Y-42399500D01*
X75993389Y-42399500D01*
X75993386Y-42399500D01*
X75822297Y-42426597D01*
X75822293Y-42426598D01*
X75657561Y-42480123D01*
X75657558Y-42480125D01*
X75503214Y-42558766D01*
X75363073Y-42660585D01*
X75240585Y-42783073D01*
X75138766Y-42923214D01*
X75060125Y-43077558D01*
X75060123Y-43077561D01*
X75006598Y-43242293D01*
X75006597Y-43242297D01*
X74979500Y-43413385D01*
X74125500Y-43413385D01*
X74125500Y-41946545D01*
X74144407Y-41888354D01*
X74154496Y-41876541D01*
X75550474Y-40480563D01*
X75599908Y-40394942D01*
X75599908Y-40394940D01*
X75599910Y-40394938D01*
X75625500Y-40299435D01*
X75625500Y-39946544D01*
X75644407Y-39888353D01*
X75654490Y-39876546D01*
X76550475Y-38980562D01*
X76575848Y-38936615D01*
X76599909Y-38894941D01*
X76599909Y-38894939D01*
X76599911Y-38894937D01*
X76625500Y-38799436D01*
X76625500Y-38700564D01*
X76625500Y-35446545D01*
X76644407Y-35388354D01*
X76654496Y-35376541D01*
X80050474Y-31980563D01*
X80050475Y-31980563D01*
X80099908Y-31894941D01*
X80099910Y-31894938D01*
X80112705Y-31847186D01*
X80125500Y-31799436D01*
X80125500Y-31700564D01*
X80125500Y-30307853D01*
X80144407Y-30249662D01*
X80193907Y-30213698D01*
X80255093Y-30213698D01*
X80304593Y-30249662D01*
X80315964Y-30269968D01*
X80336772Y-30320204D01*
X80336774Y-30320208D01*
X80336776Y-30320212D01*
X80458064Y-30530289D01*
X80458066Y-30530292D01*
X80605729Y-30722731D01*
X80605731Y-30722733D01*
X80605735Y-30722738D01*
X80777262Y-30894265D01*
X80777266Y-30894268D01*
X80777268Y-30894270D01*
X80969707Y-31041933D01*
X80969711Y-31041936D01*
X81179788Y-31163224D01*
X81403900Y-31256054D01*
X81638211Y-31318838D01*
X81878712Y-31350500D01*
X81878713Y-31350500D01*
X82121287Y-31350500D01*
X82121288Y-31350500D01*
X82361789Y-31318838D01*
X82596100Y-31256054D01*
X82820212Y-31163224D01*
X83030289Y-31041936D01*
X83222738Y-30894265D01*
X83394265Y-30722738D01*
X83541936Y-30530289D01*
X83663224Y-30320212D01*
X83756054Y-30096100D01*
X83818838Y-29861789D01*
X83850500Y-29621288D01*
X83850500Y-29378712D01*
X83818838Y-29138211D01*
X83756054Y-28903900D01*
X83663224Y-28679788D01*
X83541936Y-28469711D01*
X83394265Y-28277262D01*
X83222738Y-28105735D01*
X83222733Y-28105731D01*
X83222731Y-28105729D01*
X83030292Y-27958066D01*
X83030289Y-27958064D01*
X82820212Y-27836776D01*
X82820208Y-27836774D01*
X82820204Y-27836772D01*
X82596105Y-27743948D01*
X82596104Y-27743947D01*
X82596100Y-27743946D01*
X82361789Y-27681162D01*
X82361786Y-27681161D01*
X82361784Y-27681161D01*
X82121289Y-27649500D01*
X82121288Y-27649500D01*
X81878712Y-27649500D01*
X81878710Y-27649500D01*
X81638218Y-27681161D01*
X81638213Y-27681161D01*
X81403907Y-27743944D01*
X81403894Y-27743948D01*
X81179795Y-27836772D01*
X80969707Y-27958066D01*
X80777268Y-28105729D01*
X80605729Y-28277268D01*
X80458066Y-28469707D01*
X80336773Y-28679792D01*
X80315964Y-28730032D01*
X80276227Y-28776557D01*
X80216732Y-28790841D01*
X80160205Y-28767426D01*
X80128235Y-28715257D01*
X80125500Y-28692146D01*
X80125500Y-25196545D01*
X80144407Y-25138354D01*
X80154496Y-25126541D01*
X80300474Y-24980563D01*
X80349908Y-24894942D01*
X80349908Y-24894940D01*
X80349910Y-24894938D01*
X80375500Y-24799435D01*
X80375500Y-21196545D01*
X80394407Y-21138354D01*
X80404496Y-21126541D01*
X81298599Y-20232438D01*
X82464053Y-19066983D01*
X82518568Y-19039208D01*
X82579000Y-19048779D01*
X82592245Y-19056896D01*
X82598212Y-19061232D01*
X82752555Y-19139873D01*
X82752557Y-19139873D01*
X82752558Y-19139874D01*
X82752561Y-19139876D01*
X82917293Y-19193401D01*
X82917297Y-19193402D01*
X83088386Y-19220500D01*
X83088389Y-19220500D01*
X85161614Y-19220500D01*
X85332702Y-19193402D01*
X85332706Y-19193401D01*
X85497438Y-19139876D01*
X85497440Y-19139874D01*
X85497445Y-19139873D01*
X85651788Y-19061232D01*
X85791928Y-18959414D01*
X85830498Y-18920843D01*
X85885013Y-18893068D01*
X85945445Y-18902639D01*
X85988710Y-18945904D01*
X85999500Y-18990849D01*
X85999500Y-87900500D01*
X85980593Y-87958691D01*
X85931093Y-87994655D01*
X85900500Y-87999500D01*
X599500Y-87999500D01*
X541309Y-87980593D01*
X505345Y-87931093D01*
X500500Y-87900500D01*
X500500Y-83878710D01*
X2649500Y-83878710D01*
X2649500Y-84121289D01*
X2681161Y-84361781D01*
X2681161Y-84361786D01*
X2743944Y-84596092D01*
X2743948Y-84596105D01*
X2836772Y-84820204D01*
X2836774Y-84820208D01*
X2836776Y-84820212D01*
X2958064Y-85030289D01*
X2958066Y-85030292D01*
X3105729Y-85222731D01*
X3105731Y-85222733D01*
X3105735Y-85222738D01*
X3277262Y-85394265D01*
X3277266Y-85394268D01*
X3277268Y-85394270D01*
X3469707Y-85541933D01*
X3469711Y-85541936D01*
X3679788Y-85663224D01*
X3903900Y-85756054D01*
X4138211Y-85818838D01*
X4378712Y-85850500D01*
X4378713Y-85850500D01*
X4621287Y-85850500D01*
X4621288Y-85850500D01*
X4861789Y-85818838D01*
X5096100Y-85756054D01*
X5320212Y-85663224D01*
X5530289Y-85541936D01*
X5722738Y-85394265D01*
X5894265Y-85222738D01*
X6041936Y-85030289D01*
X6163224Y-84820212D01*
X6256054Y-84596100D01*
X6318838Y-84361789D01*
X6350500Y-84121288D01*
X6350500Y-83878712D01*
X6350500Y-83878710D01*
X80149500Y-83878710D01*
X80149500Y-84121289D01*
X80181161Y-84361781D01*
X80181161Y-84361786D01*
X80243944Y-84596092D01*
X80243948Y-84596105D01*
X80336772Y-84820204D01*
X80336774Y-84820208D01*
X80336776Y-84820212D01*
X80458064Y-85030289D01*
X80458066Y-85030292D01*
X80605729Y-85222731D01*
X80605731Y-85222733D01*
X80605735Y-85222738D01*
X80777262Y-85394265D01*
X80777266Y-85394268D01*
X80777268Y-85394270D01*
X80969707Y-85541933D01*
X80969711Y-85541936D01*
X81179788Y-85663224D01*
X81403900Y-85756054D01*
X81638211Y-85818838D01*
X81878712Y-85850500D01*
X81878713Y-85850500D01*
X82121287Y-85850500D01*
X82121288Y-85850500D01*
X82361789Y-85818838D01*
X82596100Y-85756054D01*
X82820212Y-85663224D01*
X83030289Y-85541936D01*
X83222738Y-85394265D01*
X83394265Y-85222738D01*
X83541936Y-85030289D01*
X83663224Y-84820212D01*
X83756054Y-84596100D01*
X83818838Y-84361789D01*
X83850500Y-84121288D01*
X83850500Y-83878712D01*
X83818838Y-83638211D01*
X83756054Y-83403900D01*
X83663224Y-83179788D01*
X83541936Y-82969711D01*
X83394265Y-82777262D01*
X83222738Y-82605735D01*
X83222733Y-82605731D01*
X83222731Y-82605729D01*
X83030292Y-82458066D01*
X83030289Y-82458064D01*
X82820212Y-82336776D01*
X82820208Y-82336774D01*
X82820204Y-82336772D01*
X82596105Y-82243948D01*
X82596104Y-82243947D01*
X82596100Y-82243946D01*
X82361789Y-82181162D01*
X82361786Y-82181161D01*
X82361784Y-82181161D01*
X82121289Y-82149500D01*
X82121288Y-82149500D01*
X81878712Y-82149500D01*
X81878710Y-82149500D01*
X81638218Y-82181161D01*
X81638213Y-82181161D01*
X81403907Y-82243944D01*
X81403894Y-82243948D01*
X81179795Y-82336772D01*
X80969707Y-82458066D01*
X80777268Y-82605729D01*
X80605729Y-82777268D01*
X80458066Y-82969707D01*
X80336772Y-83179795D01*
X80243948Y-83403894D01*
X80243944Y-83403907D01*
X80181161Y-83638213D01*
X80181161Y-83638218D01*
X80149500Y-83878710D01*
X6350500Y-83878710D01*
X6318838Y-83638211D01*
X6256054Y-83403900D01*
X6163224Y-83179788D01*
X6041936Y-82969711D01*
X5894265Y-82777262D01*
X5722738Y-82605735D01*
X5722733Y-82605731D01*
X5722731Y-82605729D01*
X5530292Y-82458066D01*
X5530289Y-82458064D01*
X5320212Y-82336776D01*
X5320208Y-82336774D01*
X5320204Y-82336772D01*
X5096105Y-82243948D01*
X5096104Y-82243947D01*
X5096100Y-82243946D01*
X4861789Y-82181162D01*
X4861786Y-82181161D01*
X4861784Y-82181161D01*
X4621289Y-82149500D01*
X4621288Y-82149500D01*
X4378712Y-82149500D01*
X4378710Y-82149500D01*
X4138218Y-82181161D01*
X4138213Y-82181161D01*
X3903907Y-82243944D01*
X3903894Y-82243948D01*
X3679795Y-82336772D01*
X3469707Y-82458066D01*
X3277268Y-82605729D01*
X3105729Y-82777268D01*
X2958066Y-82969707D01*
X2836772Y-83179795D01*
X2743948Y-83403894D01*
X2743944Y-83403907D01*
X2681161Y-83638213D01*
X2681161Y-83638218D01*
X2649500Y-83878710D01*
X500500Y-83878710D01*
X500500Y-75913385D01*
X9319500Y-75913385D01*
X9319500Y-76086614D01*
X9346597Y-76257702D01*
X9346598Y-76257706D01*
X9400123Y-76422438D01*
X9400125Y-76422441D01*
X9409064Y-76439986D01*
X9478768Y-76576788D01*
X9580586Y-76716928D01*
X9703072Y-76839414D01*
X9843212Y-76941232D01*
X9997555Y-77019873D01*
X9997557Y-77019873D01*
X9997558Y-77019874D01*
X9997561Y-77019876D01*
X10162293Y-77073401D01*
X10162297Y-77073402D01*
X10333386Y-77100500D01*
X10333389Y-77100500D01*
X10506614Y-77100500D01*
X10677702Y-77073402D01*
X10677706Y-77073401D01*
X10842438Y-77019876D01*
X10842440Y-77019874D01*
X10842445Y-77019873D01*
X10996788Y-76941232D01*
X11136928Y-76839414D01*
X11259414Y-76716928D01*
X11361232Y-76576788D01*
X11439873Y-76422445D01*
X11439874Y-76422440D01*
X11439876Y-76422438D01*
X11493401Y-76257706D01*
X11493402Y-76257702D01*
X11520500Y-76086614D01*
X11520500Y-75913386D01*
X11512795Y-75864740D01*
X11510855Y-75852493D01*
X13249500Y-75852493D01*
X13249500Y-75852494D01*
X13249500Y-76147506D01*
X13288007Y-76439993D01*
X13324660Y-76576785D01*
X13364361Y-76724953D01*
X13477253Y-76997499D01*
X13477255Y-76997503D01*
X13477257Y-76997507D01*
X13521075Y-77073402D01*
X13624764Y-77252997D01*
X13804348Y-77487035D01*
X13804350Y-77487037D01*
X13804354Y-77487042D01*
X14012958Y-77695646D01*
X14012962Y-77695649D01*
X14012964Y-77695651D01*
X14247002Y-77875235D01*
X14247006Y-77875238D01*
X14502493Y-78022743D01*
X14775048Y-78135639D01*
X15060007Y-78211993D01*
X15352494Y-78250500D01*
X15352495Y-78250500D01*
X15647505Y-78250500D01*
X15647506Y-78250500D01*
X15939993Y-78211993D01*
X16224952Y-78135639D01*
X16497507Y-78022743D01*
X16752994Y-77875238D01*
X16987042Y-77695646D01*
X17195646Y-77487042D01*
X17375238Y-77252994D01*
X17522743Y-76997507D01*
X17635639Y-76724952D01*
X17711993Y-76439993D01*
X17750500Y-76147506D01*
X17750500Y-75913385D01*
X19479500Y-75913385D01*
X19479500Y-76086614D01*
X19506597Y-76257702D01*
X19506598Y-76257706D01*
X19560123Y-76422438D01*
X19560125Y-76422441D01*
X19569064Y-76439986D01*
X19638768Y-76576788D01*
X19740586Y-76716928D01*
X19863072Y-76839414D01*
X20003212Y-76941232D01*
X20157555Y-77019873D01*
X20157557Y-77019873D01*
X20157558Y-77019874D01*
X20157561Y-77019876D01*
X20322293Y-77073401D01*
X20322297Y-77073402D01*
X20493386Y-77100500D01*
X20493389Y-77100500D01*
X20666614Y-77100500D01*
X20837702Y-77073402D01*
X20837706Y-77073401D01*
X21002438Y-77019876D01*
X21002440Y-77019874D01*
X21002445Y-77019873D01*
X21156788Y-76941232D01*
X21296928Y-76839414D01*
X21419414Y-76716928D01*
X21521232Y-76576788D01*
X21599873Y-76422445D01*
X21599874Y-76422440D01*
X21599876Y-76422438D01*
X21653401Y-76257706D01*
X21653402Y-76257702D01*
X21680500Y-76086614D01*
X21680500Y-75913385D01*
X37069500Y-75913385D01*
X37069500Y-76086614D01*
X37096597Y-76257702D01*
X37096598Y-76257706D01*
X37150123Y-76422438D01*
X37150125Y-76422441D01*
X37159064Y-76439986D01*
X37228768Y-76576788D01*
X37330586Y-76716928D01*
X37453072Y-76839414D01*
X37593212Y-76941232D01*
X37747555Y-77019873D01*
X37747557Y-77019873D01*
X37747558Y-77019874D01*
X37747561Y-77019876D01*
X37912293Y-77073401D01*
X37912297Y-77073402D01*
X38083386Y-77100500D01*
X38083389Y-77100500D01*
X38256614Y-77100500D01*
X38427702Y-77073402D01*
X38427706Y-77073401D01*
X38592438Y-77019876D01*
X38592440Y-77019874D01*
X38592445Y-77019873D01*
X38746788Y-76941232D01*
X38886928Y-76839414D01*
X39009414Y-76716928D01*
X39111232Y-76576788D01*
X39189873Y-76422445D01*
X39189874Y-76422440D01*
X39189876Y-76422438D01*
X39243401Y-76257706D01*
X39243402Y-76257702D01*
X39270500Y-76086614D01*
X39270500Y-75913386D01*
X39262795Y-75864740D01*
X39260855Y-75852493D01*
X40999500Y-75852493D01*
X40999500Y-75852494D01*
X40999500Y-76147506D01*
X41038007Y-76439993D01*
X41074660Y-76576785D01*
X41114361Y-76724953D01*
X41227253Y-76997499D01*
X41227255Y-76997503D01*
X41227257Y-76997507D01*
X41271075Y-77073402D01*
X41374764Y-77252997D01*
X41554348Y-77487035D01*
X41554350Y-77487037D01*
X41554354Y-77487042D01*
X41762958Y-77695646D01*
X41762962Y-77695649D01*
X41762964Y-77695651D01*
X41997002Y-77875235D01*
X41997006Y-77875238D01*
X42252493Y-78022743D01*
X42525048Y-78135639D01*
X42810007Y-78211993D01*
X43102494Y-78250500D01*
X43102495Y-78250500D01*
X43397505Y-78250500D01*
X43397506Y-78250500D01*
X43689993Y-78211993D01*
X43974952Y-78135639D01*
X44247507Y-78022743D01*
X44502994Y-77875238D01*
X44737042Y-77695646D01*
X44945646Y-77487042D01*
X45125238Y-77252994D01*
X45272743Y-76997507D01*
X45385639Y-76724952D01*
X45461993Y-76439993D01*
X45500500Y-76147506D01*
X45500500Y-75913385D01*
X47229500Y-75913385D01*
X47229500Y-76086614D01*
X47256597Y-76257702D01*
X47256598Y-76257706D01*
X47310123Y-76422438D01*
X47310125Y-76422441D01*
X47319064Y-76439986D01*
X47388768Y-76576788D01*
X47490586Y-76716928D01*
X47613072Y-76839414D01*
X47753212Y-76941232D01*
X47907555Y-77019873D01*
X47907557Y-77019873D01*
X47907558Y-77019874D01*
X47907561Y-77019876D01*
X48072293Y-77073401D01*
X48072297Y-77073402D01*
X48243386Y-77100500D01*
X48243389Y-77100500D01*
X48416614Y-77100500D01*
X48587702Y-77073402D01*
X48587706Y-77073401D01*
X48752438Y-77019876D01*
X48752440Y-77019874D01*
X48752445Y-77019873D01*
X48906788Y-76941232D01*
X49046928Y-76839414D01*
X49169414Y-76716928D01*
X49271232Y-76576788D01*
X49349873Y-76422445D01*
X49349874Y-76422440D01*
X49349876Y-76422438D01*
X49403401Y-76257706D01*
X49403402Y-76257702D01*
X49430500Y-76086614D01*
X49430500Y-75913385D01*
X64819500Y-75913385D01*
X64819500Y-76086614D01*
X64846597Y-76257702D01*
X64846598Y-76257706D01*
X64900123Y-76422438D01*
X64900125Y-76422441D01*
X64909064Y-76439986D01*
X64978768Y-76576788D01*
X65080586Y-76716928D01*
X65203072Y-76839414D01*
X65343212Y-76941232D01*
X65497555Y-77019873D01*
X65497557Y-77019873D01*
X65497558Y-77019874D01*
X65497561Y-77019876D01*
X65662293Y-77073401D01*
X65662297Y-77073402D01*
X65833386Y-77100500D01*
X65833389Y-77100500D01*
X66006614Y-77100500D01*
X66177702Y-77073402D01*
X66177706Y-77073401D01*
X66342438Y-77019876D01*
X66342440Y-77019874D01*
X66342445Y-77019873D01*
X66496788Y-76941232D01*
X66636928Y-76839414D01*
X66759414Y-76716928D01*
X66861232Y-76576788D01*
X66939873Y-76422445D01*
X66939874Y-76422440D01*
X66939876Y-76422438D01*
X66993401Y-76257706D01*
X66993402Y-76257702D01*
X67020500Y-76086614D01*
X67020500Y-75913386D01*
X67012795Y-75864740D01*
X67010855Y-75852493D01*
X68749500Y-75852493D01*
X68749500Y-75852494D01*
X68749500Y-76147506D01*
X68788007Y-76439993D01*
X68824660Y-76576785D01*
X68864361Y-76724953D01*
X68977253Y-76997499D01*
X68977255Y-76997503D01*
X68977257Y-76997507D01*
X69021075Y-77073402D01*
X69124764Y-77252997D01*
X69304348Y-77487035D01*
X69304350Y-77487037D01*
X69304354Y-77487042D01*
X69512958Y-77695646D01*
X69512962Y-77695649D01*
X69512964Y-77695651D01*
X69747002Y-77875235D01*
X69747006Y-77875238D01*
X70002493Y-78022743D01*
X70275048Y-78135639D01*
X70560007Y-78211993D01*
X70852494Y-78250500D01*
X70852495Y-78250500D01*
X71147505Y-78250500D01*
X71147506Y-78250500D01*
X71439993Y-78211993D01*
X71724952Y-78135639D01*
X71997507Y-78022743D01*
X72252994Y-77875238D01*
X72487042Y-77695646D01*
X72695646Y-77487042D01*
X72875238Y-77252994D01*
X73022743Y-76997507D01*
X73135639Y-76724952D01*
X73211993Y-76439993D01*
X73250500Y-76147506D01*
X73250500Y-75913385D01*
X74979500Y-75913385D01*
X74979500Y-76086614D01*
X75006597Y-76257702D01*
X75006598Y-76257706D01*
X75060123Y-76422438D01*
X75060125Y-76422441D01*
X75069064Y-76439986D01*
X75138768Y-76576788D01*
X75240586Y-76716928D01*
X75363072Y-76839414D01*
X75503212Y-76941232D01*
X75657555Y-77019873D01*
X75657557Y-77019873D01*
X75657558Y-77019874D01*
X75657561Y-77019876D01*
X75822293Y-77073401D01*
X75822297Y-77073402D01*
X75993386Y-77100500D01*
X75993389Y-77100500D01*
X76166614Y-77100500D01*
X76337702Y-77073402D01*
X76337706Y-77073401D01*
X76502438Y-77019876D01*
X76502440Y-77019874D01*
X76502445Y-77019873D01*
X76656788Y-76941232D01*
X76796928Y-76839414D01*
X76919414Y-76716928D01*
X77021232Y-76576788D01*
X77099873Y-76422445D01*
X77099874Y-76422440D01*
X77099876Y-76422438D01*
X77153401Y-76257706D01*
X77153402Y-76257702D01*
X77180500Y-76086614D01*
X77180500Y-75913385D01*
X77153402Y-75742297D01*
X77153401Y-75742293D01*
X77099876Y-75577561D01*
X77099874Y-75577558D01*
X77099873Y-75577557D01*
X77099873Y-75577555D01*
X77021232Y-75423212D01*
X76919414Y-75283072D01*
X76796928Y-75160586D01*
X76656788Y-75058768D01*
X76656787Y-75058767D01*
X76656785Y-75058766D01*
X76502441Y-74980125D01*
X76502438Y-74980123D01*
X76337706Y-74926598D01*
X76337702Y-74926597D01*
X76166614Y-74899500D01*
X76166611Y-74899500D01*
X75993389Y-74899500D01*
X75993386Y-74899500D01*
X75822297Y-74926597D01*
X75822293Y-74926598D01*
X75657561Y-74980123D01*
X75657558Y-74980125D01*
X75503214Y-75058766D01*
X75363073Y-75160585D01*
X75240585Y-75283073D01*
X75138766Y-75423214D01*
X75060125Y-75577558D01*
X75060123Y-75577561D01*
X75006598Y-75742293D01*
X75006597Y-75742297D01*
X74979500Y-75913385D01*
X73250500Y-75913385D01*
X73250500Y-75852494D01*
X73211993Y-75560007D01*
X73135639Y-75275048D01*
X73022743Y-75002493D01*
X72875238Y-74747006D01*
X72875235Y-74747002D01*
X72695651Y-74512964D01*
X72695649Y-74512962D01*
X72695646Y-74512958D01*
X72487042Y-74304354D01*
X72487037Y-74304350D01*
X72487035Y-74304348D01*
X72252997Y-74124764D01*
X72252784Y-74124641D01*
X71997507Y-73977257D01*
X71997503Y-73977255D01*
X71997499Y-73977253D01*
X71724953Y-73864361D01*
X71658183Y-73846470D01*
X71439993Y-73788007D01*
X71439986Y-73788006D01*
X71147506Y-73749500D01*
X70852494Y-73749500D01*
X70852493Y-73749500D01*
X70560013Y-73788006D01*
X70560011Y-73788006D01*
X70560007Y-73788007D01*
X70408584Y-73828580D01*
X70275046Y-73864361D01*
X70002500Y-73977253D01*
X69747002Y-74124764D01*
X69512964Y-74304348D01*
X69304348Y-74512964D01*
X69124764Y-74747002D01*
X68977253Y-75002500D01*
X68864361Y-75275046D01*
X68828580Y-75408584D01*
X68788007Y-75560007D01*
X68788006Y-75560011D01*
X68788006Y-75560013D01*
X68749500Y-75852493D01*
X67010855Y-75852493D01*
X66993402Y-75742297D01*
X66993401Y-75742293D01*
X66939876Y-75577561D01*
X66939874Y-75577558D01*
X66939873Y-75577557D01*
X66939873Y-75577555D01*
X66861232Y-75423212D01*
X66759414Y-75283072D01*
X66636928Y-75160586D01*
X66496788Y-75058768D01*
X66496787Y-75058767D01*
X66496785Y-75058766D01*
X66342441Y-74980125D01*
X66342438Y-74980123D01*
X66177706Y-74926598D01*
X66177702Y-74926597D01*
X66006614Y-74899500D01*
X66006611Y-74899500D01*
X65833389Y-74899500D01*
X65833386Y-74899500D01*
X65662297Y-74926597D01*
X65662293Y-74926598D01*
X65497561Y-74980123D01*
X65497558Y-74980125D01*
X65343214Y-75058766D01*
X65203073Y-75160585D01*
X65080585Y-75283073D01*
X64978766Y-75423214D01*
X64900125Y-75577558D01*
X64900123Y-75577561D01*
X64846598Y-75742293D01*
X64846597Y-75742297D01*
X64819500Y-75913385D01*
X49430500Y-75913385D01*
X49403402Y-75742297D01*
X49403401Y-75742293D01*
X49349876Y-75577561D01*
X49349874Y-75577558D01*
X49349873Y-75577557D01*
X49349873Y-75577555D01*
X49271232Y-75423212D01*
X49169414Y-75283072D01*
X49046928Y-75160586D01*
X48906788Y-75058768D01*
X48906787Y-75058767D01*
X48906785Y-75058766D01*
X48752441Y-74980125D01*
X48752438Y-74980123D01*
X48587706Y-74926598D01*
X48587702Y-74926597D01*
X48416614Y-74899500D01*
X48416611Y-74899500D01*
X48243389Y-74899500D01*
X48243386Y-74899500D01*
X48072297Y-74926597D01*
X48072293Y-74926598D01*
X47907561Y-74980123D01*
X47907558Y-74980125D01*
X47753214Y-75058766D01*
X47613073Y-75160585D01*
X47490585Y-75283073D01*
X47388766Y-75423214D01*
X47310125Y-75577558D01*
X47310123Y-75577561D01*
X47256598Y-75742293D01*
X47256597Y-75742297D01*
X47229500Y-75913385D01*
X45500500Y-75913385D01*
X45500500Y-75852494D01*
X45461993Y-75560007D01*
X45385639Y-75275048D01*
X45272743Y-75002493D01*
X45125238Y-74747006D01*
X44945646Y-74512958D01*
X44737042Y-74304354D01*
X44737037Y-74304350D01*
X44737035Y-74304348D01*
X44502997Y-74124764D01*
X44502784Y-74124641D01*
X44247507Y-73977257D01*
X44247503Y-73977255D01*
X44247499Y-73977253D01*
X43974953Y-73864361D01*
X43908183Y-73846470D01*
X43689993Y-73788007D01*
X43689986Y-73788006D01*
X43397506Y-73749500D01*
X43102494Y-73749500D01*
X43102493Y-73749500D01*
X42810013Y-73788006D01*
X42810011Y-73788006D01*
X42810007Y-73788007D01*
X42658584Y-73828580D01*
X42525046Y-73864361D01*
X42252500Y-73977253D01*
X41997002Y-74124764D01*
X41762964Y-74304348D01*
X41554348Y-74512964D01*
X41374764Y-74747002D01*
X41227253Y-75002500D01*
X41114361Y-75275046D01*
X41078580Y-75408584D01*
X41038007Y-75560007D01*
X41038006Y-75560011D01*
X41038006Y-75560013D01*
X40999500Y-75852493D01*
X39260855Y-75852493D01*
X39243402Y-75742297D01*
X39243401Y-75742293D01*
X39189876Y-75577561D01*
X39189874Y-75577558D01*
X39189873Y-75577557D01*
X39189873Y-75577555D01*
X39111232Y-75423212D01*
X39009414Y-75283072D01*
X38886928Y-75160586D01*
X38746788Y-75058768D01*
X38746787Y-75058767D01*
X38746785Y-75058766D01*
X38592441Y-74980125D01*
X38592438Y-74980123D01*
X38427706Y-74926598D01*
X38427702Y-74926597D01*
X38256614Y-74899500D01*
X38256611Y-74899500D01*
X38083389Y-74899500D01*
X38083386Y-74899500D01*
X37912297Y-74926597D01*
X37912293Y-74926598D01*
X37747561Y-74980123D01*
X37747558Y-74980125D01*
X37593214Y-75058766D01*
X37453073Y-75160585D01*
X37330585Y-75283073D01*
X37228766Y-75423214D01*
X37150125Y-75577558D01*
X37150123Y-75577561D01*
X37096598Y-75742293D01*
X37096597Y-75742297D01*
X37069500Y-75913385D01*
X21680500Y-75913385D01*
X21653402Y-75742297D01*
X21653401Y-75742293D01*
X21599876Y-75577561D01*
X21599874Y-75577558D01*
X21599873Y-75577557D01*
X21599873Y-75577555D01*
X21521232Y-75423212D01*
X21419414Y-75283072D01*
X21296928Y-75160586D01*
X21156788Y-75058768D01*
X21156787Y-75058767D01*
X21156785Y-75058766D01*
X21002441Y-74980125D01*
X21002438Y-74980123D01*
X20837706Y-74926598D01*
X20837702Y-74926597D01*
X20666614Y-74899500D01*
X20666611Y-74899500D01*
X20493389Y-74899500D01*
X20493386Y-74899500D01*
X20322297Y-74926597D01*
X20322293Y-74926598D01*
X20157561Y-74980123D01*
X20157558Y-74980125D01*
X20003214Y-75058766D01*
X19863073Y-75160585D01*
X19740585Y-75283073D01*
X19638766Y-75423214D01*
X19560125Y-75577558D01*
X19560123Y-75577561D01*
X19506598Y-75742293D01*
X19506597Y-75742297D01*
X19479500Y-75913385D01*
X17750500Y-75913385D01*
X17750500Y-75852494D01*
X17711993Y-75560007D01*
X17635639Y-75275048D01*
X17522743Y-75002493D01*
X17375238Y-74747006D01*
X17195646Y-74512958D01*
X16987042Y-74304354D01*
X16987037Y-74304350D01*
X16987035Y-74304348D01*
X16752997Y-74124764D01*
X16752784Y-74124641D01*
X16497507Y-73977257D01*
X16497503Y-73977255D01*
X16497499Y-73977253D01*
X16224953Y-73864361D01*
X16158183Y-73846470D01*
X15939993Y-73788007D01*
X15939986Y-73788006D01*
X15647506Y-73749500D01*
X15352494Y-73749500D01*
X15352493Y-73749500D01*
X15060013Y-73788006D01*
X15060011Y-73788006D01*
X15060007Y-73788007D01*
X14908584Y-73828580D01*
X14775046Y-73864361D01*
X14502500Y-73977253D01*
X14247002Y-74124764D01*
X14012964Y-74304348D01*
X13804348Y-74512964D01*
X13624764Y-74747002D01*
X13477253Y-75002500D01*
X13364361Y-75275046D01*
X13328580Y-75408584D01*
X13288007Y-75560007D01*
X13288006Y-75560011D01*
X13288006Y-75560013D01*
X13249500Y-75852493D01*
X11510855Y-75852493D01*
X11493402Y-75742297D01*
X11493401Y-75742293D01*
X11439876Y-75577561D01*
X11439874Y-75577558D01*
X11439873Y-75577557D01*
X11439873Y-75577555D01*
X11361232Y-75423212D01*
X11259414Y-75283072D01*
X11136928Y-75160586D01*
X10996788Y-75058768D01*
X10996787Y-75058767D01*
X10996785Y-75058766D01*
X10842441Y-74980125D01*
X10842438Y-74980123D01*
X10677706Y-74926598D01*
X10677702Y-74926597D01*
X10506614Y-74899500D01*
X10506611Y-74899500D01*
X10333389Y-74899500D01*
X10333386Y-74899500D01*
X10162297Y-74926597D01*
X10162293Y-74926598D01*
X9997561Y-74980123D01*
X9997558Y-74980125D01*
X9843214Y-75058766D01*
X9703073Y-75160585D01*
X9580585Y-75283073D01*
X9478766Y-75423214D01*
X9400125Y-75577558D01*
X9400123Y-75577561D01*
X9346598Y-75742293D01*
X9346597Y-75742297D01*
X9319500Y-75913385D01*
X500500Y-75913385D01*
X500500Y-73349814D01*
X10290000Y-73349814D01*
X10290000Y-73570185D01*
X10324471Y-73787829D01*
X10392569Y-73997413D01*
X10492612Y-74193759D01*
X10492614Y-74193763D01*
X10598442Y-74339423D01*
X11064310Y-73873554D01*
X11107437Y-73938097D01*
X11211903Y-74042563D01*
X11276443Y-74085687D01*
X10810575Y-74551556D01*
X10956236Y-74657385D01*
X10956240Y-74657387D01*
X11152586Y-74757430D01*
X11362170Y-74825528D01*
X11579815Y-74860000D01*
X11800185Y-74860000D01*
X12017829Y-74825528D01*
X12227413Y-74757430D01*
X12423757Y-74657388D01*
X12569422Y-74551555D01*
X12103555Y-74085688D01*
X12168097Y-74042563D01*
X12272563Y-73938097D01*
X12315688Y-73873555D01*
X12781555Y-74339422D01*
X12887388Y-74193757D01*
X12987430Y-73997413D01*
X13055528Y-73787829D01*
X13090000Y-73570185D01*
X13090000Y-73349814D01*
X38040000Y-73349814D01*
X38040000Y-73570185D01*
X38074471Y-73787829D01*
X38142569Y-73997413D01*
X38242612Y-74193759D01*
X38242614Y-74193763D01*
X38348442Y-74339423D01*
X38814310Y-73873554D01*
X38857437Y-73938097D01*
X38961903Y-74042563D01*
X39026443Y-74085687D01*
X38560575Y-74551556D01*
X38706236Y-74657385D01*
X38706240Y-74657387D01*
X38902586Y-74757430D01*
X39112170Y-74825528D01*
X39329815Y-74860000D01*
X39550185Y-74860000D01*
X39767829Y-74825528D01*
X39977413Y-74757430D01*
X40173757Y-74657388D01*
X40319422Y-74551555D01*
X39853555Y-74085688D01*
X39918097Y-74042563D01*
X40022563Y-73938097D01*
X40065688Y-73873555D01*
X40531555Y-74339422D01*
X40637388Y-74193757D01*
X40737430Y-73997413D01*
X40805528Y-73787829D01*
X40840000Y-73570185D01*
X40840000Y-73349814D01*
X65790000Y-73349814D01*
X65790000Y-73570185D01*
X65824471Y-73787829D01*
X65892569Y-73997413D01*
X65992612Y-74193759D01*
X65992614Y-74193763D01*
X66098442Y-74339423D01*
X66564310Y-73873554D01*
X66607437Y-73938097D01*
X66711903Y-74042563D01*
X66776443Y-74085687D01*
X66310575Y-74551556D01*
X66456236Y-74657385D01*
X66456240Y-74657387D01*
X66652586Y-74757430D01*
X66862170Y-74825528D01*
X67079815Y-74860000D01*
X67300185Y-74860000D01*
X67517829Y-74825528D01*
X67727413Y-74757430D01*
X67923757Y-74657388D01*
X68069422Y-74551555D01*
X67603555Y-74085688D01*
X67668097Y-74042563D01*
X67772563Y-73938097D01*
X67815688Y-73873555D01*
X68281555Y-74339422D01*
X68387388Y-74193757D01*
X68487430Y-73997413D01*
X68555528Y-73787829D01*
X68590000Y-73570185D01*
X68590000Y-73349814D01*
X68555528Y-73132170D01*
X68487430Y-72922586D01*
X68387387Y-72726240D01*
X68387385Y-72726236D01*
X68281556Y-72580575D01*
X67815687Y-73046443D01*
X67772563Y-72981903D01*
X67668097Y-72877437D01*
X67603554Y-72834310D01*
X68069423Y-72368442D01*
X67923763Y-72262614D01*
X67923759Y-72262612D01*
X67727413Y-72162569D01*
X67517829Y-72094471D01*
X67300185Y-72060000D01*
X67079815Y-72060000D01*
X66862170Y-72094471D01*
X66652586Y-72162569D01*
X66456241Y-72262612D01*
X66310575Y-72368442D01*
X66776444Y-72834311D01*
X66711903Y-72877437D01*
X66607437Y-72981903D01*
X66564311Y-73046444D01*
X66098442Y-72580575D01*
X65992612Y-72726241D01*
X65892569Y-72922586D01*
X65824471Y-73132170D01*
X65790000Y-73349814D01*
X40840000Y-73349814D01*
X40805528Y-73132170D01*
X40737430Y-72922586D01*
X40637387Y-72726240D01*
X40637385Y-72726236D01*
X40531556Y-72580575D01*
X40065687Y-73046443D01*
X40022563Y-72981903D01*
X39918097Y-72877437D01*
X39853554Y-72834310D01*
X40319423Y-72368442D01*
X40173763Y-72262614D01*
X40173759Y-72262612D01*
X39977413Y-72162569D01*
X39767829Y-72094471D01*
X39550185Y-72060000D01*
X39329815Y-72060000D01*
X39112170Y-72094471D01*
X38902586Y-72162569D01*
X38706241Y-72262612D01*
X38560575Y-72368442D01*
X39026444Y-72834311D01*
X38961903Y-72877437D01*
X38857437Y-72981903D01*
X38814311Y-73046444D01*
X38348442Y-72580575D01*
X38242612Y-72726241D01*
X38142569Y-72922586D01*
X38074471Y-73132170D01*
X38040000Y-73349814D01*
X13090000Y-73349814D01*
X13055528Y-73132170D01*
X12987430Y-72922586D01*
X12887387Y-72726240D01*
X12887385Y-72726236D01*
X12781556Y-72580575D01*
X12315687Y-73046443D01*
X12272563Y-72981903D01*
X12168097Y-72877437D01*
X12103554Y-72834310D01*
X12569423Y-72368442D01*
X12423763Y-72262614D01*
X12423759Y-72262612D01*
X12227413Y-72162569D01*
X12017829Y-72094471D01*
X11800185Y-72060000D01*
X11579815Y-72060000D01*
X11362170Y-72094471D01*
X11152586Y-72162569D01*
X10956241Y-72262612D01*
X10810575Y-72368442D01*
X11276444Y-72834311D01*
X11211903Y-72877437D01*
X11107437Y-72981903D01*
X11064311Y-73046444D01*
X10598442Y-72580575D01*
X10492612Y-72726241D01*
X10392569Y-72922586D01*
X10324471Y-73132170D01*
X10290000Y-73349814D01*
X500500Y-73349814D01*
X500500Y-43413385D01*
X9319500Y-43413385D01*
X9319500Y-43586614D01*
X9346597Y-43757702D01*
X9346598Y-43757706D01*
X9400123Y-43922438D01*
X9400125Y-43922441D01*
X9470144Y-44059864D01*
X9478768Y-44076788D01*
X9580586Y-44216928D01*
X9703072Y-44339414D01*
X9843212Y-44441232D01*
X9997555Y-44519873D01*
X9997557Y-44519873D01*
X9997558Y-44519874D01*
X9997561Y-44519876D01*
X10162293Y-44573401D01*
X10162297Y-44573402D01*
X10333386Y-44600500D01*
X10333389Y-44600500D01*
X10506614Y-44600500D01*
X10677702Y-44573402D01*
X10677706Y-44573401D01*
X10842438Y-44519876D01*
X10842440Y-44519874D01*
X10842445Y-44519873D01*
X10996788Y-44441232D01*
X11136928Y-44339414D01*
X11259414Y-44216928D01*
X11361232Y-44076788D01*
X11439873Y-43922445D01*
X11439874Y-43922440D01*
X11439876Y-43922438D01*
X11493401Y-43757706D01*
X11493402Y-43757702D01*
X11520500Y-43586614D01*
X11520500Y-43413386D01*
X11512795Y-43364740D01*
X11510855Y-43352493D01*
X13249500Y-43352493D01*
X13249500Y-43352494D01*
X13249500Y-43647506D01*
X13288007Y-43939993D01*
X13324660Y-44076785D01*
X13364361Y-44224953D01*
X13477253Y-44497499D01*
X13477255Y-44497503D01*
X13477257Y-44497507D01*
X13521075Y-44573402D01*
X13624764Y-44752997D01*
X13804348Y-44987035D01*
X13804350Y-44987037D01*
X13804354Y-44987042D01*
X14012958Y-45195646D01*
X14012962Y-45195649D01*
X14012964Y-45195651D01*
X14247002Y-45375235D01*
X14247006Y-45375238D01*
X14502493Y-45522743D01*
X14775048Y-45635639D01*
X15060007Y-45711993D01*
X15352494Y-45750500D01*
X15352495Y-45750500D01*
X15647505Y-45750500D01*
X15647506Y-45750500D01*
X15939993Y-45711993D01*
X16224952Y-45635639D01*
X16497507Y-45522743D01*
X16752994Y-45375238D01*
X16987042Y-45195646D01*
X17195646Y-44987042D01*
X17375238Y-44752994D01*
X17522743Y-44497507D01*
X17635639Y-44224952D01*
X17711993Y-43939993D01*
X17750500Y-43647506D01*
X17750500Y-43413385D01*
X19479500Y-43413385D01*
X19479500Y-43586614D01*
X19506597Y-43757702D01*
X19506598Y-43757706D01*
X19560123Y-43922438D01*
X19560125Y-43922441D01*
X19630144Y-44059864D01*
X19638768Y-44076788D01*
X19740586Y-44216928D01*
X19863072Y-44339414D01*
X20003212Y-44441232D01*
X20157555Y-44519873D01*
X20157557Y-44519873D01*
X20157558Y-44519874D01*
X20157561Y-44519876D01*
X20322293Y-44573401D01*
X20322297Y-44573402D01*
X20493386Y-44600500D01*
X20493389Y-44600500D01*
X20666614Y-44600500D01*
X20837702Y-44573402D01*
X20837706Y-44573401D01*
X21002438Y-44519876D01*
X21002440Y-44519874D01*
X21002445Y-44519873D01*
X21156788Y-44441232D01*
X21296928Y-44339414D01*
X21419414Y-44216928D01*
X21521232Y-44076788D01*
X21599873Y-43922445D01*
X21599874Y-43922440D01*
X21599876Y-43922438D01*
X21653401Y-43757706D01*
X21653402Y-43757702D01*
X21680500Y-43586614D01*
X21680500Y-43413385D01*
X21653402Y-43242297D01*
X21653401Y-43242293D01*
X21599876Y-43077561D01*
X21599874Y-43077558D01*
X21599873Y-43077557D01*
X21599873Y-43077555D01*
X21521232Y-42923212D01*
X21419414Y-42783072D01*
X21296928Y-42660586D01*
X21156788Y-42558768D01*
X21156787Y-42558767D01*
X21156785Y-42558766D01*
X21002441Y-42480125D01*
X21002438Y-42480123D01*
X20837706Y-42426598D01*
X20837702Y-42426597D01*
X20666614Y-42399500D01*
X20666611Y-42399500D01*
X20493389Y-42399500D01*
X20493386Y-42399500D01*
X20322297Y-42426597D01*
X20322293Y-42426598D01*
X20157561Y-42480123D01*
X20157558Y-42480125D01*
X20003214Y-42558766D01*
X19863073Y-42660585D01*
X19740585Y-42783073D01*
X19638766Y-42923214D01*
X19560125Y-43077558D01*
X19560123Y-43077561D01*
X19506598Y-43242293D01*
X19506597Y-43242297D01*
X19479500Y-43413385D01*
X17750500Y-43413385D01*
X17750500Y-43352494D01*
X17711993Y-43060007D01*
X17635639Y-42775048D01*
X17522743Y-42502493D01*
X17375238Y-42247006D01*
X17375235Y-42247002D01*
X17195651Y-42012964D01*
X17195649Y-42012962D01*
X17195646Y-42012958D01*
X16987042Y-41804354D01*
X16987037Y-41804350D01*
X16987035Y-41804348D01*
X16752997Y-41624764D01*
X16718872Y-41605062D01*
X16497507Y-41477257D01*
X16497503Y-41477255D01*
X16497499Y-41477253D01*
X16224953Y-41364361D01*
X16158183Y-41346470D01*
X15939993Y-41288007D01*
X15939986Y-41288006D01*
X15647506Y-41249500D01*
X15352494Y-41249500D01*
X15352493Y-41249500D01*
X15060013Y-41288006D01*
X15060011Y-41288006D01*
X15060007Y-41288007D01*
X14908584Y-41328580D01*
X14775046Y-41364361D01*
X14502500Y-41477253D01*
X14247002Y-41624764D01*
X14012964Y-41804348D01*
X13804348Y-42012964D01*
X13624764Y-42247002D01*
X13477253Y-42502500D01*
X13364361Y-42775046D01*
X13328580Y-42908584D01*
X13288007Y-43060007D01*
X13288006Y-43060011D01*
X13288006Y-43060013D01*
X13249500Y-43352493D01*
X11510855Y-43352493D01*
X11493402Y-43242297D01*
X11493401Y-43242293D01*
X11439876Y-43077561D01*
X11439874Y-43077558D01*
X11439873Y-43077557D01*
X11439873Y-43077555D01*
X11361232Y-42923212D01*
X11259414Y-42783072D01*
X11136928Y-42660586D01*
X10996788Y-42558768D01*
X10996787Y-42558767D01*
X10996785Y-42558766D01*
X10842441Y-42480125D01*
X10842438Y-42480123D01*
X10677706Y-42426598D01*
X10677702Y-42426597D01*
X10506614Y-42399500D01*
X10506611Y-42399500D01*
X10333389Y-42399500D01*
X10333386Y-42399500D01*
X10162297Y-42426597D01*
X10162293Y-42426598D01*
X9997561Y-42480123D01*
X9997558Y-42480125D01*
X9843214Y-42558766D01*
X9703073Y-42660585D01*
X9580585Y-42783073D01*
X9478766Y-42923214D01*
X9400125Y-43077558D01*
X9400123Y-43077561D01*
X9346598Y-43242293D01*
X9346597Y-43242297D01*
X9319500Y-43413385D01*
X500500Y-43413385D01*
X500500Y-40849814D01*
X10290000Y-40849814D01*
X10290000Y-41070185D01*
X10324471Y-41287829D01*
X10392569Y-41497413D01*
X10492612Y-41693759D01*
X10492614Y-41693763D01*
X10598442Y-41839423D01*
X11064310Y-41373554D01*
X11107437Y-41438097D01*
X11211903Y-41542563D01*
X11276443Y-41585687D01*
X10810575Y-42051556D01*
X10956236Y-42157385D01*
X10956240Y-42157387D01*
X11152586Y-42257430D01*
X11362170Y-42325528D01*
X11579815Y-42360000D01*
X11800185Y-42360000D01*
X12017829Y-42325528D01*
X12227413Y-42257430D01*
X12423757Y-42157388D01*
X12569422Y-42051555D01*
X12103555Y-41585688D01*
X12168097Y-41542563D01*
X12272563Y-41438097D01*
X12315688Y-41373555D01*
X12781555Y-41839422D01*
X12887388Y-41693757D01*
X12987430Y-41497413D01*
X13055528Y-41287829D01*
X13090000Y-41070185D01*
X13090000Y-40849814D01*
X13055528Y-40632170D01*
X12987430Y-40422586D01*
X12887387Y-40226240D01*
X12887385Y-40226236D01*
X12781556Y-40080575D01*
X12315687Y-40546443D01*
X12272563Y-40481903D01*
X12168097Y-40377437D01*
X12103554Y-40334310D01*
X12569423Y-39868442D01*
X12423763Y-39762614D01*
X12423759Y-39762612D01*
X12227413Y-39662569D01*
X12017829Y-39594471D01*
X11800185Y-39560000D01*
X11579815Y-39560000D01*
X11362170Y-39594471D01*
X11152586Y-39662569D01*
X10956241Y-39762612D01*
X10810575Y-39868442D01*
X11276444Y-40334311D01*
X11211903Y-40377437D01*
X11107437Y-40481903D01*
X11064311Y-40546444D01*
X10598442Y-40080575D01*
X10492612Y-40226241D01*
X10392569Y-40422586D01*
X10324471Y-40632170D01*
X10290000Y-40849814D01*
X500500Y-40849814D01*
X500500Y-20575327D01*
X13899500Y-20575327D01*
X13899500Y-22624672D01*
X13899501Y-22624684D01*
X13914033Y-22697736D01*
X13914035Y-22697742D01*
X13969397Y-22780599D01*
X13969399Y-22780601D01*
X14052260Y-22835966D01*
X14107808Y-22847015D01*
X14125315Y-22850498D01*
X14125320Y-22850498D01*
X14125326Y-22850500D01*
X14125327Y-22850500D01*
X17374673Y-22850500D01*
X17374674Y-22850500D01*
X17447740Y-22835966D01*
X17530601Y-22780601D01*
X17585966Y-22697740D01*
X17600500Y-22624674D01*
X17600500Y-20575326D01*
X17585966Y-20502260D01*
X17530601Y-20419399D01*
X17530599Y-20419397D01*
X17447742Y-20364035D01*
X17447740Y-20364034D01*
X17447737Y-20364033D01*
X17447736Y-20364033D01*
X17374684Y-20349501D01*
X17374674Y-20349500D01*
X14125326Y-20349500D01*
X14125325Y-20349500D01*
X14125315Y-20349501D01*
X14052263Y-20364033D01*
X14052257Y-20364035D01*
X13969400Y-20419397D01*
X13969397Y-20419400D01*
X13914035Y-20502257D01*
X13914033Y-20502263D01*
X13899501Y-20575315D01*
X13899500Y-20575327D01*
X500500Y-20575327D01*
X500500Y-15897684D01*
X6950000Y-15897684D01*
X6950000Y-16102315D01*
X6982008Y-16304412D01*
X7045243Y-16499027D01*
X7138139Y-16681348D01*
X7138141Y-16681352D01*
X7230034Y-16807831D01*
X7806328Y-16231536D01*
X7849901Y-16307007D01*
X7942993Y-16400099D01*
X8018460Y-16443670D01*
X7442167Y-17019963D01*
X7568653Y-17111861D01*
X7721161Y-17189567D01*
X7764425Y-17232832D01*
X7773997Y-17293264D01*
X7746220Y-17347780D01*
X7721161Y-17365987D01*
X7594597Y-17430474D01*
X7435355Y-17546171D01*
X7296171Y-17685355D01*
X7180474Y-17844597D01*
X7091116Y-18019974D01*
X7030289Y-18207178D01*
X6999500Y-18401579D01*
X6999500Y-18598420D01*
X7030289Y-18792821D01*
X7091116Y-18980025D01*
X7172563Y-19139876D01*
X7180476Y-19155405D01*
X7296172Y-19314646D01*
X7435354Y-19453828D01*
X7594595Y-19569524D01*
X7769975Y-19658884D01*
X7957174Y-19719709D01*
X7957175Y-19719709D01*
X7957178Y-19719710D01*
X8151580Y-19750500D01*
X8151583Y-19750500D01*
X8348420Y-19750500D01*
X8542821Y-19719710D01*
X8542822Y-19719709D01*
X8542826Y-19719709D01*
X8730025Y-19658884D01*
X8905405Y-19569524D01*
X9064646Y-19453828D01*
X9203828Y-19314646D01*
X9319524Y-19155405D01*
X9408884Y-18980025D01*
X9469709Y-18792826D01*
X9469710Y-18792821D01*
X9500500Y-18598420D01*
X9500500Y-18401579D01*
X21499500Y-18401579D01*
X21499500Y-18598420D01*
X21530289Y-18792821D01*
X21591116Y-18980025D01*
X21672563Y-19139876D01*
X21680476Y-19155405D01*
X21796172Y-19314646D01*
X21935354Y-19453828D01*
X22094595Y-19569524D01*
X22269975Y-19658884D01*
X22457174Y-19719709D01*
X22457175Y-19719709D01*
X22457178Y-19719710D01*
X22651580Y-19750500D01*
X22651583Y-19750500D01*
X22848420Y-19750500D01*
X23019618Y-19723385D01*
X26399500Y-19723385D01*
X26399500Y-19896614D01*
X26426597Y-20067702D01*
X26426598Y-20067706D01*
X26480123Y-20232438D01*
X26480125Y-20232441D01*
X26547174Y-20364035D01*
X26558768Y-20386788D01*
X26660586Y-20526928D01*
X26783072Y-20649414D01*
X26923212Y-20751232D01*
X27077555Y-20829873D01*
X27077557Y-20829873D01*
X27077558Y-20829874D01*
X27077561Y-20829876D01*
X27242293Y-20883401D01*
X27242297Y-20883402D01*
X27413386Y-20910500D01*
X27413389Y-20910500D01*
X27586614Y-20910500D01*
X27757702Y-20883402D01*
X27757706Y-20883401D01*
X27922438Y-20829876D01*
X27922440Y-20829874D01*
X27922445Y-20829873D01*
X28076788Y-20751232D01*
X28216928Y-20649414D01*
X28339414Y-20526928D01*
X28441232Y-20386788D01*
X28519873Y-20232445D01*
X28519874Y-20232440D01*
X28519876Y-20232438D01*
X28573401Y-20067706D01*
X28573402Y-20067702D01*
X28600500Y-19896614D01*
X28600500Y-19724500D01*
X28619407Y-19666309D01*
X28668907Y-19630345D01*
X28699500Y-19625500D01*
X43049436Y-19625500D01*
X43097186Y-19612705D01*
X43097187Y-19612705D01*
X43144934Y-19599911D01*
X43144933Y-19599911D01*
X43144938Y-19599910D01*
X43230562Y-19550475D01*
X43300475Y-19480562D01*
X43376541Y-19404496D01*
X43431058Y-19376719D01*
X43446545Y-19375500D01*
X46299436Y-19375500D01*
X46347186Y-19362705D01*
X46347187Y-19362705D01*
X46394934Y-19349911D01*
X46394933Y-19349911D01*
X46394938Y-19349910D01*
X46480562Y-19300475D01*
X46550475Y-19230562D01*
X46550474Y-19230562D01*
X48531886Y-17249151D01*
X49201542Y-16579496D01*
X49256059Y-16551719D01*
X49271546Y-16550500D01*
X49322474Y-16550500D01*
X49322475Y-16550500D01*
X49462485Y-16512984D01*
X49462487Y-16512982D01*
X49462489Y-16512982D01*
X49588010Y-16440512D01*
X49588010Y-16440511D01*
X49588015Y-16440509D01*
X49690509Y-16338015D01*
X49695849Y-16328766D01*
X49762982Y-16212489D01*
X49762982Y-16212487D01*
X49762984Y-16212485D01*
X49800500Y-16072475D01*
X49800500Y-15927525D01*
X49762984Y-15787515D01*
X49762982Y-15787512D01*
X49762982Y-15787510D01*
X49690512Y-15661989D01*
X49690510Y-15661987D01*
X49690509Y-15661985D01*
X49588015Y-15559491D01*
X49588012Y-15559489D01*
X49588010Y-15559487D01*
X49462488Y-15487017D01*
X49462489Y-15487017D01*
X49432896Y-15479087D01*
X49322475Y-15449500D01*
X49177525Y-15449500D01*
X49115790Y-15466041D01*
X49037510Y-15487017D01*
X48911989Y-15559487D01*
X48809487Y-15661989D01*
X48737017Y-15787510D01*
X48699500Y-15927525D01*
X48699500Y-15978454D01*
X48680593Y-16036645D01*
X48670504Y-16048458D01*
X46123459Y-18595504D01*
X46068942Y-18623281D01*
X46053455Y-18624500D01*
X43299436Y-18624500D01*
X43200564Y-18624500D01*
X43152813Y-18637295D01*
X43152812Y-18637294D01*
X43105062Y-18650089D01*
X43105058Y-18650091D01*
X43019436Y-18699525D01*
X43019437Y-18699526D01*
X42873459Y-18845504D01*
X42818942Y-18873281D01*
X42803455Y-18874500D01*
X28111806Y-18874500D01*
X28066861Y-18863710D01*
X27922441Y-18790125D01*
X27922438Y-18790123D01*
X27757706Y-18736598D01*
X27757702Y-18736597D01*
X27586614Y-18709500D01*
X27586611Y-18709500D01*
X27413389Y-18709500D01*
X27413386Y-18709500D01*
X27242297Y-18736597D01*
X27242293Y-18736598D01*
X27077561Y-18790123D01*
X27077558Y-18790125D01*
X26923214Y-18868766D01*
X26783073Y-18970585D01*
X26660585Y-19093073D01*
X26558766Y-19233214D01*
X26480125Y-19387558D01*
X26480123Y-19387561D01*
X26426598Y-19552293D01*
X26426597Y-19552297D01*
X26399500Y-19723385D01*
X23019618Y-19723385D01*
X23042821Y-19719710D01*
X23042822Y-19719709D01*
X23042826Y-19719709D01*
X23230025Y-19658884D01*
X23286037Y-19630345D01*
X23320657Y-19612705D01*
X23405405Y-19569524D01*
X23564646Y-19453828D01*
X23703828Y-19314646D01*
X23819524Y-19155405D01*
X23908884Y-18980025D01*
X23969709Y-18792826D01*
X23969710Y-18792821D01*
X24000500Y-18598420D01*
X24000500Y-18401579D01*
X23969710Y-18207178D01*
X23969526Y-18206611D01*
X23908884Y-18019975D01*
X23819524Y-17844595D01*
X23703828Y-17685354D01*
X23564646Y-17546172D01*
X23405405Y-17430476D01*
X23405404Y-17430475D01*
X23405402Y-17430474D01*
X23230025Y-17341116D01*
X23042821Y-17280289D01*
X23023818Y-17277280D01*
X22848420Y-17249500D01*
X22848417Y-17249500D01*
X22651583Y-17249500D01*
X22651580Y-17249500D01*
X22457178Y-17280289D01*
X22269974Y-17341116D01*
X22094597Y-17430474D01*
X21935355Y-17546171D01*
X21796171Y-17685355D01*
X21680474Y-17844597D01*
X21591116Y-18019974D01*
X21530289Y-18207178D01*
X21499500Y-18401579D01*
X9500500Y-18401579D01*
X9469710Y-18207178D01*
X9469526Y-18206611D01*
X9408884Y-18019975D01*
X9319524Y-17844595D01*
X9203828Y-17685354D01*
X9064646Y-17546172D01*
X8905405Y-17430476D01*
X8905404Y-17430475D01*
X8905402Y-17430474D01*
X8778838Y-17365987D01*
X8735573Y-17322722D01*
X8726002Y-17262290D01*
X8753779Y-17207773D01*
X8778839Y-17189567D01*
X8790972Y-17183385D01*
X26399500Y-17183385D01*
X26399500Y-17356614D01*
X26426597Y-17527702D01*
X26426598Y-17527706D01*
X26480123Y-17692438D01*
X26480125Y-17692441D01*
X26557651Y-17844597D01*
X26558768Y-17846788D01*
X26660586Y-17986928D01*
X26783072Y-18109414D01*
X26923212Y-18211232D01*
X27077555Y-18289873D01*
X27077557Y-18289873D01*
X27077558Y-18289874D01*
X27077561Y-18289876D01*
X27242293Y-18343401D01*
X27242297Y-18343402D01*
X27413386Y-18370500D01*
X27413389Y-18370500D01*
X27586614Y-18370500D01*
X27757702Y-18343402D01*
X27757706Y-18343401D01*
X27922438Y-18289876D01*
X27922440Y-18289874D01*
X27922445Y-18289873D01*
X28076788Y-18211232D01*
X28216928Y-18109414D01*
X28339414Y-17986928D01*
X28441232Y-17846788D01*
X28519873Y-17692445D01*
X28519874Y-17692440D01*
X28519876Y-17692438D01*
X28573401Y-17527706D01*
X28573402Y-17527702D01*
X28600500Y-17356614D01*
X28600500Y-17183385D01*
X28573402Y-17012297D01*
X28573401Y-17012293D01*
X28519876Y-16847561D01*
X28519874Y-16847558D01*
X28519873Y-16847557D01*
X28519873Y-16847555D01*
X28441232Y-16693212D01*
X28339414Y-16553072D01*
X28216928Y-16430586D01*
X28076788Y-16328768D01*
X28076787Y-16328767D01*
X28076785Y-16328766D01*
X27922441Y-16250125D01*
X27922438Y-16250123D01*
X27757706Y-16196598D01*
X27757702Y-16196597D01*
X27586614Y-16169500D01*
X27586611Y-16169500D01*
X27413389Y-16169500D01*
X27413386Y-16169500D01*
X27242297Y-16196597D01*
X27242293Y-16196598D01*
X27077561Y-16250123D01*
X27077558Y-16250125D01*
X26923214Y-16328766D01*
X26783073Y-16430585D01*
X26660585Y-16553073D01*
X26558766Y-16693214D01*
X26480125Y-16847558D01*
X26480123Y-16847561D01*
X26426598Y-17012293D01*
X26426597Y-17012297D01*
X26399500Y-17183385D01*
X8790972Y-17183385D01*
X8931343Y-17111863D01*
X8931354Y-17111856D01*
X9057831Y-17019964D01*
X9057831Y-17019963D01*
X8481538Y-16443670D01*
X8557007Y-16400099D01*
X8650099Y-16307007D01*
X8693670Y-16231538D01*
X9269963Y-16807831D01*
X9269964Y-16807831D01*
X9361856Y-16681354D01*
X9361860Y-16681348D01*
X9454756Y-16499027D01*
X9517991Y-16304412D01*
X9550000Y-16102315D01*
X9550000Y-15897684D01*
X9517991Y-15695587D01*
X9454756Y-15500972D01*
X9361861Y-15318653D01*
X9269963Y-15192167D01*
X8693670Y-15768460D01*
X8650099Y-15692993D01*
X8557007Y-15599901D01*
X8481536Y-15556328D01*
X9057831Y-14980034D01*
X8988405Y-14929593D01*
X8952441Y-14880093D01*
X8952440Y-14818908D01*
X8988404Y-14769408D01*
X9046595Y-14750500D01*
X9274673Y-14750500D01*
X9274674Y-14750500D01*
X9347740Y-14735966D01*
X9430601Y-14680601D01*
X9485966Y-14597740D01*
X9500500Y-14524674D01*
X9500500Y-13397684D01*
X21450000Y-13397684D01*
X21450000Y-13602315D01*
X21482008Y-13804412D01*
X21545243Y-13999027D01*
X21638139Y-14181348D01*
X21638141Y-14181352D01*
X21730034Y-14307831D01*
X22306328Y-13731536D01*
X22349901Y-13807007D01*
X22442993Y-13900099D01*
X22518460Y-13943670D01*
X21942167Y-14519963D01*
X22068653Y-14611861D01*
X22250972Y-14704756D01*
X22445587Y-14767991D01*
X22647685Y-14800000D01*
X22852315Y-14800000D01*
X23054412Y-14767991D01*
X23249027Y-14704756D01*
X23431348Y-14611860D01*
X23431354Y-14611856D01*
X23557831Y-14519964D01*
X23557831Y-14519963D01*
X22981538Y-13943670D01*
X23057007Y-13900099D01*
X23150099Y-13807007D01*
X23193670Y-13731538D01*
X23769963Y-14307831D01*
X23769964Y-14307831D01*
X23861856Y-14181354D01*
X23861860Y-14181348D01*
X23954756Y-13999027D01*
X24017991Y-13804412D01*
X24050000Y-13602315D01*
X24050000Y-13397684D01*
X24017991Y-13195587D01*
X23954756Y-13000972D01*
X23861861Y-12818653D01*
X23769963Y-12692167D01*
X23193670Y-13268460D01*
X23150099Y-13192993D01*
X23057007Y-13099901D01*
X22981536Y-13056328D01*
X23557831Y-12480034D01*
X23431352Y-12388141D01*
X23431348Y-12388139D01*
X23429510Y-12387203D01*
X23249027Y-12295243D01*
X23054412Y-12232008D01*
X22852315Y-12200000D01*
X22647685Y-12200000D01*
X22445587Y-12232008D01*
X22250972Y-12295243D01*
X22068651Y-12388139D01*
X22068647Y-12388141D01*
X21942167Y-12480034D01*
X22518461Y-13056328D01*
X22442993Y-13099901D01*
X22349901Y-13192993D01*
X22306328Y-13268461D01*
X21730034Y-12692167D01*
X21638141Y-12818647D01*
X21638139Y-12818651D01*
X21545243Y-13000972D01*
X21482008Y-13195587D01*
X21450000Y-13397684D01*
X9500500Y-13397684D01*
X9500500Y-12475326D01*
X9485966Y-12402260D01*
X9475905Y-12387203D01*
X9430602Y-12319400D01*
X9430599Y-12319397D01*
X9347742Y-12264035D01*
X9347740Y-12264034D01*
X9347737Y-12264033D01*
X9347736Y-12264033D01*
X9274684Y-12249501D01*
X9274674Y-12249500D01*
X7225326Y-12249500D01*
X7225325Y-12249500D01*
X7225315Y-12249501D01*
X7152263Y-12264033D01*
X7152257Y-12264035D01*
X7069400Y-12319397D01*
X7069397Y-12319400D01*
X7014035Y-12402257D01*
X7014033Y-12402263D01*
X6999501Y-12475315D01*
X6999500Y-12475327D01*
X6999500Y-14524672D01*
X6999501Y-14524684D01*
X7014033Y-14597736D01*
X7014035Y-14597742D01*
X7069397Y-14680599D01*
X7069399Y-14680601D01*
X7152260Y-14735966D01*
X7207808Y-14747015D01*
X7225315Y-14750498D01*
X7225320Y-14750498D01*
X7225326Y-14750500D01*
X7225327Y-14750500D01*
X7453405Y-14750500D01*
X7511596Y-14769407D01*
X7547560Y-14818907D01*
X7547560Y-14880093D01*
X7511596Y-14929593D01*
X7511595Y-14929593D01*
X7442167Y-14980034D01*
X8018461Y-15556328D01*
X7942993Y-15599901D01*
X7849901Y-15692993D01*
X7806328Y-15768461D01*
X7230034Y-15192167D01*
X7138141Y-15318647D01*
X7138139Y-15318651D01*
X7045243Y-15500972D01*
X6982008Y-15695587D01*
X6950000Y-15897684D01*
X500500Y-15897684D01*
X500500Y-9375327D01*
X13899500Y-9375327D01*
X13899500Y-11424672D01*
X13899501Y-11424684D01*
X13914033Y-11497736D01*
X13914035Y-11497742D01*
X13969397Y-11580599D01*
X13969400Y-11580602D01*
X13999180Y-11600500D01*
X14052260Y-11635966D01*
X14107808Y-11647015D01*
X14125315Y-11650498D01*
X14125320Y-11650498D01*
X14125326Y-11650500D01*
X14125327Y-11650500D01*
X17374673Y-11650500D01*
X17374674Y-11650500D01*
X17447740Y-11635966D01*
X17530601Y-11580601D01*
X17585966Y-11497740D01*
X17600500Y-11424674D01*
X17600500Y-11295202D01*
X26350000Y-11295202D01*
X26350000Y-12039999D01*
X26350001Y-12040000D01*
X27022555Y-12040000D01*
X27000000Y-12124174D01*
X27000000Y-12255826D01*
X27022555Y-12340000D01*
X26350002Y-12340000D01*
X26350001Y-12340001D01*
X26350001Y-13084791D01*
X26352909Y-13109874D01*
X26398213Y-13212477D01*
X26477522Y-13291786D01*
X26580127Y-13337090D01*
X26605203Y-13339999D01*
X27349998Y-13339999D01*
X27350000Y-13339998D01*
X27350000Y-12667445D01*
X27434174Y-12690000D01*
X27565826Y-12690000D01*
X27650000Y-12667445D01*
X27650000Y-13339998D01*
X27650001Y-13339999D01*
X28394790Y-13339999D01*
X28394791Y-13339998D01*
X28419874Y-13337090D01*
X28522477Y-13291786D01*
X28601786Y-13212477D01*
X28647090Y-13109872D01*
X28649999Y-13084797D01*
X28650000Y-13084795D01*
X28650000Y-12340001D01*
X28649999Y-12340000D01*
X27977445Y-12340000D01*
X28000000Y-12255826D01*
X28000000Y-12124174D01*
X27977445Y-12040000D01*
X28649998Y-12040000D01*
X28649999Y-12039999D01*
X28649999Y-11295210D01*
X28649998Y-11295208D01*
X28647090Y-11270125D01*
X28601786Y-11167522D01*
X28522477Y-11088213D01*
X28419872Y-11042909D01*
X28394797Y-11040000D01*
X27650001Y-11040000D01*
X27650000Y-11040001D01*
X27650000Y-11712554D01*
X27565826Y-11690000D01*
X27434174Y-11690000D01*
X27350000Y-11712554D01*
X27350000Y-11040001D01*
X27349999Y-11040000D01*
X26605210Y-11040000D01*
X26605207Y-11040001D01*
X26580125Y-11042909D01*
X26477522Y-11088213D01*
X26398213Y-11167522D01*
X26352909Y-11270127D01*
X26350000Y-11295202D01*
X17600500Y-11295202D01*
X17600500Y-9375326D01*
X17600128Y-9373458D01*
X17594361Y-9344462D01*
X17585966Y-9302260D01*
X17530601Y-9219399D01*
X17530599Y-9219397D01*
X17447742Y-9164035D01*
X17447740Y-9164034D01*
X17447737Y-9164033D01*
X17447736Y-9164033D01*
X17374684Y-9149501D01*
X17374674Y-9149500D01*
X14125326Y-9149500D01*
X14125325Y-9149500D01*
X14125315Y-9149501D01*
X14052263Y-9164033D01*
X14052257Y-9164035D01*
X13969400Y-9219397D01*
X13969397Y-9219400D01*
X13914035Y-9302257D01*
X13914033Y-9302263D01*
X13899501Y-9375315D01*
X13899500Y-9375327D01*
X500500Y-9375327D01*
X500500Y-4378710D01*
X2649500Y-4378710D01*
X2649500Y-4621289D01*
X2681161Y-4861781D01*
X2681161Y-4861786D01*
X2743944Y-5096092D01*
X2743948Y-5096105D01*
X2836772Y-5320204D01*
X2836774Y-5320208D01*
X2836776Y-5320212D01*
X2958064Y-5530289D01*
X2958066Y-5530292D01*
X3105729Y-5722731D01*
X3105731Y-5722733D01*
X3105735Y-5722738D01*
X3277262Y-5894265D01*
X3277266Y-5894268D01*
X3277268Y-5894270D01*
X3410869Y-5996785D01*
X3469711Y-6041936D01*
X3679788Y-6163224D01*
X3679794Y-6163226D01*
X3679795Y-6163227D01*
X3716406Y-6178391D01*
X3903900Y-6256054D01*
X4138211Y-6318838D01*
X4378712Y-6350500D01*
X4378713Y-6350500D01*
X4621287Y-6350500D01*
X4621288Y-6350500D01*
X4861789Y-6318838D01*
X5096100Y-6256054D01*
X5320212Y-6163224D01*
X5530289Y-6041936D01*
X5722738Y-5894265D01*
X5894265Y-5722738D01*
X6041936Y-5530289D01*
X6163224Y-5320212D01*
X6256054Y-5096100D01*
X6318838Y-4861789D01*
X6350500Y-4621288D01*
X6350500Y-4378712D01*
X6318838Y-4138211D01*
X6256054Y-3903900D01*
X6163224Y-3679788D01*
X6041936Y-3469711D01*
X5978696Y-3387295D01*
X5894270Y-3277268D01*
X5894268Y-3277266D01*
X5894265Y-3277262D01*
X5722738Y-3105735D01*
X5722733Y-3105731D01*
X5722731Y-3105729D01*
X5530292Y-2958066D01*
X5530289Y-2958064D01*
X5320212Y-2836776D01*
X5320208Y-2836774D01*
X5320204Y-2836772D01*
X5096105Y-2743948D01*
X5096104Y-2743947D01*
X5096100Y-2743946D01*
X4861789Y-2681162D01*
X4861786Y-2681161D01*
X4861784Y-2681161D01*
X4621289Y-2649500D01*
X4621288Y-2649500D01*
X4378712Y-2649500D01*
X4378710Y-2649500D01*
X4138218Y-2681161D01*
X4138213Y-2681161D01*
X3903907Y-2743944D01*
X3903894Y-2743948D01*
X3679795Y-2836772D01*
X3469707Y-2958066D01*
X3277268Y-3105729D01*
X3105729Y-3277268D01*
X2958066Y-3469707D01*
X2836772Y-3679795D01*
X2743948Y-3903894D01*
X2743944Y-3903907D01*
X2681161Y-4138213D01*
X2681161Y-4138218D01*
X2649500Y-4378710D01*
X500500Y-4378710D01*
X500500Y-599500D01*
X519407Y-541309D01*
X568907Y-505345D01*
X599500Y-500500D01*
X85900500Y-500500D01*
X85958691Y-519407D01*
G37*
%TD.AperFunction*%
%TD*%
M02*
