M48
; DRILL file KiCad 10.0.6 date 2026-09-13T15:46:54
; FORMAT={-:-/ absolute / metric / decimal}
; #@! TF.CreationDate,2026-09-13T15:46:54-04:00
; #@! TF.GenerationSoftware,Kicad,Pcbnew,10.0.6
; #@! TF.FileFunction,Plated,1,2,PTH
FMAT,2
METRIC
; #@! TA.AperFunction,Plated,PTH,ViaDrill
T1C0.300
; #@! TA.AperFunction,Plated,PTH,ComponentDrill
T2C1.000
; #@! TA.AperFunction,Plated,PTH,ComponentDrill
T3C1.500
%
G90
G05
T1
X49.25Y-16.0
X74.5Y-16.75
T2
X8.25Y-13.5
X8.25Y-16.0
X8.25Y-18.5
X22.75Y-13.5
X22.75Y-18.5
X27.5Y-12.19
X27.5Y-14.73
X27.5Y-17.27
X27.5Y-19.81
X67.875Y-2.88
X67.875Y-5.42
X67.875Y-7.96
X67.875Y-10.5
X67.875Y-13.04
X67.875Y-15.58
X67.875Y-18.12
X83.125Y-2.88
X83.125Y-5.42
X83.125Y-7.96
X83.125Y-10.5
X83.125Y-13.04
X83.125Y-15.58
X83.125Y-18.12
T3
X11.69Y-40.96
X11.69Y-73.46
X18.04Y-38.42
X18.04Y-70.92
X39.44Y-40.96
X39.44Y-73.46
X45.79Y-38.42
X45.79Y-70.92
X67.19Y-40.96
X67.19Y-73.46
X73.54Y-38.42
X73.54Y-70.92
T3
G00X15.1Y-10.4
M15
G01X16.4Y-10.4
M16
G05
G00X15.1Y-21.6
M15
G01X16.4Y-21.6
M16
G05
M30
