M48
; DRILL file KiCad 10.0.6 date 2026-09-13T15:46:54
; FORMAT={-:-/ absolute / metric / decimal}
; #@! TF.CreationDate,2026-09-13T15:46:54-04:00
; #@! TF.GenerationSoftware,Kicad,Pcbnew,10.0.6
; #@! TF.FileFunction,NonPlated,1,2,NPTH
FMAT,2
METRIC
; #@! TA.AperFunction,NonPlated,NPTH,ComponentDrill
T1C1.700
; #@! TA.AperFunction,NonPlated,NPTH,ComponentDrill
T2C3.200
; #@! TA.AperFunction,NonPlated,NPTH,ComponentDrill
T3C4.000
%
G90
G05
T1
X10.42Y-43.5
X10.42Y-76.0
X20.58Y-43.5
X20.58Y-76.0
X38.17Y-43.5
X38.17Y-76.0
X48.33Y-43.5
X48.33Y-76.0
X65.92Y-43.5
X65.92Y-76.0
X76.08Y-43.5
X76.08Y-76.0
T2
X4.5Y-4.5
X4.5Y-84.0
X82.0Y-29.5
X82.0Y-84.0
T3
X15.5Y-43.5
X15.5Y-76.0
X43.25Y-43.5
X43.25Y-76.0
X71.0Y-43.5
X71.0Y-76.0
M30
