%TF.GenerationSoftware,KiCad,Pcbnew,10.0.6*%
%TF.CreationDate,2026-09-13T15:46:54-04:00*%
%TF.ProjectId,Hackpad,4861636b-7061-4642-9e6b-696361645f70,rev?*%
%TF.SameCoordinates,Original*%
%TF.FileFunction,Legend,Top*%
%TF.FilePolarity,Positive*%
%FSLAX46Y46*%
G04 Gerber Fmt 4.6, Leading zero omitted, Abs format (unit mm)*
G04 Created by KiCad (PCBNEW 10.0.6) date 2026-09-13 15:46:54*
%MOMM*%
%LPD*%
G01*
G04 APERTURE LIST*
%ADD10C,0.120000*%
%ADD11C,0.150000*%
%ADD12C,1.700000*%
%ADD13C,4.000000*%
%ADD14C,2.200000*%
%ADD15R,2.000000X2.000000*%
%ADD16C,2.000000*%
%ADD17R,3.200000X2.000000*%
%ADD18R,3.500000X1.700000*%
%ADD19O,3.600000X1.700000*%
%ADD20O,3.700000X1.700000*%
%ADD21C,3.200000*%
%ADD22R,1.700000X1.700000*%
G04 APERTURE END LIST*
D10*
X30890476Y-11791950D02*
X30814286Y-11753855D01*
X30814286Y-11753855D02*
X30700000Y-11753855D01*
X30700000Y-11753855D02*
X30585714Y-11791950D01*
X30585714Y-11791950D02*
X30509524Y-11868140D01*
X30509524Y-11868140D02*
X30471429Y-11944331D01*
X30471429Y-11944331D02*
X30433333Y-12096712D01*
X30433333Y-12096712D02*
X30433333Y-12210998D01*
X30433333Y-12210998D02*
X30471429Y-12363379D01*
X30471429Y-12363379D02*
X30509524Y-12439569D01*
X30509524Y-12439569D02*
X30585714Y-12515760D01*
X30585714Y-12515760D02*
X30700000Y-12553855D01*
X30700000Y-12553855D02*
X30776191Y-12553855D01*
X30776191Y-12553855D02*
X30890476Y-12515760D01*
X30890476Y-12515760D02*
X30928572Y-12477664D01*
X30928572Y-12477664D02*
X30928572Y-12210998D01*
X30928572Y-12210998D02*
X30776191Y-12210998D01*
X31271429Y-12553855D02*
X31271429Y-11753855D01*
X31271429Y-11753855D02*
X31728572Y-12553855D01*
X31728572Y-12553855D02*
X31728572Y-11753855D01*
X32109524Y-12553855D02*
X32109524Y-11753855D01*
X32109524Y-11753855D02*
X32300000Y-11753855D01*
X32300000Y-11753855D02*
X32414286Y-11791950D01*
X32414286Y-11791950D02*
X32490476Y-11868140D01*
X32490476Y-11868140D02*
X32528571Y-11944331D01*
X32528571Y-11944331D02*
X32566667Y-12096712D01*
X32566667Y-12096712D02*
X32566667Y-12210998D01*
X32566667Y-12210998D02*
X32528571Y-12363379D01*
X32528571Y-12363379D02*
X32490476Y-12439569D01*
X32490476Y-12439569D02*
X32414286Y-12515760D01*
X32414286Y-12515760D02*
X32300000Y-12553855D01*
X32300000Y-12553855D02*
X32109524Y-12553855D01*
X30509523Y-14293855D02*
X31004761Y-14293855D01*
X31004761Y-14293855D02*
X30738095Y-14598617D01*
X30738095Y-14598617D02*
X30852380Y-14598617D01*
X30852380Y-14598617D02*
X30928571Y-14636712D01*
X30928571Y-14636712D02*
X30966666Y-14674807D01*
X30966666Y-14674807D02*
X31004761Y-14750998D01*
X31004761Y-14750998D02*
X31004761Y-14941474D01*
X31004761Y-14941474D02*
X30966666Y-15017664D01*
X30966666Y-15017664D02*
X30928571Y-15055760D01*
X30928571Y-15055760D02*
X30852380Y-15093855D01*
X30852380Y-15093855D02*
X30623809Y-15093855D01*
X30623809Y-15093855D02*
X30547618Y-15055760D01*
X30547618Y-15055760D02*
X30509523Y-15017664D01*
X31233333Y-14293855D02*
X31500000Y-15093855D01*
X31500000Y-15093855D02*
X31766666Y-14293855D01*
X31957142Y-14293855D02*
X32452380Y-14293855D01*
X32452380Y-14293855D02*
X32185714Y-14598617D01*
X32185714Y-14598617D02*
X32299999Y-14598617D01*
X32299999Y-14598617D02*
X32376190Y-14636712D01*
X32376190Y-14636712D02*
X32414285Y-14674807D01*
X32414285Y-14674807D02*
X32452380Y-14750998D01*
X32452380Y-14750998D02*
X32452380Y-14941474D01*
X32452380Y-14941474D02*
X32414285Y-15017664D01*
X32414285Y-15017664D02*
X32376190Y-15055760D01*
X32376190Y-15055760D02*
X32299999Y-15093855D01*
X32299999Y-15093855D02*
X32071428Y-15093855D01*
X32071428Y-15093855D02*
X31995237Y-15055760D01*
X31995237Y-15055760D02*
X31957142Y-15017664D01*
X30547618Y-17595760D02*
X30661904Y-17633855D01*
X30661904Y-17633855D02*
X30852380Y-17633855D01*
X30852380Y-17633855D02*
X30928571Y-17595760D01*
X30928571Y-17595760D02*
X30966666Y-17557664D01*
X30966666Y-17557664D02*
X31004761Y-17481474D01*
X31004761Y-17481474D02*
X31004761Y-17405283D01*
X31004761Y-17405283D02*
X30966666Y-17329093D01*
X30966666Y-17329093D02*
X30928571Y-17290998D01*
X30928571Y-17290998D02*
X30852380Y-17252902D01*
X30852380Y-17252902D02*
X30699999Y-17214807D01*
X30699999Y-17214807D02*
X30623809Y-17176712D01*
X30623809Y-17176712D02*
X30585714Y-17138617D01*
X30585714Y-17138617D02*
X30547618Y-17062426D01*
X30547618Y-17062426D02*
X30547618Y-16986236D01*
X30547618Y-16986236D02*
X30585714Y-16910045D01*
X30585714Y-16910045D02*
X30623809Y-16871950D01*
X30623809Y-16871950D02*
X30699999Y-16833855D01*
X30699999Y-16833855D02*
X30890476Y-16833855D01*
X30890476Y-16833855D02*
X31004761Y-16871950D01*
X31804762Y-17557664D02*
X31766666Y-17595760D01*
X31766666Y-17595760D02*
X31652381Y-17633855D01*
X31652381Y-17633855D02*
X31576190Y-17633855D01*
X31576190Y-17633855D02*
X31461904Y-17595760D01*
X31461904Y-17595760D02*
X31385714Y-17519569D01*
X31385714Y-17519569D02*
X31347619Y-17443379D01*
X31347619Y-17443379D02*
X31309523Y-17290998D01*
X31309523Y-17290998D02*
X31309523Y-17176712D01*
X31309523Y-17176712D02*
X31347619Y-17024331D01*
X31347619Y-17024331D02*
X31385714Y-16948140D01*
X31385714Y-16948140D02*
X31461904Y-16871950D01*
X31461904Y-16871950D02*
X31576190Y-16833855D01*
X31576190Y-16833855D02*
X31652381Y-16833855D01*
X31652381Y-16833855D02*
X31766666Y-16871950D01*
X31766666Y-16871950D02*
X31804762Y-16910045D01*
X32528571Y-17633855D02*
X32147619Y-17633855D01*
X32147619Y-17633855D02*
X32147619Y-16833855D01*
X30528571Y-20135760D02*
X30642857Y-20173855D01*
X30642857Y-20173855D02*
X30833333Y-20173855D01*
X30833333Y-20173855D02*
X30909524Y-20135760D01*
X30909524Y-20135760D02*
X30947619Y-20097664D01*
X30947619Y-20097664D02*
X30985714Y-20021474D01*
X30985714Y-20021474D02*
X30985714Y-19945283D01*
X30985714Y-19945283D02*
X30947619Y-19869093D01*
X30947619Y-19869093D02*
X30909524Y-19830998D01*
X30909524Y-19830998D02*
X30833333Y-19792902D01*
X30833333Y-19792902D02*
X30680952Y-19754807D01*
X30680952Y-19754807D02*
X30604762Y-19716712D01*
X30604762Y-19716712D02*
X30566667Y-19678617D01*
X30566667Y-19678617D02*
X30528571Y-19602426D01*
X30528571Y-19602426D02*
X30528571Y-19526236D01*
X30528571Y-19526236D02*
X30566667Y-19450045D01*
X30566667Y-19450045D02*
X30604762Y-19411950D01*
X30604762Y-19411950D02*
X30680952Y-19373855D01*
X30680952Y-19373855D02*
X30871429Y-19373855D01*
X30871429Y-19373855D02*
X30985714Y-19411950D01*
X31328572Y-20173855D02*
X31328572Y-19373855D01*
X31328572Y-19373855D02*
X31519048Y-19373855D01*
X31519048Y-19373855D02*
X31633334Y-19411950D01*
X31633334Y-19411950D02*
X31709524Y-19488140D01*
X31709524Y-19488140D02*
X31747619Y-19564331D01*
X31747619Y-19564331D02*
X31785715Y-19716712D01*
X31785715Y-19716712D02*
X31785715Y-19830998D01*
X31785715Y-19830998D02*
X31747619Y-19983379D01*
X31747619Y-19983379D02*
X31709524Y-20059569D01*
X31709524Y-20059569D02*
X31633334Y-20135760D01*
X31633334Y-20135760D02*
X31519048Y-20173855D01*
X31519048Y-20173855D02*
X31328572Y-20173855D01*
X32090476Y-19945283D02*
X32471429Y-19945283D01*
X32014286Y-20173855D02*
X32280953Y-19373855D01*
X32280953Y-19373855D02*
X32547619Y-20173855D01*
D11*
X33200000Y-27008557D02*
X33800000Y-27908557D01*
X33800000Y-27008557D02*
X33200000Y-27908557D01*
X34142857Y-27908557D02*
X34142857Y-27008557D01*
X34528571Y-27651414D02*
X34957143Y-27651414D01*
X34442857Y-27908557D02*
X34742857Y-27008557D01*
X34742857Y-27008557D02*
X35042857Y-27908557D01*
X35514286Y-27008557D02*
X35685714Y-27008557D01*
X35685714Y-27008557D02*
X35771429Y-27051414D01*
X35771429Y-27051414D02*
X35857143Y-27137128D01*
X35857143Y-27137128D02*
X35900000Y-27308557D01*
X35900000Y-27308557D02*
X35900000Y-27608557D01*
X35900000Y-27608557D02*
X35857143Y-27779985D01*
X35857143Y-27779985D02*
X35771429Y-27865700D01*
X35771429Y-27865700D02*
X35685714Y-27908557D01*
X35685714Y-27908557D02*
X35514286Y-27908557D01*
X35514286Y-27908557D02*
X35428572Y-27865700D01*
X35428572Y-27865700D02*
X35342857Y-27779985D01*
X35342857Y-27779985D02*
X35300000Y-27608557D01*
X35300000Y-27608557D02*
X35300000Y-27308557D01*
X35300000Y-27308557D02*
X35342857Y-27137128D01*
X35342857Y-27137128D02*
X35428572Y-27051414D01*
X35428572Y-27051414D02*
X35514286Y-27008557D01*
X37485714Y-27908557D02*
X37185714Y-27479985D01*
X36971428Y-27908557D02*
X36971428Y-27008557D01*
X36971428Y-27008557D02*
X37314285Y-27008557D01*
X37314285Y-27008557D02*
X37400000Y-27051414D01*
X37400000Y-27051414D02*
X37442857Y-27094271D01*
X37442857Y-27094271D02*
X37485714Y-27179985D01*
X37485714Y-27179985D02*
X37485714Y-27308557D01*
X37485714Y-27308557D02*
X37442857Y-27394271D01*
X37442857Y-27394271D02*
X37400000Y-27437128D01*
X37400000Y-27437128D02*
X37314285Y-27479985D01*
X37314285Y-27479985D02*
X36971428Y-27479985D01*
X37871428Y-27908557D02*
X37871428Y-27008557D01*
X37871428Y-27008557D02*
X38214285Y-27008557D01*
X38214285Y-27008557D02*
X38300000Y-27051414D01*
X38300000Y-27051414D02*
X38342857Y-27094271D01*
X38342857Y-27094271D02*
X38385714Y-27179985D01*
X38385714Y-27179985D02*
X38385714Y-27308557D01*
X38385714Y-27308557D02*
X38342857Y-27394271D01*
X38342857Y-27394271D02*
X38300000Y-27437128D01*
X38300000Y-27437128D02*
X38214285Y-27479985D01*
X38214285Y-27479985D02*
X37871428Y-27479985D01*
X38728571Y-27094271D02*
X38771428Y-27051414D01*
X38771428Y-27051414D02*
X38857143Y-27008557D01*
X38857143Y-27008557D02*
X39071428Y-27008557D01*
X39071428Y-27008557D02*
X39157143Y-27051414D01*
X39157143Y-27051414D02*
X39200000Y-27094271D01*
X39200000Y-27094271D02*
X39242857Y-27179985D01*
X39242857Y-27179985D02*
X39242857Y-27265700D01*
X39242857Y-27265700D02*
X39200000Y-27394271D01*
X39200000Y-27394271D02*
X38685714Y-27908557D01*
X38685714Y-27908557D02*
X39242857Y-27908557D01*
X39800000Y-27008557D02*
X39885714Y-27008557D01*
X39885714Y-27008557D02*
X39971428Y-27051414D01*
X39971428Y-27051414D02*
X40014286Y-27094271D01*
X40014286Y-27094271D02*
X40057143Y-27179985D01*
X40057143Y-27179985D02*
X40100000Y-27351414D01*
X40100000Y-27351414D02*
X40100000Y-27565700D01*
X40100000Y-27565700D02*
X40057143Y-27737128D01*
X40057143Y-27737128D02*
X40014286Y-27822842D01*
X40014286Y-27822842D02*
X39971428Y-27865700D01*
X39971428Y-27865700D02*
X39885714Y-27908557D01*
X39885714Y-27908557D02*
X39800000Y-27908557D01*
X39800000Y-27908557D02*
X39714286Y-27865700D01*
X39714286Y-27865700D02*
X39671428Y-27822842D01*
X39671428Y-27822842D02*
X39628571Y-27737128D01*
X39628571Y-27737128D02*
X39585714Y-27565700D01*
X39585714Y-27565700D02*
X39585714Y-27351414D01*
X39585714Y-27351414D02*
X39628571Y-27179985D01*
X39628571Y-27179985D02*
X39671428Y-27094271D01*
X39671428Y-27094271D02*
X39714286Y-27051414D01*
X39714286Y-27051414D02*
X39800000Y-27008557D01*
X40871429Y-27308557D02*
X40871429Y-27908557D01*
X40657143Y-26965700D02*
X40442857Y-27608557D01*
X40442857Y-27608557D02*
X41000000Y-27608557D01*
X41514286Y-27008557D02*
X41600000Y-27008557D01*
X41600000Y-27008557D02*
X41685714Y-27051414D01*
X41685714Y-27051414D02*
X41728572Y-27094271D01*
X41728572Y-27094271D02*
X41771429Y-27179985D01*
X41771429Y-27179985D02*
X41814286Y-27351414D01*
X41814286Y-27351414D02*
X41814286Y-27565700D01*
X41814286Y-27565700D02*
X41771429Y-27737128D01*
X41771429Y-27737128D02*
X41728572Y-27822842D01*
X41728572Y-27822842D02*
X41685714Y-27865700D01*
X41685714Y-27865700D02*
X41600000Y-27908557D01*
X41600000Y-27908557D02*
X41514286Y-27908557D01*
X41514286Y-27908557D02*
X41428572Y-27865700D01*
X41428572Y-27865700D02*
X41385714Y-27822842D01*
X41385714Y-27822842D02*
X41342857Y-27737128D01*
X41342857Y-27737128D02*
X41300000Y-27565700D01*
X41300000Y-27565700D02*
X41300000Y-27351414D01*
X41300000Y-27351414D02*
X41342857Y-27179985D01*
X41342857Y-27179985D02*
X41385714Y-27094271D01*
X41385714Y-27094271D02*
X41428572Y-27051414D01*
X41428572Y-27051414D02*
X41514286Y-27008557D01*
X43528571Y-26965700D02*
X42757143Y-28122842D01*
X44514285Y-27437128D02*
X44814285Y-27437128D01*
X44942857Y-27908557D02*
X44514285Y-27908557D01*
X44514285Y-27908557D02*
X44514285Y-27008557D01*
X44514285Y-27008557D02*
X44942857Y-27008557D01*
X45842857Y-27822842D02*
X45800000Y-27865700D01*
X45800000Y-27865700D02*
X45671428Y-27908557D01*
X45671428Y-27908557D02*
X45585714Y-27908557D01*
X45585714Y-27908557D02*
X45457143Y-27865700D01*
X45457143Y-27865700D02*
X45371428Y-27779985D01*
X45371428Y-27779985D02*
X45328571Y-27694271D01*
X45328571Y-27694271D02*
X45285714Y-27522842D01*
X45285714Y-27522842D02*
X45285714Y-27394271D01*
X45285714Y-27394271D02*
X45328571Y-27222842D01*
X45328571Y-27222842D02*
X45371428Y-27137128D01*
X45371428Y-27137128D02*
X45457143Y-27051414D01*
X45457143Y-27051414D02*
X45585714Y-27008557D01*
X45585714Y-27008557D02*
X45671428Y-27008557D01*
X45671428Y-27008557D02*
X45800000Y-27051414D01*
X45800000Y-27051414D02*
X45842857Y-27094271D01*
X46700000Y-27908557D02*
X46185714Y-27908557D01*
X46442857Y-27908557D02*
X46442857Y-27008557D01*
X46442857Y-27008557D02*
X46357143Y-27137128D01*
X46357143Y-27137128D02*
X46271428Y-27222842D01*
X46271428Y-27222842D02*
X46185714Y-27265700D01*
X47557143Y-27908557D02*
X47042857Y-27908557D01*
X47300000Y-27908557D02*
X47300000Y-27008557D01*
X47300000Y-27008557D02*
X47214286Y-27137128D01*
X47214286Y-27137128D02*
X47128571Y-27222842D01*
X47128571Y-27222842D02*
X47042857Y-27265700D01*
X49271428Y-26965700D02*
X48500000Y-28122842D01*
X50428571Y-27008557D02*
X50599999Y-27008557D01*
X50599999Y-27008557D02*
X50685714Y-27051414D01*
X50685714Y-27051414D02*
X50771428Y-27137128D01*
X50771428Y-27137128D02*
X50814285Y-27308557D01*
X50814285Y-27308557D02*
X50814285Y-27608557D01*
X50814285Y-27608557D02*
X50771428Y-27779985D01*
X50771428Y-27779985D02*
X50685714Y-27865700D01*
X50685714Y-27865700D02*
X50599999Y-27908557D01*
X50599999Y-27908557D02*
X50428571Y-27908557D01*
X50428571Y-27908557D02*
X50342857Y-27865700D01*
X50342857Y-27865700D02*
X50257142Y-27779985D01*
X50257142Y-27779985D02*
X50214285Y-27608557D01*
X50214285Y-27608557D02*
X50214285Y-27308557D01*
X50214285Y-27308557D02*
X50257142Y-27137128D01*
X50257142Y-27137128D02*
X50342857Y-27051414D01*
X50342857Y-27051414D02*
X50428571Y-27008557D01*
X51628571Y-27908557D02*
X51199999Y-27908557D01*
X51199999Y-27908557D02*
X51199999Y-27008557D01*
X51928570Y-27437128D02*
X52228570Y-27437128D01*
X52357142Y-27908557D02*
X51928570Y-27908557D01*
X51928570Y-27908557D02*
X51928570Y-27008557D01*
X51928570Y-27008557D02*
X52357142Y-27008557D01*
X52742856Y-27908557D02*
X52742856Y-27008557D01*
X52742856Y-27008557D02*
X52957142Y-27008557D01*
X52957142Y-27008557D02*
X53085713Y-27051414D01*
X53085713Y-27051414D02*
X53171428Y-27137128D01*
X53171428Y-27137128D02*
X53214285Y-27222842D01*
X53214285Y-27222842D02*
X53257142Y-27394271D01*
X53257142Y-27394271D02*
X53257142Y-27522842D01*
X53257142Y-27522842D02*
X53214285Y-27694271D01*
X53214285Y-27694271D02*
X53171428Y-27779985D01*
X53171428Y-27779985D02*
X53085713Y-27865700D01*
X53085713Y-27865700D02*
X52957142Y-27908557D01*
X52957142Y-27908557D02*
X52742856Y-27908557D01*
X73357142Y-23008557D02*
X73357142Y-23737128D01*
X73357142Y-23737128D02*
X73399999Y-23822842D01*
X73399999Y-23822842D02*
X73442857Y-23865700D01*
X73442857Y-23865700D02*
X73528571Y-23908557D01*
X73528571Y-23908557D02*
X73699999Y-23908557D01*
X73699999Y-23908557D02*
X73785714Y-23865700D01*
X73785714Y-23865700D02*
X73828571Y-23822842D01*
X73828571Y-23822842D02*
X73871428Y-23737128D01*
X73871428Y-23737128D02*
X73871428Y-23008557D01*
X74257142Y-23865700D02*
X74385714Y-23908557D01*
X74385714Y-23908557D02*
X74599999Y-23908557D01*
X74599999Y-23908557D02*
X74685714Y-23865700D01*
X74685714Y-23865700D02*
X74728571Y-23822842D01*
X74728571Y-23822842D02*
X74771428Y-23737128D01*
X74771428Y-23737128D02*
X74771428Y-23651414D01*
X74771428Y-23651414D02*
X74728571Y-23565700D01*
X74728571Y-23565700D02*
X74685714Y-23522842D01*
X74685714Y-23522842D02*
X74599999Y-23479985D01*
X74599999Y-23479985D02*
X74428571Y-23437128D01*
X74428571Y-23437128D02*
X74342856Y-23394271D01*
X74342856Y-23394271D02*
X74299999Y-23351414D01*
X74299999Y-23351414D02*
X74257142Y-23265700D01*
X74257142Y-23265700D02*
X74257142Y-23179985D01*
X74257142Y-23179985D02*
X74299999Y-23094271D01*
X74299999Y-23094271D02*
X74342856Y-23051414D01*
X74342856Y-23051414D02*
X74428571Y-23008557D01*
X74428571Y-23008557D02*
X74642856Y-23008557D01*
X74642856Y-23008557D02*
X74771428Y-23051414D01*
X75457142Y-23437128D02*
X75585714Y-23479985D01*
X75585714Y-23479985D02*
X75628571Y-23522842D01*
X75628571Y-23522842D02*
X75671428Y-23608557D01*
X75671428Y-23608557D02*
X75671428Y-23737128D01*
X75671428Y-23737128D02*
X75628571Y-23822842D01*
X75628571Y-23822842D02*
X75585714Y-23865700D01*
X75585714Y-23865700D02*
X75499999Y-23908557D01*
X75499999Y-23908557D02*
X75157142Y-23908557D01*
X75157142Y-23908557D02*
X75157142Y-23008557D01*
X75157142Y-23008557D02*
X75457142Y-23008557D01*
X75457142Y-23008557D02*
X75542857Y-23051414D01*
X75542857Y-23051414D02*
X75585714Y-23094271D01*
X75585714Y-23094271D02*
X75628571Y-23179985D01*
X75628571Y-23179985D02*
X75628571Y-23265700D01*
X75628571Y-23265700D02*
X75585714Y-23351414D01*
X75585714Y-23351414D02*
X75542857Y-23394271D01*
X75542857Y-23394271D02*
X75457142Y-23437128D01*
X75457142Y-23437128D02*
X75157142Y-23437128D01*
X76057142Y-23565700D02*
X76742857Y-23565700D01*
X77685714Y-23822842D02*
X77642857Y-23865700D01*
X77642857Y-23865700D02*
X77514285Y-23908557D01*
X77514285Y-23908557D02*
X77428571Y-23908557D01*
X77428571Y-23908557D02*
X77300000Y-23865700D01*
X77300000Y-23865700D02*
X77214285Y-23779985D01*
X77214285Y-23779985D02*
X77171428Y-23694271D01*
X77171428Y-23694271D02*
X77128571Y-23522842D01*
X77128571Y-23522842D02*
X77128571Y-23394271D01*
X77128571Y-23394271D02*
X77171428Y-23222842D01*
X77171428Y-23222842D02*
X77214285Y-23137128D01*
X77214285Y-23137128D02*
X77300000Y-23051414D01*
X77300000Y-23051414D02*
X77428571Y-23008557D01*
X77428571Y-23008557D02*
X77514285Y-23008557D01*
X77514285Y-23008557D02*
X77642857Y-23051414D01*
X77642857Y-23051414D02*
X77685714Y-23094271D01*
X36964285Y-30917438D02*
X36964285Y-28917438D01*
X36964285Y-29869819D02*
X38107142Y-29869819D01*
X38107142Y-30917438D02*
X38107142Y-28917438D01*
X38964285Y-30346009D02*
X39916666Y-30346009D01*
X38773809Y-30917438D02*
X39440475Y-28917438D01*
X39440475Y-28917438D02*
X40107142Y-30917438D01*
X41916666Y-30726961D02*
X41821428Y-30822200D01*
X41821428Y-30822200D02*
X41535714Y-30917438D01*
X41535714Y-30917438D02*
X41345238Y-30917438D01*
X41345238Y-30917438D02*
X41059523Y-30822200D01*
X41059523Y-30822200D02*
X40869047Y-30631723D01*
X40869047Y-30631723D02*
X40773809Y-30441247D01*
X40773809Y-30441247D02*
X40678571Y-30060295D01*
X40678571Y-30060295D02*
X40678571Y-29774580D01*
X40678571Y-29774580D02*
X40773809Y-29393628D01*
X40773809Y-29393628D02*
X40869047Y-29203152D01*
X40869047Y-29203152D02*
X41059523Y-29012676D01*
X41059523Y-29012676D02*
X41345238Y-28917438D01*
X41345238Y-28917438D02*
X41535714Y-28917438D01*
X41535714Y-28917438D02*
X41821428Y-29012676D01*
X41821428Y-29012676D02*
X41916666Y-29107914D01*
X42773809Y-30917438D02*
X42773809Y-28917438D01*
X43916666Y-30917438D02*
X43059523Y-29774580D01*
X43916666Y-28917438D02*
X42773809Y-30060295D01*
X44773809Y-30917438D02*
X44773809Y-28917438D01*
X44773809Y-28917438D02*
X45535714Y-28917438D01*
X45535714Y-28917438D02*
X45726190Y-29012676D01*
X45726190Y-29012676D02*
X45821428Y-29107914D01*
X45821428Y-29107914D02*
X45916666Y-29298390D01*
X45916666Y-29298390D02*
X45916666Y-29584104D01*
X45916666Y-29584104D02*
X45821428Y-29774580D01*
X45821428Y-29774580D02*
X45726190Y-29869819D01*
X45726190Y-29869819D02*
X45535714Y-29965057D01*
X45535714Y-29965057D02*
X44773809Y-29965057D01*
X46678571Y-30346009D02*
X47630952Y-30346009D01*
X46488095Y-30917438D02*
X47154761Y-28917438D01*
X47154761Y-28917438D02*
X47821428Y-30917438D01*
X48488095Y-30917438D02*
X48488095Y-28917438D01*
X48488095Y-28917438D02*
X48964285Y-28917438D01*
X48964285Y-28917438D02*
X49250000Y-29012676D01*
X49250000Y-29012676D02*
X49440476Y-29203152D01*
X49440476Y-29203152D02*
X49535714Y-29393628D01*
X49535714Y-29393628D02*
X49630952Y-29774580D01*
X49630952Y-29774580D02*
X49630952Y-30060295D01*
X49630952Y-30060295D02*
X49535714Y-30441247D01*
X49535714Y-30441247D02*
X49440476Y-30631723D01*
X49440476Y-30631723D02*
X49250000Y-30822200D01*
X49250000Y-30822200D02*
X48964285Y-30917438D01*
X48964285Y-30917438D02*
X48488095Y-30917438D01*
X41916667Y-33327200D02*
X42059524Y-33374819D01*
X42059524Y-33374819D02*
X42297619Y-33374819D01*
X42297619Y-33374819D02*
X42392857Y-33327200D01*
X42392857Y-33327200D02*
X42440476Y-33279580D01*
X42440476Y-33279580D02*
X42488095Y-33184342D01*
X42488095Y-33184342D02*
X42488095Y-33089104D01*
X42488095Y-33089104D02*
X42440476Y-32993866D01*
X42440476Y-32993866D02*
X42392857Y-32946247D01*
X42392857Y-32946247D02*
X42297619Y-32898628D01*
X42297619Y-32898628D02*
X42107143Y-32851009D01*
X42107143Y-32851009D02*
X42011905Y-32803390D01*
X42011905Y-32803390D02*
X41964286Y-32755771D01*
X41964286Y-32755771D02*
X41916667Y-32660533D01*
X41916667Y-32660533D02*
X41916667Y-32565295D01*
X41916667Y-32565295D02*
X41964286Y-32470057D01*
X41964286Y-32470057D02*
X42011905Y-32422438D01*
X42011905Y-32422438D02*
X42107143Y-32374819D01*
X42107143Y-32374819D02*
X42345238Y-32374819D01*
X42345238Y-32374819D02*
X42488095Y-32422438D01*
X42821429Y-32374819D02*
X43059524Y-33374819D01*
X43059524Y-33374819D02*
X43250000Y-32660533D01*
X43250000Y-32660533D02*
X43440476Y-33374819D01*
X43440476Y-33374819D02*
X43678572Y-32374819D01*
X44488095Y-32708152D02*
X44488095Y-33374819D01*
X44250000Y-32327200D02*
X44011905Y-33041485D01*
X44011905Y-33041485D02*
X44630952Y-33041485D01*
X14166667Y-33327200D02*
X14309524Y-33374819D01*
X14309524Y-33374819D02*
X14547619Y-33374819D01*
X14547619Y-33374819D02*
X14642857Y-33327200D01*
X14642857Y-33327200D02*
X14690476Y-33279580D01*
X14690476Y-33279580D02*
X14738095Y-33184342D01*
X14738095Y-33184342D02*
X14738095Y-33089104D01*
X14738095Y-33089104D02*
X14690476Y-32993866D01*
X14690476Y-32993866D02*
X14642857Y-32946247D01*
X14642857Y-32946247D02*
X14547619Y-32898628D01*
X14547619Y-32898628D02*
X14357143Y-32851009D01*
X14357143Y-32851009D02*
X14261905Y-32803390D01*
X14261905Y-32803390D02*
X14214286Y-32755771D01*
X14214286Y-32755771D02*
X14166667Y-32660533D01*
X14166667Y-32660533D02*
X14166667Y-32565295D01*
X14166667Y-32565295D02*
X14214286Y-32470057D01*
X14214286Y-32470057D02*
X14261905Y-32422438D01*
X14261905Y-32422438D02*
X14357143Y-32374819D01*
X14357143Y-32374819D02*
X14595238Y-32374819D01*
X14595238Y-32374819D02*
X14738095Y-32422438D01*
X15071429Y-32374819D02*
X15309524Y-33374819D01*
X15309524Y-33374819D02*
X15500000Y-32660533D01*
X15500000Y-32660533D02*
X15690476Y-33374819D01*
X15690476Y-33374819D02*
X15928572Y-32374819D01*
X16833333Y-33374819D02*
X16261905Y-33374819D01*
X16547619Y-33374819D02*
X16547619Y-32374819D01*
X16547619Y-32374819D02*
X16452381Y-32517676D01*
X16452381Y-32517676D02*
X16357143Y-32612914D01*
X16357143Y-32612914D02*
X16261905Y-32660533D01*
X14416667Y-5407200D02*
X14559524Y-5454819D01*
X14559524Y-5454819D02*
X14797619Y-5454819D01*
X14797619Y-5454819D02*
X14892857Y-5407200D01*
X14892857Y-5407200D02*
X14940476Y-5359580D01*
X14940476Y-5359580D02*
X14988095Y-5264342D01*
X14988095Y-5264342D02*
X14988095Y-5169104D01*
X14988095Y-5169104D02*
X14940476Y-5073866D01*
X14940476Y-5073866D02*
X14892857Y-5026247D01*
X14892857Y-5026247D02*
X14797619Y-4978628D01*
X14797619Y-4978628D02*
X14607143Y-4931009D01*
X14607143Y-4931009D02*
X14511905Y-4883390D01*
X14511905Y-4883390D02*
X14464286Y-4835771D01*
X14464286Y-4835771D02*
X14416667Y-4740533D01*
X14416667Y-4740533D02*
X14416667Y-4645295D01*
X14416667Y-4645295D02*
X14464286Y-4550057D01*
X14464286Y-4550057D02*
X14511905Y-4502438D01*
X14511905Y-4502438D02*
X14607143Y-4454819D01*
X14607143Y-4454819D02*
X14845238Y-4454819D01*
X14845238Y-4454819D02*
X14988095Y-4502438D01*
X15321429Y-4454819D02*
X15559524Y-5454819D01*
X15559524Y-5454819D02*
X15750000Y-4740533D01*
X15750000Y-4740533D02*
X15940476Y-5454819D01*
X15940476Y-5454819D02*
X16178572Y-4454819D01*
X16988095Y-4454819D02*
X16797619Y-4454819D01*
X16797619Y-4454819D02*
X16702381Y-4502438D01*
X16702381Y-4502438D02*
X16654762Y-4550057D01*
X16654762Y-4550057D02*
X16559524Y-4692914D01*
X16559524Y-4692914D02*
X16511905Y-4883390D01*
X16511905Y-4883390D02*
X16511905Y-5264342D01*
X16511905Y-5264342D02*
X16559524Y-5359580D01*
X16559524Y-5359580D02*
X16607143Y-5407200D01*
X16607143Y-5407200D02*
X16702381Y-5454819D01*
X16702381Y-5454819D02*
X16892857Y-5454819D01*
X16892857Y-5454819D02*
X16988095Y-5407200D01*
X16988095Y-5407200D02*
X17035714Y-5359580D01*
X17035714Y-5359580D02*
X17083333Y-5264342D01*
X17083333Y-5264342D02*
X17083333Y-5026247D01*
X17083333Y-5026247D02*
X17035714Y-4931009D01*
X17035714Y-4931009D02*
X16988095Y-4883390D01*
X16988095Y-4883390D02*
X16892857Y-4835771D01*
X16892857Y-4835771D02*
X16702381Y-4835771D01*
X16702381Y-4835771D02*
X16607143Y-4883390D01*
X16607143Y-4883390D02*
X16559524Y-4931009D01*
X16559524Y-4931009D02*
X16511905Y-5026247D01*
X69666667Y-33327200D02*
X69809524Y-33374819D01*
X69809524Y-33374819D02*
X70047619Y-33374819D01*
X70047619Y-33374819D02*
X70142857Y-33327200D01*
X70142857Y-33327200D02*
X70190476Y-33279580D01*
X70190476Y-33279580D02*
X70238095Y-33184342D01*
X70238095Y-33184342D02*
X70238095Y-33089104D01*
X70238095Y-33089104D02*
X70190476Y-32993866D01*
X70190476Y-32993866D02*
X70142857Y-32946247D01*
X70142857Y-32946247D02*
X70047619Y-32898628D01*
X70047619Y-32898628D02*
X69857143Y-32851009D01*
X69857143Y-32851009D02*
X69761905Y-32803390D01*
X69761905Y-32803390D02*
X69714286Y-32755771D01*
X69714286Y-32755771D02*
X69666667Y-32660533D01*
X69666667Y-32660533D02*
X69666667Y-32565295D01*
X69666667Y-32565295D02*
X69714286Y-32470057D01*
X69714286Y-32470057D02*
X69761905Y-32422438D01*
X69761905Y-32422438D02*
X69857143Y-32374819D01*
X69857143Y-32374819D02*
X70095238Y-32374819D01*
X70095238Y-32374819D02*
X70238095Y-32422438D01*
X70571429Y-32374819D02*
X70809524Y-33374819D01*
X70809524Y-33374819D02*
X71000000Y-32660533D01*
X71000000Y-32660533D02*
X71190476Y-33374819D01*
X71190476Y-33374819D02*
X71428572Y-32374819D01*
X71761905Y-32470057D02*
X71809524Y-32422438D01*
X71809524Y-32422438D02*
X71904762Y-32374819D01*
X71904762Y-32374819D02*
X72142857Y-32374819D01*
X72142857Y-32374819D02*
X72238095Y-32422438D01*
X72238095Y-32422438D02*
X72285714Y-32470057D01*
X72285714Y-32470057D02*
X72333333Y-32565295D01*
X72333333Y-32565295D02*
X72333333Y-32660533D01*
X72333333Y-32660533D02*
X72285714Y-32803390D01*
X72285714Y-32803390D02*
X71714286Y-33374819D01*
X71714286Y-33374819D02*
X72333333Y-33374819D01*
X41916667Y-65827200D02*
X42059524Y-65874819D01*
X42059524Y-65874819D02*
X42297619Y-65874819D01*
X42297619Y-65874819D02*
X42392857Y-65827200D01*
X42392857Y-65827200D02*
X42440476Y-65779580D01*
X42440476Y-65779580D02*
X42488095Y-65684342D01*
X42488095Y-65684342D02*
X42488095Y-65589104D01*
X42488095Y-65589104D02*
X42440476Y-65493866D01*
X42440476Y-65493866D02*
X42392857Y-65446247D01*
X42392857Y-65446247D02*
X42297619Y-65398628D01*
X42297619Y-65398628D02*
X42107143Y-65351009D01*
X42107143Y-65351009D02*
X42011905Y-65303390D01*
X42011905Y-65303390D02*
X41964286Y-65255771D01*
X41964286Y-65255771D02*
X41916667Y-65160533D01*
X41916667Y-65160533D02*
X41916667Y-65065295D01*
X41916667Y-65065295D02*
X41964286Y-64970057D01*
X41964286Y-64970057D02*
X42011905Y-64922438D01*
X42011905Y-64922438D02*
X42107143Y-64874819D01*
X42107143Y-64874819D02*
X42345238Y-64874819D01*
X42345238Y-64874819D02*
X42488095Y-64922438D01*
X42821429Y-64874819D02*
X43059524Y-65874819D01*
X43059524Y-65874819D02*
X43250000Y-65160533D01*
X43250000Y-65160533D02*
X43440476Y-65874819D01*
X43440476Y-65874819D02*
X43678572Y-64874819D01*
X43964286Y-64874819D02*
X44630952Y-64874819D01*
X44630952Y-64874819D02*
X44202381Y-65874819D01*
X14166667Y-65827200D02*
X14309524Y-65874819D01*
X14309524Y-65874819D02*
X14547619Y-65874819D01*
X14547619Y-65874819D02*
X14642857Y-65827200D01*
X14642857Y-65827200D02*
X14690476Y-65779580D01*
X14690476Y-65779580D02*
X14738095Y-65684342D01*
X14738095Y-65684342D02*
X14738095Y-65589104D01*
X14738095Y-65589104D02*
X14690476Y-65493866D01*
X14690476Y-65493866D02*
X14642857Y-65446247D01*
X14642857Y-65446247D02*
X14547619Y-65398628D01*
X14547619Y-65398628D02*
X14357143Y-65351009D01*
X14357143Y-65351009D02*
X14261905Y-65303390D01*
X14261905Y-65303390D02*
X14214286Y-65255771D01*
X14214286Y-65255771D02*
X14166667Y-65160533D01*
X14166667Y-65160533D02*
X14166667Y-65065295D01*
X14166667Y-65065295D02*
X14214286Y-64970057D01*
X14214286Y-64970057D02*
X14261905Y-64922438D01*
X14261905Y-64922438D02*
X14357143Y-64874819D01*
X14357143Y-64874819D02*
X14595238Y-64874819D01*
X14595238Y-64874819D02*
X14738095Y-64922438D01*
X15071429Y-64874819D02*
X15309524Y-65874819D01*
X15309524Y-65874819D02*
X15500000Y-65160533D01*
X15500000Y-65160533D02*
X15690476Y-65874819D01*
X15690476Y-65874819D02*
X15928572Y-64874819D01*
X16785714Y-64874819D02*
X16309524Y-64874819D01*
X16309524Y-64874819D02*
X16261905Y-65351009D01*
X16261905Y-65351009D02*
X16309524Y-65303390D01*
X16309524Y-65303390D02*
X16404762Y-65255771D01*
X16404762Y-65255771D02*
X16642857Y-65255771D01*
X16642857Y-65255771D02*
X16738095Y-65303390D01*
X16738095Y-65303390D02*
X16785714Y-65351009D01*
X16785714Y-65351009D02*
X16833333Y-65446247D01*
X16833333Y-65446247D02*
X16833333Y-65684342D01*
X16833333Y-65684342D02*
X16785714Y-65779580D01*
X16785714Y-65779580D02*
X16738095Y-65827200D01*
X16738095Y-65827200D02*
X16642857Y-65874819D01*
X16642857Y-65874819D02*
X16404762Y-65874819D01*
X16404762Y-65874819D02*
X16309524Y-65827200D01*
X16309524Y-65827200D02*
X16261905Y-65779580D01*
X24666666Y-15454819D02*
X24666666Y-16169104D01*
X24666666Y-16169104D02*
X24619047Y-16311961D01*
X24619047Y-16311961D02*
X24523809Y-16407200D01*
X24523809Y-16407200D02*
X24380952Y-16454819D01*
X24380952Y-16454819D02*
X24285714Y-16454819D01*
X25666666Y-16454819D02*
X25095238Y-16454819D01*
X25380952Y-16454819D02*
X25380952Y-15454819D01*
X25380952Y-15454819D02*
X25285714Y-15597676D01*
X25285714Y-15597676D02*
X25190476Y-15692914D01*
X25190476Y-15692914D02*
X25095238Y-15740533D01*
X69666667Y-65827200D02*
X69809524Y-65874819D01*
X69809524Y-65874819D02*
X70047619Y-65874819D01*
X70047619Y-65874819D02*
X70142857Y-65827200D01*
X70142857Y-65827200D02*
X70190476Y-65779580D01*
X70190476Y-65779580D02*
X70238095Y-65684342D01*
X70238095Y-65684342D02*
X70238095Y-65589104D01*
X70238095Y-65589104D02*
X70190476Y-65493866D01*
X70190476Y-65493866D02*
X70142857Y-65446247D01*
X70142857Y-65446247D02*
X70047619Y-65398628D01*
X70047619Y-65398628D02*
X69857143Y-65351009D01*
X69857143Y-65351009D02*
X69761905Y-65303390D01*
X69761905Y-65303390D02*
X69714286Y-65255771D01*
X69714286Y-65255771D02*
X69666667Y-65160533D01*
X69666667Y-65160533D02*
X69666667Y-65065295D01*
X69666667Y-65065295D02*
X69714286Y-64970057D01*
X69714286Y-64970057D02*
X69761905Y-64922438D01*
X69761905Y-64922438D02*
X69857143Y-64874819D01*
X69857143Y-64874819D02*
X70095238Y-64874819D01*
X70095238Y-64874819D02*
X70238095Y-64922438D01*
X70571429Y-64874819D02*
X70809524Y-65874819D01*
X70809524Y-65874819D02*
X71000000Y-65160533D01*
X71000000Y-65160533D02*
X71190476Y-65874819D01*
X71190476Y-65874819D02*
X71428572Y-64874819D01*
X71714286Y-64874819D02*
X72333333Y-64874819D01*
X72333333Y-64874819D02*
X72000000Y-65255771D01*
X72000000Y-65255771D02*
X72142857Y-65255771D01*
X72142857Y-65255771D02*
X72238095Y-65303390D01*
X72238095Y-65303390D02*
X72285714Y-65351009D01*
X72285714Y-65351009D02*
X72333333Y-65446247D01*
X72333333Y-65446247D02*
X72333333Y-65684342D01*
X72333333Y-65684342D02*
X72285714Y-65779580D01*
X72285714Y-65779580D02*
X72238095Y-65827200D01*
X72238095Y-65827200D02*
X72142857Y-65874819D01*
X72142857Y-65874819D02*
X71857143Y-65874819D01*
X71857143Y-65874819D02*
X71761905Y-65827200D01*
X71761905Y-65827200D02*
X71714286Y-65779580D01*
%TO.C,SW4*%
D10*
X36265000Y-36515000D02*
X50235000Y-36515000D01*
X36265000Y-50485000D02*
X36265000Y-36515000D01*
X50235000Y-36515000D02*
X50235000Y-50485000D01*
X50235000Y-50485000D02*
X36265000Y-50485000D01*
%TO.C,SW1*%
X8515000Y-36515000D02*
X22485000Y-36515000D01*
X8515000Y-50485000D02*
X8515000Y-36515000D01*
X22485000Y-36515000D02*
X22485000Y-50485000D01*
X22485000Y-50485000D02*
X8515000Y-50485000D01*
%TO.C,SW6*%
X7950000Y-11900000D02*
X8550000Y-11900000D01*
X8250000Y-12200000D02*
X7950000Y-11900000D01*
X8550000Y-11900000D02*
X8250000Y-12200000D01*
X9650000Y-10100000D02*
X9650000Y-21900000D01*
X13750000Y-10100000D02*
X9650000Y-10100000D01*
X13750000Y-21900000D02*
X9650000Y-21900000D01*
X15250000Y-16000000D02*
X16250000Y-16000000D01*
X15750000Y-15500000D02*
X15750000Y-16500000D01*
X17750000Y-10100000D02*
X21850000Y-10100000D01*
X21850000Y-10100000D02*
X21850000Y-12500000D01*
X21850000Y-14700000D02*
X21850000Y-17300000D01*
X21850000Y-19500000D02*
X21850000Y-21900000D01*
X21850000Y-21900000D02*
X17750000Y-21900000D01*
X18750000Y-16000000D02*
G75*
G02*
X12750000Y-16000000I-3000000J0D01*
G01*
X12750000Y-16000000D02*
G75*
G02*
X18750000Y-16000000I3000000J0D01*
G01*
%TO.C,SW2*%
X64015000Y-36515000D02*
X77985000Y-36515000D01*
X64015000Y-50485000D02*
X64015000Y-36515000D01*
X77985000Y-36515000D02*
X77985000Y-50485000D01*
X77985000Y-50485000D02*
X64015000Y-50485000D01*
%TO.C,SW7*%
X36265000Y-69015000D02*
X50235000Y-69015000D01*
X36265000Y-82985000D02*
X36265000Y-69015000D01*
X50235000Y-69015000D02*
X50235000Y-82985000D01*
X50235000Y-82985000D02*
X36265000Y-82985000D01*
%TO.C,SW5*%
X8515000Y-69015000D02*
X22485000Y-69015000D01*
X8515000Y-82985000D02*
X8515000Y-69015000D01*
X22485000Y-69015000D02*
X22485000Y-82985000D01*
X22485000Y-82985000D02*
X8515000Y-82985000D01*
%TO.C,J1*%
X26120000Y-10810000D02*
X27500000Y-10810000D01*
X26120000Y-12190000D02*
X26120000Y-10810000D01*
X26120000Y-13460000D02*
X26120000Y-21190000D01*
X26120000Y-13460000D02*
X28880000Y-13460000D01*
X26120000Y-21190000D02*
X28880000Y-21190000D01*
X28880000Y-13460000D02*
X28880000Y-21190000D01*
%TO.C,SW3*%
X64015000Y-69015000D02*
X77985000Y-69015000D01*
X64015000Y-82985000D02*
X64015000Y-69015000D01*
X77985000Y-69015000D02*
X77985000Y-82985000D01*
X77985000Y-82985000D02*
X64015000Y-82985000D01*
%TD*%
%LPC*%
D12*
%TO.C,SW4*%
X38170000Y-43500000D03*
D13*
X43250000Y-43500000D03*
D12*
X48330000Y-43500000D03*
D14*
X45790000Y-38420000D03*
X39440000Y-40960000D03*
%TD*%
D12*
%TO.C,SW1*%
X10420000Y-43500000D03*
D13*
X15500000Y-43500000D03*
D12*
X20580000Y-43500000D03*
D14*
X18040000Y-38420000D03*
X11690000Y-40960000D03*
%TD*%
D15*
%TO.C,SW6*%
X8250000Y-13500000D03*
D16*
X8250000Y-18500000D03*
X8250000Y-16000000D03*
D17*
X15750000Y-10400000D03*
X15750000Y-21600000D03*
D16*
X22750000Y-18500000D03*
X22750000Y-13500000D03*
%TD*%
D18*
%TO.C,U1*%
X66875000Y-2880000D03*
D19*
X66875000Y-5420000D03*
X66875000Y-7960000D03*
X66875000Y-10500000D03*
X66875000Y-13040000D03*
X66875000Y-15580000D03*
X66875000Y-18120000D03*
X84125000Y-18120000D03*
X84125000Y-15580000D03*
X84125000Y-13040000D03*
D20*
X84125000Y-10500000D03*
X84125000Y-7960000D03*
X84125000Y-5420000D03*
X84125000Y-2880000D03*
%TD*%
D12*
%TO.C,SW2*%
X65920000Y-43500000D03*
D13*
X71000000Y-43500000D03*
D12*
X76080000Y-43500000D03*
D14*
X73540000Y-38420000D03*
X67190000Y-40960000D03*
%TD*%
D12*
%TO.C,SW7*%
X38170000Y-76000000D03*
D13*
X43250000Y-76000000D03*
D12*
X48330000Y-76000000D03*
D14*
X45790000Y-70920000D03*
X39440000Y-73460000D03*
%TD*%
D12*
%TO.C,SW5*%
X10420000Y-76000000D03*
D13*
X15500000Y-76000000D03*
D12*
X20580000Y-76000000D03*
D14*
X18040000Y-70920000D03*
X11690000Y-73460000D03*
%TD*%
D21*
%TO.C,H3*%
X4500000Y-84000000D03*
%TD*%
%TO.C,H2*%
X82000000Y-29500000D03*
%TD*%
D22*
%TO.C,J1*%
X27500000Y-12190000D03*
D12*
X27500000Y-14730000D03*
X27500000Y-17270000D03*
X27500000Y-19810000D03*
%TD*%
D21*
%TO.C,H1*%
X4500000Y-4500000D03*
%TD*%
%TO.C,H4*%
X82000000Y-84000000D03*
%TD*%
D12*
%TO.C,SW3*%
X65920000Y-76000000D03*
D13*
X71000000Y-76000000D03*
D12*
X76080000Y-76000000D03*
D14*
X73540000Y-70920000D03*
X67190000Y-73460000D03*
%TD*%
%LPD*%
M02*
